<ttFont>
    <TTGlyph name="" xMin="75" yMin="-20" xMax="1169" yMax="1147">
      <contour>
        <pt x="280" y="854" on="1"/>
        <pt x="288" y="854" on="0"/>
        <pt x="306" y="858" on="0"/>
        <pt x="315" y="860" on="1"/>
        <pt x="315" y="997" on="1"/>
        <pt x="315" y="1020" on="0"/>
        <pt x="298" y="1042" on="0"/>
        <pt x="280" y="1042" on="1"/>
        <pt x="235" y="1042" on="0"/>
        <pt x="181" y="991" on="0"/>
        <pt x="181" y="946" on="1"/>
        <pt x="181" y="905" on="0"/>
        <pt x="235" y="854" on="0"/>
      </contour>
      <contour>
        <pt x="1169" y="0" on="1"/>
        <pt x="1001" y="0" on="1"/>
        <pt x="1001" y="774" on="1"/>
        <pt x="1001" y="834" on="0"/>
        <pt x="978" y="922" on="0"/>
        <pt x="915" y="985" on="0"/>
        <pt x="839" y="1012" on="0"/>
        <pt x="773" y="1012" on="1"/>
        <pt x="706" y="1012" on="0"/>
        <pt x="575" y="924" on="0"/>
        <pt x="483" y="836" on="1"/>
        <pt x="483" y="170" on="1"/>
        <pt x="483" y="80" on="0"/>
        <pt x="376" y="-20" on="0"/>
        <pt x="278" y="-20" on="1"/>
        <pt x="179" y="-20" on="0"/>
        <pt x="75" y="80" on="0"/>
        <pt x="75" y="170" on="1"/>
        <pt x="75" y="260" on="0"/>
        <pt x="175" y="360" on="0"/>
        <pt x="270" y="360" on="1"/>
        <pt x="282" y="360" on="0"/>
        <pt x="308" y="358" on="0"/>
        <pt x="315" y="356" on="1"/>
        <pt x="315" y="760" on="1"/>
        <pt x="306" y="758" on="0"/>
        <pt x="297" y="758" on="1"/>
        <pt x="280" y="758" on="1"/>
        <pt x="186" y="758" on="0"/>
        <pt x="75" y="856" on="0"/>
        <pt x="75" y="946" on="1"/>
        <pt x="75" y="1036" on="0"/>
        <pt x="179" y="1137" on="0"/>
        <pt x="278" y="1137" on="1"/>
        <pt x="372" y="1137" on="0"/>
        <pt x="468" y="1053" on="0"/>
        <pt x="478" y="979" on="1"/>
        <pt x="569" y="1069" on="0"/>
        <pt x="710" y="1147" on="0"/>
        <pt x="794" y="1147" on="1"/>
        <pt x="888" y="1147" on="0"/>
        <pt x="1019" y="1102" on="0"/>
        <pt x="1126" y="999" on="0"/>
        <pt x="1169" y="854" on="0"/>
        <pt x="1169" y="774" on="1"/>
      </contour>
      <contour>
        <pt x="280" y="76" on="1"/>
        <pt x="321" y="76" on="0"/>
        <pt x="374" y="127" on="0"/>
        <pt x="374" y="170" on="1"/>
        <pt x="374" y="213" on="0"/>
        <pt x="321" y="262" on="0"/>
        <pt x="280" y="262" on="1"/>
        <pt x="235" y="262" on="0"/>
        <pt x="181" y="213" on="0"/>
        <pt x="181" y="170" on="1"/>
        <pt x="181" y="127" on="0"/>
        <pt x="235" y="76" on="0"/>
      </contour>
    </TTGlyph>
    <TTGlyph name="#1" xMin="112" yMin="-20" xMax="1222" yMax="1147">
      <contour>
        <pt x="319" y="727" on="1"/>
        <pt x="362" y="727" on="0"/>
        <pt x="415" y="778" on="0"/>
        <pt x="415" y="821" on="1"/>
        <pt x="415" y="864" on="0"/>
        <pt x="362" y="913" on="0"/>
        <pt x="319" y="913" on="1"/>
        <pt x="278" y="913" on="0"/>
        <pt x="223" y="864" on="0"/>
        <pt x="223" y="821" on="1"/>
        <pt x="223" y="778" on="0"/>
        <pt x="278" y="727" on="0"/>
      </contour>
      <contour>
        <pt x="1097" y="-6" on="1"/>
        <pt x="1066" y="51" on="0"/>
        <pt x="972" y="150" on="0"/>
        <pt x="917" y="150" on="1"/>
        <pt x="874" y="150" on="0"/>
        <pt x="759" y="102" on="0"/>
        <pt x="622" y="31" on="0"/>
        <pt x="474" y="-20" on="0"/>
        <pt x="376" y="-20" on="1"/>
        <pt x="249" y="-20" on="0"/>
        <pt x="112" y="94" on="0"/>
        <pt x="112" y="188" on="1"/>
        <pt x="112" y="301" on="0"/>
        <pt x="249" y="438" on="0"/>
        <pt x="466" y="522" on="0"/>
        <pt x="685" y="584" on="0"/>
        <pt x="866" y="664" on="0"/>
        <pt x="980" y="760" on="0"/>
        <pt x="980" y="821" on="1"/>
        <pt x="980" y="860" on="0"/>
        <pt x="943" y="924" on="0"/>
        <pt x="862" y="981" on="0"/>
        <pt x="737" y="1012" on="0"/>
        <pt x="661" y="1012" on="1"/>
        <pt x="597" y="1012" on="0"/>
        <pt x="487" y="995" on="0"/>
        <pt x="442" y="977" on="1"/>
        <pt x="483" y="946" on="0"/>
        <pt x="524" y="870" on="0"/>
        <pt x="524" y="821" on="1"/>
        <pt x="524" y="731" on="0"/>
        <pt x="417" y="633" on="0"/>
        <pt x="321" y="633" on="1"/>
        <pt x="221" y="633" on="0"/>
        <pt x="168" y="683" on="1"/>
        <pt x="116" y="731" on="0"/>
        <pt x="116" y="815" on="1"/>
        <pt x="116" y="821" on="1"/>
        <pt x="116" y="905" on="0"/>
        <pt x="208" y="1034" on="0"/>
        <pt x="376" y="1114" on="0"/>
        <pt x="561" y="1147" on="0"/>
        <pt x="667" y="1147" on="1"/>
        <pt x="771" y="1147" on="0"/>
        <pt x="950" y="1106" on="0"/>
        <pt x="1095" y="1020" on="0"/>
        <pt x="1154" y="899" on="0"/>
        <pt x="1154" y="827" on="1"/>
        <pt x="1154" y="698" on="0"/>
        <pt x="999" y="551" on="0"/>
        <pt x="831" y="465" on="0"/>
        <pt x="630" y="403" on="0"/>
        <pt x="413" y="332" on="0"/>
        <pt x="286" y="260" on="0"/>
        <pt x="286" y="201" on="1"/>
        <pt x="286" y="160" on="0"/>
        <pt x="337" y="117" on="0"/>
        <pt x="376" y="117" on="1"/>
        <pt x="386" y="117" on="1"/>
        <pt x="441" y="117" on="0"/>
        <pt x="489" y="137" on="1"/>
        <pt x="542" y="158" on="0"/>
        <pt x="718" y="240" on="0"/>
        <pt x="849" y="285" on="0"/>
        <pt x="925" y="285" on="1"/>
        <pt x="1025" y="285" on="0"/>
        <pt x="1167" y="170" on="0"/>
        <pt x="1222" y="72" on="1"/>
      </contour>
    </TTGlyph>
    <TTGlyph name="#10" xMin="75" yMin="-20" xMax="1238" yMax="1145">
      <contour>
        <pt x="280" y="854" on="1"/>
        <pt x="321" y="854" on="0"/>
        <pt x="374" y="905" on="0"/>
        <pt x="374" y="946" on="1"/>
        <pt x="374" y="991" on="0"/>
        <pt x="321" y="1042" on="0"/>
        <pt x="280" y="1042" on="1"/>
        <pt x="235" y="1042" on="0"/>
        <pt x="181" y="991" on="0"/>
        <pt x="181" y="946" on="1"/>
        <pt x="181" y="905" on="0"/>
        <pt x="235" y="854" on="0"/>
      </contour>
      <contour>
        <pt x="1238" y="0" on="1"/>
        <pt x="1070" y="0" on="1"/>
        <pt x="1070" y="844" on="1"/>
        <pt x="1070" y="885" on="0"/>
        <pt x="1052" y="950" on="0"/>
        <pt x="1013" y="991" on="0"/>
        <pt x="962" y="1010" on="0"/>
        <pt x="931" y="1010" on="1"/>
        <pt x="898" y="1010" on="0"/>
        <pt x="847" y="991" on="0"/>
        <pt x="812" y="950" on="0"/>
        <pt x="792" y="889" on="0"/>
        <pt x="792" y="844" on="1"/>
        <pt x="792" y="301" on="1"/>
        <pt x="792" y="219" on="0"/>
        <pt x="743" y="98" on="0"/>
        <pt x="653" y="20" on="0"/>
        <pt x="532" y="-20" on="0"/>
        <pt x="452" y="-20" on="1"/>
        <pt x="390" y="-20" on="0"/>
        <pt x="282" y="10" on="0"/>
        <pt x="173" y="106" on="0"/>
        <pt x="116" y="248" on="0"/>
        <pt x="116" y="354" on="1"/>
        <pt x="116" y="465" on="0"/>
        <pt x="202" y="621" on="0"/>
        <pt x="294" y="702" on="0"/>
        <pt x="337" y="750" on="0"/>
        <pt x="343" y="772" on="1"/>
        <pt x="315" y="758" on="0"/>
        <pt x="270" y="758" on="1"/>
        <pt x="175" y="758" on="0"/>
        <pt x="75" y="856" on="0"/>
        <pt x="75" y="946" on="1"/>
        <pt x="75" y="1036" on="0"/>
        <pt x="179" y="1137" on="0"/>
        <pt x="278" y="1137" on="1"/>
        <pt x="399" y="1137" on="0"/>
        <pt x="511" y="1004" on="0"/>
        <pt x="511" y="909" on="1"/>
        <pt x="511" y="846" on="0"/>
        <pt x="452" y="713" on="0"/>
        <pt x="347" y="575" on="0"/>
        <pt x="290" y="432" on="0"/>
        <pt x="290" y="358" on="1"/>
        <pt x="290" y="291" on="0"/>
        <pt x="321" y="182" on="0"/>
        <pt x="376" y="135" on="0"/>
        <pt x="401" y="125" on="1"/>
        <pt x="421" y="117" on="0"/>
        <pt x="444" y="117" on="1"/>
        <pt x="454" y="117" on="1"/>
        <pt x="491" y="117" on="0"/>
        <pt x="556" y="137" on="0"/>
        <pt x="603" y="186" on="0"/>
        <pt x="624" y="258" on="0"/>
        <pt x="624" y="299" on="1"/>
        <pt x="624" y="844" on="1"/>
        <pt x="624" y="932" on="0"/>
        <pt x="675" y="1044" on="0"/>
        <pt x="759" y="1114" on="0"/>
        <pt x="868" y="1145" on="0"/>
        <pt x="931" y="1145" on="1"/>
        <pt x="990" y="1145" on="0"/>
        <pt x="1107" y="1114" on="0"/>
        <pt x="1187" y="1040" on="0"/>
        <pt x="1238" y="932" on="0"/>
        <pt x="1238" y="844" on="1"/>
      </contour>
    </TTGlyph>
    <TTGlyph name="#11" xMin="75" yMin="-20" xMax="1169" yMax="1137">
      <contour>
        <pt x="280" y="854" on="1"/>
        <pt x="321" y="854" on="0"/>
        <pt x="374" y="903" on="0"/>
        <pt x="374" y="946" on="1"/>
        <pt x="374" y="989" on="0"/>
        <pt x="321" y="1040" on="0"/>
        <pt x="280" y="1040" on="1"/>
        <pt x="235" y="1040" on="0"/>
        <pt x="181" y="989" on="0"/>
        <pt x="181" y="946" on="1"/>
        <pt x="181" y="903" on="0"/>
        <pt x="235" y="854" on="0"/>
      </contour>
      <contour>
        <pt x="788" y="-20" on="1"/>
        <pt x="681" y="-20" on="0"/>
        <pt x="505" y="84" on="0"/>
        <pt x="448" y="172" on="1"/>
        <pt x="411" y="82" on="0"/>
        <pt x="263" y="-20" on="0"/>
        <pt x="147" y="-20" on="1"/>
        <pt x="93" y="-20" on="1"/>
        <pt x="93" y="115" on="1"/>
        <pt x="147" y="115" on="1"/>
        <pt x="245" y="115" on="0"/>
        <pt x="315" y="231" on="0"/>
        <pt x="315" y="334" on="1"/>
        <pt x="315" y="760" on="1"/>
        <pt x="308" y="758" on="0"/>
        <pt x="282" y="756" on="0"/>
        <pt x="270" y="756" on="1"/>
        <pt x="175" y="756" on="0"/>
        <pt x="75" y="854" on="0"/>
        <pt x="75" y="946" on="1"/>
        <pt x="75" y="1036" on="0"/>
        <pt x="179" y="1137" on="0"/>
        <pt x="278" y="1137" on="1"/>
        <pt x="376" y="1137" on="0"/>
        <pt x="483" y="1036" on="0"/>
        <pt x="483" y="946" on="1"/>
        <pt x="483" y="324" on="1"/>
        <pt x="519" y="231" on="0"/>
        <pt x="596" y="173" on="1"/>
        <pt x="670" y="117" on="0"/>
        <pt x="780" y="117" on="1"/>
        <pt x="788" y="117" on="1"/>
        <pt x="900" y="117" on="0"/>
        <pt x="1001" y="231" on="0"/>
        <pt x="1001" y="334" on="1"/>
        <pt x="1001" y="1126" on="1"/>
        <pt x="1169" y="1126" on="1"/>
        <pt x="1169" y="334" on="1"/>
        <pt x="1169" y="168" on="0"/>
        <pt x="966" y="-18" on="0"/>
      </contour>
    </TTGlyph>
    <TTGlyph name="#12" xMin="75" yMin="-20" xMax="1169" yMax="1137">
      <contour>
        <pt x="280" y="854" on="1"/>
        <pt x="321" y="854" on="0"/>
        <pt x="374" y="905" on="0"/>
        <pt x="374" y="946" on="1"/>
        <pt x="374" y="991" on="0"/>
        <pt x="321" y="1042" on="0"/>
        <pt x="280" y="1042" on="1"/>
        <pt x="235" y="1042" on="0"/>
        <pt x="181" y="991" on="0"/>
        <pt x="181" y="946" on="1"/>
        <pt x="181" y="905" on="0"/>
        <pt x="235" y="854" on="0"/>
      </contour>
      <contour>
        <pt x="638" y="-20" on="1"/>
        <pt x="501" y="-20" on="0"/>
        <pt x="300" y="37" on="0"/>
        <pt x="171" y="139" on="0"/>
        <pt x="116" y="276" on="0"/>
        <pt x="116" y="354" on="1"/>
        <pt x="116" y="465" on="0"/>
        <pt x="202" y="621" on="0"/>
        <pt x="294" y="702" on="0"/>
        <pt x="337" y="750" on="0"/>
        <pt x="343" y="772" on="1"/>
        <pt x="315" y="758" on="0"/>
        <pt x="270" y="758" on="1"/>
        <pt x="175" y="758" on="0"/>
        <pt x="75" y="856" on="0"/>
        <pt x="75" y="946" on="1"/>
        <pt x="75" y="1036" on="0"/>
        <pt x="179" y="1137" on="0"/>
        <pt x="278" y="1137" on="1"/>
        <pt x="399" y="1137" on="0"/>
        <pt x="511" y="1004" on="0"/>
        <pt x="511" y="909" on="1"/>
        <pt x="511" y="846" on="0"/>
        <pt x="452" y="713" on="0"/>
        <pt x="347" y="575" on="0"/>
        <pt x="290" y="432" on="0"/>
        <pt x="290" y="358" on="1"/>
        <pt x="290" y="299" on="0"/>
        <pt x="337" y="211" on="0"/>
        <pt x="419" y="147" on="0"/>
        <pt x="552" y="117" on="0"/>
        <pt x="638" y="117" on="1"/>
        <pt x="743" y="117" on="0"/>
        <pt x="872" y="162" on="0"/>
        <pt x="958" y="236" on="0"/>
        <pt x="1001" y="352" on="0"/>
        <pt x="1001" y="428" on="1"/>
        <pt x="1001" y="1126" on="1"/>
        <pt x="1169" y="1126" on="1"/>
        <pt x="1169" y="428" on="1"/>
        <pt x="1169" y="319" on="0"/>
        <pt x="1101" y="160" on="0"/>
        <pt x="974" y="45" on="0"/>
        <pt x="775" y="-20" on="0"/>
      </contour>
    </TTGlyph>
    <TTGlyph name="#13" xMin="75" yMin="-20" xMax="1169" yMax="1556">
      <contour>
        <pt x="280" y="854" on="1"/>
        <pt x="321" y="854" on="0"/>
        <pt x="374" y="905" on="0"/>
        <pt x="374" y="946" on="1"/>
        <pt x="374" y="991" on="0"/>
        <pt x="321" y="1042" on="0"/>
        <pt x="280" y="1042" on="1"/>
        <pt x="235" y="1042" on="0"/>
        <pt x="181" y="991" on="0"/>
        <pt x="181" y="946" on="1"/>
        <pt x="181" y="905" on="0"/>
        <pt x="235" y="854" on="0"/>
      </contour>
      <contour>
        <pt x="638" y="-20" on="1"/>
        <pt x="501" y="-20" on="0"/>
        <pt x="300" y="37" on="0"/>
        <pt x="171" y="139" on="0"/>
        <pt x="116" y="276" on="0"/>
        <pt x="116" y="354" on="1"/>
        <pt x="116" y="465" on="0"/>
        <pt x="202" y="621" on="0"/>
        <pt x="294" y="702" on="0"/>
        <pt x="337" y="750" on="0"/>
        <pt x="343" y="772" on="1"/>
        <pt x="315" y="758" on="0"/>
        <pt x="270" y="758" on="1"/>
        <pt x="175" y="758" on="0"/>
        <pt x="75" y="856" on="0"/>
        <pt x="75" y="946" on="1"/>
        <pt x="75" y="1036" on="0"/>
        <pt x="179" y="1137" on="0"/>
        <pt x="278" y="1137" on="1"/>
        <pt x="399" y="1137" on="0"/>
        <pt x="511" y="1004" on="0"/>
        <pt x="511" y="909" on="1"/>
        <pt x="511" y="846" on="0"/>
        <pt x="452" y="713" on="0"/>
        <pt x="347" y="575" on="0"/>
        <pt x="290" y="432" on="0"/>
        <pt x="290" y="358" on="1"/>
        <pt x="290" y="299" on="0"/>
        <pt x="337" y="211" on="0"/>
        <pt x="419" y="147" on="0"/>
        <pt x="552" y="117" on="0"/>
        <pt x="638" y="117" on="1"/>
        <pt x="741" y="117" on="0"/>
        <pt x="872" y="162" on="0"/>
        <pt x="958" y="236" on="0"/>
        <pt x="1001" y="352" on="0"/>
        <pt x="1001" y="428" on="1"/>
        <pt x="1001" y="1556" on="1"/>
        <pt x="1169" y="1556" on="1"/>
        <pt x="1169" y="428" on="1"/>
        <pt x="1169" y="319" on="0"/>
        <pt x="1101" y="160" on="0"/>
        <pt x="974" y="45" on="0"/>
        <pt x="775" y="-20" on="0"/>
      </contour>
    </TTGlyph>
    <TTGlyph name="#14" xMin="163" yMin="-20" xMax="1470" yMax="1159">
      <contour>
        <pt x="951" y="-20" on="1"/>
        <pt x="876" y="-20" on="0"/>
        <pt x="759" y="39" on="0"/>
        <pt x="718" y="96" on="1"/>
        <pt x="679" y="45" on="0"/>
        <pt x="564" y="-20" on="0"/>
        <pt x="482" y="-20" on="1"/>
        <pt x="333" y="-20" on="0"/>
        <pt x="163" y="137" on="0"/>
        <pt x="163" y="299" on="1"/>
        <pt x="165" y="946" on="1"/>
        <pt x="165" y="1036" on="0"/>
        <pt x="269" y="1137" on="0"/>
        <pt x="370" y="1137" on="1"/>
        <pt x="466" y="1137" on="0"/>
        <pt x="573" y="1036" on="0"/>
        <pt x="573" y="946" on="1"/>
        <pt x="573" y="854" on="0"/>
        <pt x="470" y="756" on="0"/>
        <pt x="378" y="756" on="1"/>
        <pt x="366" y="756" on="0"/>
        <pt x="337" y="758" on="0"/>
        <pt x="333" y="760" on="1"/>
        <pt x="331" y="299" on="1"/>
        <pt x="331" y="205" on="0"/>
        <pt x="409" y="117" on="0"/>
        <pt x="482" y="117" on="1"/>
        <pt x="558" y="117" on="0"/>
        <pt x="634" y="209" on="0"/>
        <pt x="634" y="299" on="1"/>
        <pt x="634" y="459" on="1"/>
        <pt x="802" y="459" on="1"/>
        <pt x="800" y="299" on="1"/>
        <pt x="800" y="203" on="0"/>
        <pt x="882" y="117" on="0"/>
        <pt x="951" y="117" on="1"/>
        <pt x="1025" y="117" on="0"/>
        <pt x="1103" y="205" on="0"/>
        <pt x="1103" y="299" on="1"/>
        <pt x="1103" y="758" on="1"/>
        <pt x="1068" y="758" on="1"/>
        <pt x="976" y="758" on="0"/>
        <pt x="863" y="856" on="0"/>
        <pt x="863" y="946" on="1"/>
        <pt x="863" y="1036" on="0"/>
        <pt x="970" y="1137" on="0"/>
        <pt x="1066" y="1137" on="1"/>
        <pt x="1156" y="1137" on="0"/>
        <pt x="1255" y="1044" on="0"/>
        <pt x="1267" y="958" on="1"/>
        <pt x="1296" y="997" on="0"/>
        <pt x="1332" y="1102" on="0"/>
        <pt x="1343" y="1159" on="1"/>
        <pt x="1470" y="1108" on="1"/>
        <pt x="1441" y="1006" on="0"/>
        <pt x="1343" y="854" on="0"/>
        <pt x="1271" y="811" on="1"/>
        <pt x="1271" y="299" on="1"/>
        <pt x="1271" y="141" on="0"/>
        <pt x="1101" y="-20" on="0"/>
      </contour>
      <contour>
        <pt x="1068" y="854" on="1"/>
        <pt x="1076" y="854" on="0"/>
        <pt x="1095" y="856" on="0"/>
        <pt x="1103" y="856" on="1"/>
        <pt x="1103" y="997" on="1"/>
        <pt x="1103" y="1020" on="0"/>
        <pt x="1087" y="1042" on="0"/>
        <pt x="1068" y="1042" on="1"/>
        <pt x="1023" y="1042" on="0"/>
        <pt x="972" y="991" on="0"/>
        <pt x="972" y="946" on="1"/>
        <pt x="972" y="905" on="0"/>
        <pt x="1023" y="854" on="0"/>
      </contour>
      <contour>
        <pt x="464" y="946" on="1"/>
        <pt x="464" y="989" on="0"/>
        <pt x="411" y="1040" on="0"/>
        <pt x="368" y="1040" on="1"/>
        <pt x="327" y="1040" on="0"/>
        <pt x="272" y="989" on="0"/>
        <pt x="272" y="946" on="1"/>
        <pt x="272" y="903" on="0"/>
        <pt x="327" y="854" on="0"/>
        <pt x="368" y="854" on="1"/>
        <pt x="411" y="854" on="0"/>
        <pt x="464" y="903" on="0"/>
      </contour>
    </TTGlyph>
    <TTGlyph name="#15" xMin="163" yMin="-20" xMax="1271" yMax="1556">
      <contour>
        <pt x="951" y="-20" on="1"/>
        <pt x="876" y="-20" on="0"/>
        <pt x="759" y="39" on="0"/>
        <pt x="718" y="96" on="1"/>
        <pt x="679" y="43" on="0"/>
        <pt x="564" y="-20" on="0"/>
        <pt x="482" y="-20" on="1"/>
        <pt x="333" y="-20" on="0"/>
        <pt x="163" y="137" on="0"/>
        <pt x="163" y="299" on="1"/>
        <pt x="165" y="946" on="1"/>
        <pt x="165" y="1036" on="0"/>
        <pt x="269" y="1137" on="0"/>
        <pt x="370" y="1137" on="1"/>
        <pt x="466" y="1137" on="0"/>
        <pt x="573" y="1036" on="0"/>
        <pt x="573" y="946" on="1"/>
        <pt x="573" y="854" on="0"/>
        <pt x="470" y="756" on="0"/>
        <pt x="378" y="756" on="1"/>
        <pt x="366" y="756" on="0"/>
        <pt x="337" y="758" on="0"/>
        <pt x="333" y="760" on="1"/>
        <pt x="331" y="299" on="1"/>
        <pt x="331" y="205" on="0"/>
        <pt x="370" y="160" on="1"/>
        <pt x="407" y="117" on="0"/>
        <pt x="476" y="117" on="1"/>
        <pt x="482" y="117" on="1"/>
        <pt x="556" y="117" on="0"/>
        <pt x="634" y="209" on="0"/>
        <pt x="634" y="299" on="1"/>
        <pt x="634" y="459" on="1"/>
        <pt x="802" y="459" on="1"/>
        <pt x="800" y="299" on="1"/>
        <pt x="800" y="203" on="0"/>
        <pt x="882" y="117" on="0"/>
        <pt x="951" y="117" on="1"/>
        <pt x="1025" y="117" on="0"/>
        <pt x="1103" y="205" on="0"/>
        <pt x="1103" y="299" on="1"/>
        <pt x="1103" y="1556" on="1"/>
        <pt x="1271" y="1556" on="1"/>
        <pt x="1271" y="299" on="1"/>
        <pt x="1271" y="137" on="0"/>
        <pt x="1101" y="-20" on="0"/>
      </contour>
      <contour>
        <pt x="464" y="946" on="1"/>
        <pt x="464" y="989" on="0"/>
        <pt x="411" y="1040" on="0"/>
        <pt x="368" y="1040" on="1"/>
        <pt x="327" y="1040" on="0"/>
        <pt x="272" y="989" on="0"/>
        <pt x="272" y="946" on="1"/>
        <pt x="272" y="903" on="0"/>
        <pt x="327" y="854" on="0"/>
        <pt x="368" y="854" on="1"/>
        <pt x="411" y="854" on="0"/>
        <pt x="464" y="903" on="0"/>
      </contour>
    </TTGlyph>
    <TTGlyph name="#16" xMin="75" yMin="-20" xMax="1271" yMax="1137">
      <contour>
        <pt x="952" y="-20" on="1"/>
        <pt x="876" y="-20" on="0"/>
        <pt x="759" y="39" on="0"/>
        <pt x="718" y="96" on="1"/>
        <pt x="679" y="43" on="0"/>
        <pt x="564" y="-20" on="0"/>
        <pt x="483" y="-20" on="1"/>
        <pt x="397" y="-20" on="0"/>
        <pt x="268" y="20" on="0"/>
        <pt x="157" y="127" on="0"/>
        <pt x="116" y="276" on="0"/>
        <pt x="116" y="354" on="1"/>
        <pt x="116" y="465" on="0"/>
        <pt x="202" y="621" on="0"/>
        <pt x="294" y="702" on="0"/>
        <pt x="337" y="750" on="0"/>
        <pt x="343" y="772" on="1"/>
        <pt x="315" y="758" on="0"/>
        <pt x="270" y="758" on="1"/>
        <pt x="175" y="758" on="0"/>
        <pt x="75" y="856" on="0"/>
        <pt x="75" y="946" on="1"/>
        <pt x="75" y="1036" on="0"/>
        <pt x="179" y="1137" on="0"/>
        <pt x="278" y="1137" on="1"/>
        <pt x="399" y="1137" on="0"/>
        <pt x="511" y="1004" on="0"/>
        <pt x="511" y="909" on="1"/>
        <pt x="511" y="846" on="0"/>
        <pt x="452" y="713" on="0"/>
        <pt x="347" y="575" on="0"/>
        <pt x="290" y="432" on="0"/>
        <pt x="290" y="358" on="1"/>
        <pt x="290" y="299" on="0"/>
        <pt x="319" y="203" on="0"/>
        <pt x="368" y="141" on="0"/>
        <pt x="437" y="117" on="0"/>
        <pt x="483" y="117" on="1"/>
        <pt x="556" y="117" on="0"/>
        <pt x="634" y="209" on="0"/>
        <pt x="634" y="299" on="1"/>
        <pt x="634" y="907" on="1"/>
        <pt x="802" y="907" on="1"/>
        <pt x="800" y="299" on="1"/>
        <pt x="800" y="203" on="0"/>
        <pt x="882" y="117" on="0"/>
        <pt x="952" y="117" on="1"/>
        <pt x="1025" y="117" on="0"/>
        <pt x="1103" y="205" on="0"/>
        <pt x="1103" y="299" on="1"/>
        <pt x="1103" y="1126" on="1"/>
        <pt x="1271" y="1126" on="1"/>
        <pt x="1271" y="299" on="1"/>
        <pt x="1271" y="137" on="0"/>
        <pt x="1101" y="-20" on="0"/>
      </contour>
      <contour>
        <pt x="181" y="946" on="1"/>
        <pt x="181" y="905" on="0"/>
        <pt x="235" y="854" on="0"/>
        <pt x="280" y="854" on="1"/>
        <pt x="321" y="854" on="0"/>
        <pt x="374" y="905" on="0"/>
        <pt x="374" y="946" on="1"/>
        <pt x="374" y="991" on="0"/>
        <pt x="321" y="1042" on="0"/>
        <pt x="280" y="1042" on="1"/>
        <pt x="235" y="1042" on="0"/>
        <pt x="181" y="991" on="0"/>
      </contour>
    </TTGlyph>
    <TTGlyph name="#17" xMin="75" yMin="-20" xMax="1271" yMax="1556">
      <contour>
        <pt x="952" y="-20" on="1"/>
        <pt x="876" y="-20" on="0"/>
        <pt x="759" y="39" on="0"/>
        <pt x="718" y="96" on="1"/>
        <pt x="679" y="43" on="0"/>
        <pt x="564" y="-20" on="0"/>
        <pt x="483" y="-20" on="1"/>
        <pt x="397" y="-20" on="0"/>
        <pt x="268" y="20" on="0"/>
        <pt x="157" y="127" on="0"/>
        <pt x="116" y="276" on="0"/>
        <pt x="116" y="354" on="1"/>
        <pt x="116" y="465" on="0"/>
        <pt x="202" y="621" on="0"/>
        <pt x="294" y="702" on="0"/>
        <pt x="337" y="750" on="0"/>
        <pt x="343" y="772" on="1"/>
        <pt x="315" y="758" on="0"/>
        <pt x="270" y="758" on="1"/>
        <pt x="175" y="758" on="0"/>
        <pt x="75" y="856" on="0"/>
        <pt x="75" y="946" on="1"/>
        <pt x="75" y="1036" on="0"/>
        <pt x="179" y="1137" on="0"/>
        <pt x="278" y="1137" on="1"/>
        <pt x="399" y="1137" on="0"/>
        <pt x="511" y="1004" on="0"/>
        <pt x="511" y="909" on="1"/>
        <pt x="511" y="846" on="0"/>
        <pt x="452" y="713" on="0"/>
        <pt x="347" y="575" on="0"/>
        <pt x="319" y="506" on="1"/>
        <pt x="290" y="434" on="0"/>
        <pt x="290" y="358" on="1"/>
        <pt x="290" y="299" on="0"/>
        <pt x="319" y="203" on="0"/>
        <pt x="368" y="141" on="0"/>
        <pt x="437" y="117" on="0"/>
        <pt x="483" y="117" on="1"/>
        <pt x="556" y="117" on="0"/>
        <pt x="634" y="209" on="0"/>
        <pt x="634" y="299" on="1"/>
        <pt x="634" y="907" on="1"/>
        <pt x="802" y="907" on="1"/>
        <pt x="800" y="299" on="1"/>
        <pt x="800" y="203" on="0"/>
        <pt x="882" y="117" on="0"/>
        <pt x="952" y="117" on="1"/>
        <pt x="1025" y="117" on="0"/>
        <pt x="1103" y="205" on="0"/>
        <pt x="1103" y="299" on="1"/>
        <pt x="1103" y="1556" on="1"/>
        <pt x="1271" y="1556" on="1"/>
        <pt x="1271" y="299" on="1"/>
        <pt x="1271" y="137" on="0"/>
        <pt x="1101" y="-20" on="0"/>
      </contour>
      <contour>
        <pt x="181" y="946" on="1"/>
        <pt x="181" y="905" on="0"/>
        <pt x="235" y="854" on="0"/>
        <pt x="280" y="854" on="1"/>
        <pt x="321" y="854" on="0"/>
        <pt x="374" y="905" on="0"/>
        <pt x="374" y="946" on="1"/>
        <pt x="374" y="991" on="0"/>
        <pt x="321" y="1042" on="0"/>
        <pt x="280" y="1042" on="1"/>
        <pt x="235" y="1042" on="0"/>
        <pt x="181" y="991" on="0"/>
      </contour>
    </TTGlyph>
    <TTGlyph name="#18" xMin="75" yMin="-20" xMax="1169" yMax="1126">
      <contour>
        <pt x="788" y="-20" on="1"/>
        <pt x="689" y="-20" on="0"/>
        <pt x="534" y="63" on="0"/>
        <pt x="478" y="129" on="1"/>
        <pt x="468" y="61" on="0"/>
        <pt x="366" y="-18" on="0"/>
        <pt x="278" y="-18" on="1"/>
        <pt x="179" y="-18" on="0"/>
        <pt x="75" y="82" on="0"/>
        <pt x="75" y="172" on="1"/>
        <pt x="75" y="262" on="0"/>
        <pt x="175" y="362" on="0"/>
        <pt x="270" y="362" on="1"/>
        <pt x="282" y="362" on="0"/>
        <pt x="308" y="360" on="0"/>
        <pt x="315" y="358" on="1"/>
        <pt x="315" y="1126" on="1"/>
        <pt x="483" y="1126" on="1"/>
        <pt x="483" y="324" on="1"/>
        <pt x="519" y="231" on="0"/>
        <pt x="596" y="173" on="1"/>
        <pt x="670" y="117" on="0"/>
        <pt x="780" y="117" on="1"/>
        <pt x="788" y="117" on="1"/>
        <pt x="900" y="117" on="0"/>
        <pt x="1001" y="231" on="0"/>
        <pt x="1001" y="334" on="1"/>
        <pt x="1001" y="1126" on="1"/>
        <pt x="1169" y="1126" on="1"/>
        <pt x="1169" y="334" on="1"/>
        <pt x="1169" y="168" on="0"/>
        <pt x="966" y="-18" on="0"/>
      </contour>
      <contour>
        <pt x="280" y="78" on="1"/>
        <pt x="321" y="78" on="0"/>
        <pt x="374" y="127" on="0"/>
        <pt x="374" y="172" on="1"/>
        <pt x="374" y="213" on="0"/>
        <pt x="321" y="264" on="0"/>
        <pt x="280" y="264" on="1"/>
        <pt x="235" y="264" on="0"/>
        <pt x="181" y="213" on="0"/>
        <pt x="181" y="172" on="1"/>
        <pt x="181" y="127" on="0"/>
        <pt x="235" y="78" on="0"/>
      </contour>
    </TTGlyph>
    <TTGlyph name="#19" xMin="126" yMin="-20" xMax="1179" yMax="1556">
      <contour>
        <pt x="126" y="281" on="1"/>
        <pt x="126" y="330" on="0"/>
        <pt x="157" y="408" on="0"/>
        <pt x="212" y="469" on="0"/>
        <pt x="290" y="514" on="0"/>
        <pt x="341" y="530" on="1"/>
        <pt x="290" y="549" on="0"/>
        <pt x="212" y="600" on="0"/>
        <pt x="157" y="670" on="0"/>
        <pt x="126" y="756" on="0"/>
        <pt x="126" y="811" on="1"/>
        <pt x="126" y="969" on="0"/>
        <pt x="296" y="1137" on="0"/>
        <pt x="425" y="1137" on="1"/>
        <pt x="523" y="1137" on="0"/>
        <pt x="630" y="1036" on="0"/>
        <pt x="630" y="946" on="1"/>
        <pt x="630" y="856" on="0"/>
        <pt x="527" y="758" on="0"/>
        <pt x="433" y="758" on="1"/>
        <pt x="386" y="758" on="0"/>
        <pt x="321" y="784" on="0"/>
        <pt x="296" y="805" on="1"/>
        <pt x="292" y="788" on="0"/>
        <pt x="292" y="768" on="1"/>
        <pt x="292" y="729" on="0"/>
        <pt x="335" y="666" on="0"/>
        <pt x="400" y="621" on="0"/>
        <pt x="459" y="609" on="1"/>
        <pt x="509" y="598" on="0"/>
        <pt x="583" y="598" on="1"/>
        <pt x="607" y="598" on="1"/>
        <pt x="607" y="465" on="1"/>
        <pt x="513" y="465" on="0"/>
        <pt x="413" y="440" on="0"/>
        <pt x="337" y="391" on="0"/>
        <pt x="298" y="328" on="0"/>
        <pt x="298" y="285" on="1"/>
        <pt x="298" y="246" on="0"/>
        <pt x="337" y="184" on="0"/>
        <pt x="417" y="135" on="0"/>
        <pt x="550" y="117" on="0"/>
        <pt x="634" y="117" on="1"/>
        <pt x="726" y="117" on="0"/>
        <pt x="876" y="145" on="0"/>
        <pt x="966" y="211" on="0"/>
        <pt x="1011" y="303" on="0"/>
        <pt x="1011" y="371" on="1"/>
        <pt x="1011" y="1556" on="1"/>
        <pt x="1179" y="1556" on="1"/>
        <pt x="1179" y="371" on="1"/>
        <pt x="1179" y="274" on="0"/>
        <pt x="1113" y="137" on="0"/>
        <pt x="980" y="23" on="0"/>
        <pt x="751" y="-20" on="0"/>
        <pt x="634" y="-20" on="1"/>
        <pt x="519" y="-20" on="0"/>
        <pt x="325" y="14" on="0"/>
        <pt x="198" y="88" on="0"/>
        <pt x="126" y="203" on="0"/>
      </contour>
      <contour>
        <pt x="521" y="946" on="1"/>
        <pt x="521" y="991" on="0"/>
        <pt x="468" y="1042" on="0"/>
        <pt x="425" y="1042" on="1"/>
        <pt x="382" y="1042" on="0"/>
        <pt x="329" y="991" on="0"/>
        <pt x="329" y="946" on="1"/>
        <pt x="329" y="905" on="0"/>
        <pt x="382" y="854" on="0"/>
        <pt x="425" y="854" on="1"/>
        <pt x="468" y="854" on="0"/>
        <pt x="521" y="905" on="0"/>
      </contour>
    </TTGlyph>
    <TTGlyph name="#2" xMin="137" yMin="-18" xMax="1169" yMax="1147">
      <contour>
        <pt x="434" y="78" on="1"/>
        <pt x="477" y="78" on="0"/>
        <pt x="530" y="127" on="0"/>
        <pt x="530" y="172" on="1"/>
        <pt x="530" y="213" on="0"/>
        <pt x="477" y="264" on="0"/>
        <pt x="434" y="264" on="1"/>
        <pt x="393" y="264" on="0"/>
        <pt x="340" y="213" on="0"/>
        <pt x="340" y="172" on="1"/>
        <pt x="340" y="127" on="0"/>
        <pt x="393" y="78" on="0"/>
      </contour>
      <contour>
        <pt x="1169" y="0" on="1"/>
        <pt x="1001" y="0" on="1"/>
        <pt x="1001" y="678" on="1"/>
        <pt x="1001" y="827" on="0"/>
        <pt x="825" y="1012" on="0"/>
        <pt x="651" y="1012" on="1"/>
        <pt x="475" y="1012" on="0"/>
        <pt x="301" y="868" on="0"/>
        <pt x="301" y="760" on="1"/>
        <pt x="301" y="752" on="1"/>
        <pt x="362" y="791" on="0"/>
        <pt x="436" y="791" on="1"/>
        <pt x="538" y="791" on="0"/>
        <pt x="639" y="688" on="0"/>
        <pt x="639" y="625" on="1"/>
        <pt x="639" y="549" on="0"/>
        <pt x="530" y="461" on="0"/>
        <pt x="440" y="461" on="1"/>
        <pt x="403" y="461" on="0"/>
        <pt x="336" y="471" on="0"/>
        <pt x="305" y="483" on="1"/>
        <pt x="303" y="461" on="0"/>
        <pt x="301" y="385" on="0"/>
        <pt x="301" y="350" on="1"/>
        <pt x="301" y="332" on="0"/>
        <pt x="305" y="315" on="1"/>
        <pt x="334" y="340" on="0"/>
        <pt x="403" y="362" on="0"/>
        <pt x="444" y="362" on="1"/>
        <pt x="536" y="362" on="0"/>
        <pt x="639" y="262" on="0"/>
        <pt x="639" y="172" on="1"/>
        <pt x="639" y="82" on="0"/>
        <pt x="534" y="-18" on="0"/>
        <pt x="436" y="-18" on="1"/>
        <pt x="284" y="-18" on="0"/>
        <pt x="137" y="184" on="0"/>
        <pt x="137" y="348" on="1"/>
        <pt x="137" y="426" on="0"/>
        <pt x="157" y="547" on="0"/>
        <pt x="174" y="594" on="1"/>
        <pt x="155" y="629" on="0"/>
        <pt x="137" y="711" on="0"/>
        <pt x="137" y="754" on="1"/>
        <pt x="137" y="938" on="0"/>
        <pt x="432" y="1147" on="0"/>
        <pt x="653" y="1147" on="1"/>
        <pt x="901" y="1147" on="0"/>
        <pt x="1169" y="895" on="0"/>
        <pt x="1169" y="678" on="1"/>
      </contour>
      <contour>
        <pt x="440" y="557" on="1"/>
        <pt x="485" y="559" on="0"/>
        <pt x="530" y="594" on="0"/>
        <pt x="530" y="625" on="1"/>
        <pt x="530" y="662" on="0"/>
        <pt x="479" y="692" on="0"/>
        <pt x="436" y="692" on="1"/>
        <pt x="401" y="692" on="0"/>
        <pt x="348" y="645" on="0"/>
        <pt x="334" y="614" on="1"/>
        <pt x="350" y="590" on="0"/>
        <pt x="411" y="557" on="0"/>
      </contour>
    </TTGlyph>
    <TTGlyph name="#20" xMin="108" yMin="-20" xMax="1155" yMax="1147">
      <contour>
        <pt x="411" y="305" on="1"/>
        <pt x="411" y="348" on="0"/>
        <pt x="358" y="399" on="0"/>
        <pt x="315" y="399" on="1"/>
        <pt x="274" y="399" on="0"/>
        <pt x="219" y="348" on="0"/>
        <pt x="219" y="305" on="1"/>
        <pt x="219" y="262" on="0"/>
        <pt x="274" y="213" on="0"/>
        <pt x="315" y="213" on="1"/>
        <pt x="358" y="213" on="0"/>
        <pt x="411" y="262" on="0"/>
      </contour>
      <contour>
        <pt x="643" y="-20" on="1"/>
        <pt x="544" y="-18" on="0"/>
        <pt x="366" y="16" on="0"/>
        <pt x="204" y="92" on="0"/>
        <pt x="112" y="221" on="0"/>
        <pt x="112" y="305" on="1"/>
        <pt x="112" y="311" on="1"/>
        <pt x="112" y="395" on="0"/>
        <pt x="164" y="445" on="1"/>
        <pt x="217" y="496" on="0"/>
        <pt x="317" y="496" on="1"/>
        <pt x="413" y="496" on="0"/>
        <pt x="520" y="395" on="0"/>
        <pt x="520" y="305" on="1"/>
        <pt x="520" y="256" on="0"/>
        <pt x="479" y="180" on="0"/>
        <pt x="438" y="150" on="1"/>
        <pt x="479" y="133" on="0"/>
        <pt x="581" y="117" on="0"/>
        <pt x="638" y="117" on="1"/>
        <pt x="731" y="117" on="0"/>
        <pt x="862" y="156" on="0"/>
        <pt x="942" y="221" on="0"/>
        <pt x="980" y="311" on="0"/>
        <pt x="980" y="367" on="1"/>
        <pt x="980" y="436" on="0"/>
        <pt x="886" y="508" on="0"/>
        <pt x="698" y="565" on="0"/>
        <pt x="391" y="610" on="0"/>
        <pt x="196" y="690" on="0"/>
        <pt x="108" y="805" on="0"/>
        <pt x="108" y="887" on="1"/>
        <pt x="108" y="967" on="0"/>
        <pt x="182" y="1063" on="0"/>
        <pt x="303" y="1120" on="0"/>
        <pt x="458" y="1147" on="0"/>
        <pt x="563" y="1147" on="1"/>
        <pt x="640" y="1147" on="0"/>
        <pt x="796" y="1126" on="0"/>
        <pt x="935" y="1081" on="0"/>
        <pt x="1060" y="1018" on="0"/>
        <pt x="1118" y="977" on="1"/>
        <pt x="1028" y="856" on="1"/>
        <pt x="976" y="895" on="0"/>
        <pt x="866" y="952" on="0"/>
        <pt x="745" y="991" on="0"/>
        <pt x="624" y="1012" on="0"/>
        <pt x="563" y="1012" on="1"/>
        <pt x="501" y="1012" on="0"/>
        <pt x="399" y="995" on="0"/>
        <pt x="327" y="969" on="0"/>
        <pt x="282" y="922" on="0"/>
        <pt x="282" y="887" on="1"/>
        <pt x="282" y="838" on="0"/>
        <pt x="362" y="778" on="0"/>
        <pt x="538" y="735" on="0"/>
        <pt x="853" y="686" on="0"/>
        <pt x="1056" y="598" on="0"/>
        <pt x="1155" y="471" on="0"/>
        <pt x="1155" y="358" on="1"/>
        <pt x="1155" y="281" on="0"/>
        <pt x="1097" y="139" on="0"/>
        <pt x="966" y="37" on="0"/>
        <pt x="780" y="-20" on="0"/>
      </contour>
    </TTGlyph>
    <TTGlyph name="#21" xMin="92" yMin="-20" xMax="1179" yMax="1147">
      <contour>
        <pt x="399" y="76" on="1"/>
        <pt x="442" y="76" on="0"/>
        <pt x="495" y="127" on="0"/>
        <pt x="495" y="170" on="1"/>
        <pt x="495" y="213" on="0"/>
        <pt x="442" y="262" on="0"/>
        <pt x="399" y="262" on="1"/>
        <pt x="358" y="262" on="0"/>
        <pt x="303" y="213" on="0"/>
        <pt x="303" y="170" on="1"/>
        <pt x="303" y="127" on="0"/>
        <pt x="358" y="76" on="0"/>
      </contour>
      <contour>
        <pt x="934" y="-20" on="1"/>
        <pt x="870" y="-20" on="0"/>
        <pt x="774" y="45" on="0"/>
        <pt x="717" y="152" on="0"/>
        <pt x="672" y="324" on="0"/>
        <pt x="602" y="432" on="0"/>
        <pt x="552" y="455" on="1"/>
        <pt x="506" y="475" on="0"/>
        <pt x="426" y="475" on="1"/>
        <pt x="411" y="475" on="1"/>
        <pt x="340" y="475" on="0"/>
        <pt x="266" y="410" on="0"/>
        <pt x="266" y="348" on="1"/>
        <pt x="266" y="324" on="0"/>
        <pt x="270" y="311" on="1"/>
        <pt x="295" y="334" on="0"/>
        <pt x="362" y="360" on="0"/>
        <pt x="409" y="360" on="1"/>
        <pt x="502" y="360" on="0"/>
        <pt x="604" y="260" on="0"/>
        <pt x="604" y="170" on="1"/>
        <pt x="604" y="80" on="0"/>
        <pt x="500" y="-20" on="0"/>
        <pt x="401" y="-20" on="1"/>
        <pt x="262" y="-20" on="0"/>
        <pt x="102" y="160" on="0"/>
        <pt x="102" y="307" on="1"/>
        <pt x="102" y="451" on="0"/>
        <pt x="266" y="612" on="0"/>
        <pt x="416" y="612" on="1"/>
        <pt x="516" y="612" on="0"/>
        <pt x="690" y="557" on="0"/>
        <pt x="788" y="444" on="0"/>
        <pt x="842" y="274" on="0"/>
        <pt x="870" y="158" on="0"/>
        <pt x="890" y="137" on="1"/>
        <pt x="907" y="117" on="0"/>
        <pt x="930" y="117" on="1"/>
        <pt x="934" y="117" on="1"/>
        <pt x="977" y="117" on="0"/>
        <pt x="1012" y="172" on="0"/>
        <pt x="1012" y="238" on="1"/>
        <pt x="1012" y="678" on="1"/>
        <pt x="1012" y="838" on="0"/>
        <pt x="823" y="1012" on="0"/>
        <pt x="645" y="1012" on="1"/>
        <pt x="475" y="1010" on="0"/>
        <pt x="266" y="895" on="0"/>
        <pt x="235" y="754" on="1"/>
        <pt x="92" y="782" on="1"/>
        <pt x="129" y="987" on="0"/>
        <pt x="424" y="1147" on="0"/>
        <pt x="643" y="1147" on="1"/>
        <pt x="897" y="1147" on="0"/>
        <pt x="1179" y="895" on="0"/>
        <pt x="1179" y="678" on="1"/>
        <pt x="1179" y="231" on="1"/>
        <pt x="1179" y="104" on="0"/>
        <pt x="1048" y="-20" on="0"/>
      </contour>
    </TTGlyph>
    <TTGlyph name="#22" xMin="61" yMin="-20" xMax="1134" yMax="1147">
      <contour>
        <pt x="1134" y="358" on="1"/>
        <pt x="1134" y="174" on="0"/>
        <pt x="1008" y="76" on="1"/>
        <pt x="886" y="-20" on="0"/>
        <pt x="657" y="-20" on="1"/>
        <pt x="643" y="-20" on="1"/>
        <pt x="544" y="-18" on="0"/>
        <pt x="366" y="16" on="0"/>
        <pt x="204" y="92" on="0"/>
        <pt x="112" y="221" on="0"/>
        <pt x="112" y="305" on="1"/>
        <pt x="112" y="311" on="1"/>
        <pt x="112" y="395" on="0"/>
        <pt x="164" y="445" on="1"/>
        <pt x="217" y="496" on="0"/>
        <pt x="317" y="496" on="1"/>
        <pt x="413" y="496" on="0"/>
        <pt x="520" y="395" on="0"/>
        <pt x="520" y="305" on="1"/>
        <pt x="520" y="256" on="0"/>
        <pt x="479" y="180" on="0"/>
        <pt x="438" y="150" on="1"/>
        <pt x="479" y="133" on="0"/>
        <pt x="581" y="117" on="0"/>
        <pt x="639" y="117" on="1"/>
        <pt x="798" y="117" on="0"/>
        <pt x="966" y="240" on="0"/>
        <pt x="966" y="367" on="1"/>
        <pt x="966" y="719" on="1"/>
        <pt x="966" y="856" on="0"/>
        <pt x="817" y="1012" on="0"/>
        <pt x="641" y="1012" on="1"/>
        <pt x="434" y="1012" on="0"/>
        <pt x="233" y="874" on="0"/>
        <pt x="204" y="754" on="1"/>
        <pt x="61" y="782" on="1"/>
        <pt x="92" y="963" on="0"/>
        <pt x="389" y="1147" on="0"/>
        <pt x="641" y="1147" on="1"/>
        <pt x="882" y="1147" on="0"/>
        <pt x="1134" y="932" on="0"/>
        <pt x="1134" y="731" on="1"/>
      </contour>
      <contour>
        <pt x="411" y="305" on="1"/>
        <pt x="411" y="348" on="0"/>
        <pt x="358" y="399" on="0"/>
        <pt x="315" y="399" on="1"/>
        <pt x="274" y="399" on="0"/>
        <pt x="219" y="348" on="0"/>
        <pt x="219" y="305" on="1"/>
        <pt x="219" y="262" on="0"/>
        <pt x="274" y="213" on="0"/>
        <pt x="315" y="213" on="1"/>
        <pt x="358" y="213" on="0"/>
        <pt x="411" y="262" on="0"/>
      </contour>
    </TTGlyph>
    <TTGlyph name="#23" xMin="102" yMin="-20" xMax="1189" yMax="1188">
      <contour>
        <pt x="399" y="76" on="1"/>
        <pt x="442" y="76" on="0"/>
        <pt x="495" y="127" on="0"/>
        <pt x="495" y="170" on="1"/>
        <pt x="495" y="213" on="0"/>
        <pt x="442" y="262" on="0"/>
        <pt x="399" y="262" on="1"/>
        <pt x="358" y="262" on="0"/>
        <pt x="303" y="213" on="0"/>
        <pt x="303" y="170" on="1"/>
        <pt x="303" y="127" on="0"/>
        <pt x="358" y="76" on="0"/>
      </contour>
      <contour>
        <pt x="555" y="844" on="1"/>
        <pt x="671" y="844" on="0"/>
        <pt x="829" y="895" on="0"/>
        <pt x="880" y="934" on="1"/>
        <pt x="825" y="973" on="0"/>
        <pt x="765" y="994" on="1"/>
        <pt x="709" y="1012" on="0"/>
        <pt x="621" y="1012" on="1"/>
        <pt x="604" y="1012" on="1"/>
        <pt x="471" y="1010" on="0"/>
        <pt x="311" y="967" on="0"/>
        <pt x="311" y="924" on="1"/>
        <pt x="313" y="883" on="0"/>
        <pt x="436" y="844" on="0"/>
      </contour>
      <contour>
        <pt x="933" y="-20" on="1"/>
        <pt x="870" y="-20" on="0"/>
        <pt x="774" y="45" on="0"/>
        <pt x="716" y="152" on="0"/>
        <pt x="671" y="324" on="0"/>
        <pt x="602" y="432" on="0"/>
        <pt x="552" y="455" on="1"/>
        <pt x="505" y="475" on="0"/>
        <pt x="425" y="475" on="1"/>
        <pt x="411" y="475" on="1"/>
        <pt x="340" y="475" on="0"/>
        <pt x="266" y="410" on="0"/>
        <pt x="266" y="348" on="1"/>
        <pt x="266" y="324" on="0"/>
        <pt x="270" y="311" on="1"/>
        <pt x="295" y="334" on="0"/>
        <pt x="362" y="360" on="0"/>
        <pt x="409" y="360" on="1"/>
        <pt x="501" y="360" on="0"/>
        <pt x="604" y="260" on="0"/>
        <pt x="604" y="170" on="1"/>
        <pt x="604" y="80" on="0"/>
        <pt x="499" y="-20" on="0"/>
        <pt x="401" y="-20" on="1"/>
        <pt x="262" y="-20" on="0"/>
        <pt x="102" y="160" on="0"/>
        <pt x="102" y="307" on="1"/>
        <pt x="102" y="451" on="0"/>
        <pt x="266" y="612" on="0"/>
        <pt x="415" y="612" on="1"/>
        <pt x="516" y="612" on="0"/>
        <pt x="690" y="557" on="0"/>
        <pt x="788" y="444" on="0"/>
        <pt x="841" y="274" on="0"/>
        <pt x="870" y="158" on="0"/>
        <pt x="890" y="137" on="1"/>
        <pt x="907" y="117" on="0"/>
        <pt x="929" y="117" on="1"/>
        <pt x="933" y="117" on="1"/>
        <pt x="976" y="117" on="0"/>
        <pt x="1011" y="172" on="0"/>
        <pt x="1011" y="238" on="1"/>
        <pt x="1011" y="678" on="1"/>
        <pt x="1011" y="723" on="0"/>
        <pt x="999" y="795" on="0"/>
        <pt x="976" y="825" on="1"/>
        <pt x="897" y="766" on="0"/>
        <pt x="669" y="707" on="0"/>
        <pt x="555" y="707" on="1"/>
        <pt x="331" y="707" on="0"/>
        <pt x="233" y="767" on="1"/>
        <pt x="137" y="826" on="0"/>
        <pt x="137" y="922" on="1"/>
        <pt x="137" y="926" on="1"/>
        <pt x="137" y="1034" on="0"/>
        <pt x="256" y="1092" on="1"/>
        <pt x="370" y="1147" on="0"/>
        <pt x="589" y="1147" on="1"/>
        <pt x="604" y="1147" on="1"/>
        <pt x="729" y="1147" on="0"/>
        <pt x="911" y="1092" on="0"/>
        <pt x="976" y="1049" on="1"/>
        <pt x="993" y="1081" on="0"/>
        <pt x="1015" y="1151" on="0"/>
        <pt x="1022" y="1188" on="1"/>
        <pt x="1189" y="1188" on="1"/>
        <pt x="1175" y="1120" on="0"/>
        <pt x="1128" y="997" on="0"/>
        <pt x="1093" y="946" on="1"/>
        <pt x="1138" y="889" on="0"/>
        <pt x="1179" y="754" on="0"/>
        <pt x="1179" y="678" on="1"/>
        <pt x="1179" y="231" on="1"/>
        <pt x="1179" y="104" on="0"/>
        <pt x="1048" y="-20" on="0"/>
      </contour>
    </TTGlyph>
    <TTGlyph name="#24" xMin="75" yMin="-20" xMax="1418" yMax="1137">
      <contour>
        <pt x="280" y="854" on="1"/>
        <pt x="321" y="854" on="0"/>
        <pt x="374" y="905" on="0"/>
        <pt x="374" y="946" on="1"/>
        <pt x="374" y="991" on="0"/>
        <pt x="321" y="1042" on="0"/>
        <pt x="280" y="1042" on="1"/>
        <pt x="235" y="1042" on="0"/>
        <pt x="181" y="991" on="0"/>
        <pt x="181" y="946" on="1"/>
        <pt x="181" y="905" on="0"/>
        <pt x="235" y="854" on="0"/>
      </contour>
      <contour>
        <pt x="769" y="854" on="1"/>
        <pt x="777" y="854" on="0"/>
        <pt x="796" y="860" on="0"/>
        <pt x="804" y="864" on="1"/>
        <pt x="804" y="997" on="1"/>
        <pt x="804" y="1042" on="0"/>
        <pt x="769" y="1042" on="1"/>
        <pt x="724" y="1042" on="0"/>
        <pt x="673" y="991" on="0"/>
        <pt x="673" y="946" on="1"/>
        <pt x="673" y="905" on="0"/>
        <pt x="724" y="854" on="0"/>
      </contour>
      <contour>
        <pt x="1418" y="0" on="1"/>
        <pt x="1251" y="0" on="1"/>
        <pt x="1251" y="774" on="1"/>
        <pt x="1251" y="879" on="0"/>
        <pt x="1212" y="1001" on="0"/>
        <pt x="1165" y="1001" on="1"/>
        <pt x="1113" y="1001" on="0"/>
        <pt x="1009" y="920" on="0"/>
        <pt x="972" y="870" on="1"/>
        <pt x="972" y="350" on="1"/>
        <pt x="972" y="172" on="0"/>
        <pt x="757" y="-20" on="0"/>
        <pt x="542" y="-20" on="1"/>
        <pt x="345" y="-18" on="0"/>
        <pt x="116" y="174" on="0"/>
        <pt x="116" y="354" on="1"/>
        <pt x="116" y="465" on="0"/>
        <pt x="202" y="621" on="0"/>
        <pt x="294" y="702" on="0"/>
        <pt x="337" y="750" on="0"/>
        <pt x="343" y="772" on="1"/>
        <pt x="315" y="758" on="0"/>
        <pt x="270" y="758" on="1"/>
        <pt x="175" y="758" on="0"/>
        <pt x="75" y="856" on="0"/>
        <pt x="75" y="946" on="1"/>
        <pt x="75" y="1036" on="0"/>
        <pt x="179" y="1137" on="0"/>
        <pt x="278" y="1137" on="1"/>
        <pt x="399" y="1137" on="0"/>
        <pt x="511" y="1004" on="0"/>
        <pt x="511" y="909" on="1"/>
        <pt x="511" y="846" on="0"/>
        <pt x="452" y="713" on="0"/>
        <pt x="347" y="575" on="0"/>
        <pt x="290" y="432" on="0"/>
        <pt x="290" y="358" on="1"/>
        <pt x="290" y="244" on="0"/>
        <pt x="425" y="117" on="0"/>
        <pt x="544" y="117" on="1"/>
        <pt x="553" y="117" on="1"/>
        <pt x="695" y="117" on="0"/>
        <pt x="749" y="180" on="1"/>
        <pt x="804" y="244" on="0"/>
        <pt x="804" y="350" on="1"/>
        <pt x="804" y="760" on="1"/>
        <pt x="796" y="758" on="0"/>
        <pt x="787" y="758" on="1"/>
        <pt x="769" y="758" on="1"/>
        <pt x="677" y="758" on="0"/>
        <pt x="564" y="856" on="0"/>
        <pt x="564" y="946" on="1"/>
        <pt x="564" y="1036" on="0"/>
        <pt x="671" y="1137" on="0"/>
        <pt x="767" y="1137" on="1"/>
        <pt x="851" y="1137" on="0"/>
        <pt x="943" y="1069" on="0"/>
        <pt x="960" y="1014" on="1"/>
        <pt x="999" y="1057" on="0"/>
        <pt x="1109" y="1137" on="0"/>
        <pt x="1185" y="1137" on="1"/>
        <pt x="1304" y="1137" on="0"/>
        <pt x="1418" y="954" on="0"/>
        <pt x="1418" y="774" on="1"/>
      </contour>
    </TTGlyph>
    <TTGlyph name="#25" xMin="81" yMin="-20" xMax="1134" yMax="1147">
      <contour>
        <pt x="591" y="711" on="1"/>
        <pt x="728" y="711" on="0"/>
        <pt x="906" y="770" on="0"/>
        <pt x="953" y="825" on="1"/>
        <pt x="929" y="903" on="0"/>
        <pt x="792" y="1012" on="0"/>
        <pt x="630" y="1012" on="1"/>
        <pt x="474" y="1012" on="0"/>
        <pt x="245" y="926" on="0"/>
        <pt x="245" y="856" on="1"/>
        <pt x="245" y="797" on="0"/>
        <pt x="450" y="711" on="0"/>
      </contour>
      <contour>
        <pt x="968" y="674" on="1"/>
        <pt x="900" y="627" on="0"/>
        <pt x="716" y="575" on="0"/>
        <pt x="591" y="575" on="1"/>
        <pt x="362" y="575" on="0"/>
        <pt x="81" y="733" on="0"/>
        <pt x="81" y="854" on="1"/>
        <pt x="81" y="993" on="0"/>
        <pt x="370" y="1147" on="0"/>
        <pt x="630" y="1147" on="1"/>
        <pt x="884" y="1147" on="0"/>
        <pt x="1134" y="924" on="0"/>
        <pt x="1134" y="731" on="1"/>
        <pt x="1134" y="358" on="1"/>
        <pt x="1134" y="174" on="0"/>
        <pt x="1008" y="76" on="1"/>
        <pt x="886" y="-20" on="0"/>
        <pt x="656" y="-20" on="1"/>
        <pt x="642" y="-20" on="1"/>
        <pt x="544" y="-18" on="0"/>
        <pt x="366" y="16" on="0"/>
        <pt x="204" y="92" on="0"/>
        <pt x="112" y="221" on="0"/>
        <pt x="112" y="305" on="1"/>
        <pt x="112" y="311" on="1"/>
        <pt x="112" y="395" on="0"/>
        <pt x="163" y="445" on="1"/>
        <pt x="216" y="496" on="0"/>
        <pt x="317" y="496" on="1"/>
        <pt x="413" y="496" on="0"/>
        <pt x="519" y="395" on="0"/>
        <pt x="519" y="305" on="1"/>
        <pt x="519" y="256" on="0"/>
        <pt x="478" y="180" on="0"/>
        <pt x="437" y="150" on="1"/>
        <pt x="478" y="133" on="0"/>
        <pt x="581" y="117" on="0"/>
        <pt x="638" y="117" on="1"/>
        <pt x="798" y="117" on="0"/>
        <pt x="882" y="176" on="1"/>
        <pt x="966" y="240" on="0"/>
        <pt x="966" y="367" on="1"/>
      </contour>
      <contour>
        <pt x="411" y="305" on="1"/>
        <pt x="411" y="348" on="0"/>
        <pt x="357" y="399" on="0"/>
        <pt x="314" y="399" on="1"/>
        <pt x="274" y="399" on="0"/>
        <pt x="218" y="348" on="0"/>
        <pt x="218" y="305" on="1"/>
        <pt x="218" y="262" on="0"/>
        <pt x="274" y="213" on="0"/>
        <pt x="314" y="213" on="1"/>
        <pt x="357" y="213" on="0"/>
        <pt x="411" y="262" on="0"/>
      </contour>
    </TTGlyph>
    <TTGlyph name="#26" xMin="108" yMin="-20" xMax="1218" yMax="1147">
      <contour>
        <pt x="643" y="-20" on="1"/>
        <pt x="544" y="-18" on="0"/>
        <pt x="366" y="16" on="0"/>
        <pt x="204" y="92" on="0"/>
        <pt x="112" y="221" on="0"/>
        <pt x="112" y="305" on="1"/>
        <pt x="112" y="311" on="1"/>
        <pt x="112" y="395" on="0"/>
        <pt x="164" y="445" on="1"/>
        <pt x="217" y="496" on="0"/>
        <pt x="317" y="496" on="1"/>
        <pt x="413" y="496" on="0"/>
        <pt x="520" y="395" on="0"/>
        <pt x="520" y="305" on="1"/>
        <pt x="520" y="256" on="0"/>
        <pt x="479" y="180" on="0"/>
        <pt x="438" y="150" on="1"/>
        <pt x="522" y="117" on="0"/>
        <pt x="638" y="117" on="1"/>
        <pt x="731" y="117" on="0"/>
        <pt x="862" y="156" on="0"/>
        <pt x="942" y="221" on="0"/>
        <pt x="980" y="311" on="0"/>
        <pt x="980" y="367" on="1"/>
        <pt x="980" y="434" on="0"/>
        <pt x="882" y="508" on="0"/>
        <pt x="704" y="567" on="0"/>
        <pt x="380" y="612" on="0"/>
        <pt x="206" y="700" on="0"/>
        <pt x="108" y="815" on="0"/>
        <pt x="108" y="909" on="1"/>
        <pt x="108" y="1001" on="0"/>
        <pt x="245" y="1147" on="0"/>
        <pt x="372" y="1147" on="1"/>
        <pt x="470" y="1147" on="0"/>
        <pt x="618" y="1096" on="0"/>
        <pt x="755" y="1024" on="0"/>
        <pt x="870" y="979" on="0"/>
        <pt x="913" y="979" on="1"/>
        <pt x="968" y="979" on="0"/>
        <pt x="1062" y="1075" on="0"/>
        <pt x="1093" y="1133" on="1"/>
        <pt x="1218" y="1055" on="1"/>
        <pt x="1163" y="956" on="0"/>
        <pt x="1023" y="844" on="0"/>
        <pt x="921" y="842" on="1"/>
        <pt x="845" y="842" on="0"/>
        <pt x="714" y="889" on="0"/>
        <pt x="538" y="971" on="0"/>
        <pt x="432" y="1012" on="0"/>
        <pt x="372" y="1012" on="1"/>
        <pt x="333" y="1012" on="0"/>
        <pt x="282" y="950" on="0"/>
        <pt x="282" y="909" on="1"/>
        <pt x="282" y="862" on="0"/>
        <pt x="370" y="795" on="0"/>
        <pt x="552" y="737" on="0"/>
        <pt x="853" y="692" on="0"/>
        <pt x="1052" y="606" on="0"/>
        <pt x="1155" y="477" on="0"/>
        <pt x="1155" y="358" on="1"/>
        <pt x="1155" y="281" on="0"/>
        <pt x="1097" y="139" on="0"/>
        <pt x="966" y="37" on="0"/>
        <pt x="780" y="-20" on="0"/>
      </contour>
      <contour>
        <pt x="315" y="213" on="1"/>
        <pt x="358" y="213" on="0"/>
        <pt x="411" y="262" on="0"/>
        <pt x="411" y="305" on="1"/>
        <pt x="411" y="348" on="0"/>
        <pt x="358" y="399" on="0"/>
        <pt x="315" y="399" on="1"/>
        <pt x="274" y="399" on="0"/>
        <pt x="219" y="348" on="0"/>
        <pt x="219" y="305" on="1"/>
        <pt x="219" y="262" on="0"/>
        <pt x="274" y="213" on="0"/>
      </contour>
    </TTGlyph>
    <TTGlyph name="#27" xMin="126" yMin="-338" xMax="1259" yMax="1137">
      <contour>
        <pt x="521" y="946" on="1"/>
        <pt x="521" y="991" on="0"/>
        <pt x="468" y="1042" on="0"/>
        <pt x="425" y="1042" on="1"/>
        <pt x="382" y="1042" on="0"/>
        <pt x="329" y="991" on="0"/>
        <pt x="329" y="946" on="1"/>
        <pt x="329" y="905" on="0"/>
        <pt x="382" y="854" on="0"/>
        <pt x="425" y="854" on="1"/>
        <pt x="468" y="854" on="0"/>
        <pt x="521" y="905" on="0"/>
      </contour>
      <contour>
        <pt x="560" y="-338" on="1"/>
        <pt x="425" y="-240" on="1"/>
        <pt x="1005" y="551" on="1"/>
        <pt x="1041" y="598" on="0"/>
        <pt x="1091" y="715" on="0"/>
        <pt x="1091" y="782" on="1"/>
        <pt x="1091" y="811" on="0"/>
        <pt x="1068" y="842" on="0"/>
        <pt x="1052" y="842" on="1"/>
        <pt x="1009" y="842" on="0"/>
        <pt x="894" y="750" on="0"/>
        <pt x="728" y="578" on="0"/>
        <pt x="556" y="479" on="0"/>
        <pt x="472" y="479" on="1"/>
        <pt x="325" y="479" on="0"/>
        <pt x="126" y="659" on="0"/>
        <pt x="126" y="825" on="1"/>
        <pt x="126" y="956" on="0"/>
        <pt x="298" y="1137" on="0"/>
        <pt x="425" y="1137" on="1"/>
        <pt x="523" y="1137" on="0"/>
        <pt x="630" y="1036" on="0"/>
        <pt x="630" y="946" on="1"/>
        <pt x="630" y="856" on="0"/>
        <pt x="527" y="758" on="0"/>
        <pt x="433" y="758" on="1"/>
        <pt x="386" y="758" on="0"/>
        <pt x="321" y="780" on="0"/>
        <pt x="296" y="801" on="1"/>
        <pt x="296" y="768" on="1"/>
        <pt x="296" y="717" on="0"/>
        <pt x="380" y="614" on="0"/>
        <pt x="472" y="614" on="1"/>
        <pt x="542" y="614" on="0"/>
        <pt x="683" y="735" on="0"/>
        <pt x="816" y="881" on="0"/>
        <pt x="974" y="977" on="0"/>
        <pt x="1060" y="977" on="1"/>
        <pt x="1154" y="977" on="0"/>
        <pt x="1259" y="864" on="0"/>
        <pt x="1259" y="774" on="1"/>
        <pt x="1259" y="700" on="0"/>
        <pt x="1195" y="526" on="0"/>
        <pt x="1142" y="455" on="1"/>
      </contour>
    </TTGlyph>
    <TTGlyph name="#28" xMin="139" yMin="-16" xMax="1171" yMax="1094">
      <contour>
        <pt x="1171" y="461" on="1"/>
        <pt x="1171" y="229" on="0"/>
        <pt x="860" y="-16" on="0"/>
        <pt x="590" y="-16" on="1"/>
        <pt x="497" y="-16" on="0"/>
        <pt x="342" y="16" on="0"/>
        <pt x="223" y="88" on="0"/>
        <pt x="141" y="207" on="0"/>
        <pt x="139" y="289" on="1"/>
        <pt x="139" y="379" on="0"/>
        <pt x="245" y="479" on="0"/>
        <pt x="344" y="479" on="1"/>
        <pt x="440" y="479" on="0"/>
        <pt x="547" y="379" on="0"/>
        <pt x="547" y="289" on="1"/>
        <pt x="547" y="242" on="0"/>
        <pt x="506" y="164" on="0"/>
        <pt x="465" y="135" on="1"/>
        <pt x="495" y="127" on="0"/>
        <pt x="557" y="121" on="0"/>
        <pt x="585" y="121" on="1"/>
        <pt x="790" y="121" on="0"/>
        <pt x="1003" y="287" on="0"/>
        <pt x="1003" y="461" on="1"/>
      </contour>
      <contour>
        <pt x="440" y="289" on="1"/>
        <pt x="440" y="334" on="0"/>
        <pt x="387" y="385" on="0"/>
        <pt x="342" y="385" on="1"/>
        <pt x="301" y="385" on="0"/>
        <pt x="248" y="334" on="0"/>
        <pt x="248" y="289" on="1"/>
        <pt x="248" y="248" on="0"/>
        <pt x="301" y="197" on="0"/>
        <pt x="342" y="197" on="1"/>
        <pt x="387" y="197" on="0"/>
        <pt x="440" y="248" on="0"/>
      </contour>
      <contour>
        <pt x="1171" y="1075" on="1"/>
        <pt x="1171" y="844" on="0"/>
        <pt x="860" y="598" on="0"/>
        <pt x="590" y="598" on="1"/>
        <pt x="497" y="598" on="0"/>
        <pt x="342" y="631" on="0"/>
        <pt x="223" y="702" on="0"/>
        <pt x="141" y="821" on="0"/>
        <pt x="139" y="903" on="1"/>
        <pt x="139" y="993" on="0"/>
        <pt x="245" y="1094" on="0"/>
        <pt x="344" y="1094" on="1"/>
        <pt x="440" y="1094" on="0"/>
        <pt x="547" y="993" on="0"/>
        <pt x="547" y="903" on="1"/>
        <pt x="547" y="856" on="0"/>
        <pt x="506" y="778" on="0"/>
        <pt x="465" y="750" on="1"/>
        <pt x="495" y="741" on="0"/>
        <pt x="557" y="735" on="0"/>
        <pt x="585" y="735" on="1"/>
        <pt x="790" y="735" on="0"/>
        <pt x="1003" y="901" on="0"/>
        <pt x="1003" y="1075" on="1"/>
      </contour>
      <contour>
        <pt x="440" y="903" on="1"/>
        <pt x="440" y="948" on="0"/>
        <pt x="387" y="999" on="0"/>
        <pt x="342" y="999" on="1"/>
        <pt x="301" y="999" on="0"/>
        <pt x="248" y="948" on="0"/>
        <pt x="248" y="903" on="1"/>
        <pt x="248" y="862" on="0"/>
        <pt x="301" y="811" on="0"/>
        <pt x="342" y="811" on="1"/>
        <pt x="387" y="811" on="0"/>
        <pt x="440" y="862" on="0"/>
      </contour>
    </TTGlyph>
    <TTGlyph name="#29" xMin="-1155" yMin="1247" xMax="-123" yMax="1743">
      <contour>
        <pt x="-123" y="1724" on="1"/>
        <pt x="-123" y="1493" on="0"/>
        <pt x="-434" y="1247" on="0"/>
        <pt x="-704" y="1247" on="1"/>
        <pt x="-797" y="1247" on="0"/>
        <pt x="-952" y="1280" on="0"/>
        <pt x="-1071" y="1352" on="0"/>
        <pt x="-1153" y="1470" on="0"/>
        <pt x="-1155" y="1552" on="1"/>
        <pt x="-1155" y="1642" on="0"/>
        <pt x="-1049" y="1743" on="0"/>
        <pt x="-950" y="1743" on="1"/>
        <pt x="-854" y="1743" on="0"/>
        <pt x="-747" y="1642" on="0"/>
        <pt x="-747" y="1552" on="1"/>
        <pt x="-747" y="1505" on="0"/>
        <pt x="-788" y="1427" on="0"/>
        <pt x="-829" y="1399" on="1"/>
        <pt x="-799" y="1391" on="0"/>
        <pt x="-737" y="1384" on="0"/>
        <pt x="-709" y="1384" on="1"/>
        <pt x="-504" y="1384" on="0"/>
        <pt x="-291" y="1550" on="0"/>
        <pt x="-291" y="1724" on="1"/>
      </contour>
      <contour>
        <pt x="-854" y="1552" on="1"/>
        <pt x="-854" y="1597" on="0"/>
        <pt x="-907" y="1649" on="0"/>
        <pt x="-952" y="1649" on="1"/>
        <pt x="-993" y="1649" on="0"/>
        <pt x="-1046" y="1597" on="0"/>
        <pt x="-1046" y="1552" on="1"/>
        <pt x="-1046" y="1511" on="0"/>
        <pt x="-993" y="1460" on="0"/>
        <pt x="-952" y="1460" on="1"/>
        <pt x="-907" y="1460" on="0"/>
        <pt x="-854" y="1511" on="0"/>
      </contour>
    </TTGlyph>
    <TTGlyph name="#3" xMin="94" yMin="-487" xMax="872" yMax="1147">
      <contour>
        <pt x="395" y="821" on="1"/>
        <pt x="395" y="864" on="0"/>
        <pt x="342" y="913" on="0"/>
        <pt x="299" y="913" on="1"/>
        <pt x="258" y="913" on="0"/>
        <pt x="205" y="864" on="0"/>
        <pt x="205" y="821" on="1"/>
        <pt x="205" y="778" on="0"/>
        <pt x="258" y="727" on="0"/>
        <pt x="299" y="727" on="1"/>
        <pt x="342" y="727" on="0"/>
        <pt x="395" y="778" on="0"/>
      </contour>
      <contour>
        <pt x="469" y="-487" on="1"/>
        <pt x="350" y="-487" on="0"/>
        <pt x="164" y="-395" on="0"/>
        <pt x="94" y="-301" on="1"/>
        <pt x="207" y="-195" on="1"/>
        <pt x="264" y="-279" on="0"/>
        <pt x="397" y="-352" on="0"/>
        <pt x="469" y="-352" on="1"/>
        <pt x="577" y="-352" on="0"/>
        <pt x="704" y="-213" on="0"/>
        <pt x="704" y="-76" on="1"/>
        <pt x="704" y="711" on="1"/>
        <pt x="704" y="864" on="0"/>
        <pt x="581" y="1012" on="0"/>
        <pt x="475" y="1012" on="1"/>
        <pt x="448" y="1012" on="0"/>
        <pt x="393" y="1006" on="0"/>
        <pt x="375" y="995" on="1"/>
        <pt x="432" y="977" on="0"/>
        <pt x="504" y="895" on="0"/>
        <pt x="504" y="821" on="1"/>
        <pt x="504" y="731" on="0"/>
        <pt x="397" y="633" on="0"/>
        <pt x="301" y="633" on="1"/>
        <pt x="203" y="633" on="0"/>
        <pt x="149" y="683" on="1"/>
        <pt x="96" y="731" on="0"/>
        <pt x="96" y="815" on="1"/>
        <pt x="96" y="821" on="1"/>
        <pt x="96" y="985" on="0"/>
        <pt x="317" y="1147" on="0"/>
        <pt x="471" y="1147" on="1"/>
        <pt x="655" y="1147" on="0"/>
        <pt x="872" y="928" on="0"/>
        <pt x="872" y="711" on="1"/>
        <pt x="872" y="-35" on="1"/>
        <pt x="872" y="-268" on="0"/>
        <pt x="653" y="-487" on="0"/>
      </contour>
    </TTGlyph>
    <TTGlyph name="#30" xMin="96" yMin="0" xMax="872" yMax="1147">
      <contour>
        <pt x="395" y="821" on="1"/>
        <pt x="395" y="864" on="0"/>
        <pt x="342" y="913" on="0"/>
        <pt x="299" y="913" on="1"/>
        <pt x="258" y="913" on="0"/>
        <pt x="205" y="864" on="0"/>
        <pt x="205" y="821" on="1"/>
        <pt x="205" y="778" on="0"/>
        <pt x="258" y="727" on="0"/>
        <pt x="299" y="727" on="1"/>
        <pt x="342" y="727" on="0"/>
        <pt x="395" y="778" on="0"/>
      </contour>
      <contour>
        <pt x="872" y="0" on="1"/>
        <pt x="704" y="0" on="1"/>
        <pt x="704" y="711" on="1"/>
        <pt x="704" y="864" on="0"/>
        <pt x="581" y="1012" on="0"/>
        <pt x="475" y="1012" on="1"/>
        <pt x="405" y="1012" on="0"/>
        <pt x="375" y="995" on="1"/>
        <pt x="432" y="977" on="0"/>
        <pt x="504" y="895" on="0"/>
        <pt x="504" y="821" on="1"/>
        <pt x="504" y="731" on="0"/>
        <pt x="397" y="633" on="0"/>
        <pt x="301" y="633" on="1"/>
        <pt x="203" y="633" on="0"/>
        <pt x="149" y="683" on="1"/>
        <pt x="96" y="731" on="0"/>
        <pt x="96" y="815" on="1"/>
        <pt x="96" y="821" on="1"/>
        <pt x="96" y="985" on="0"/>
        <pt x="317" y="1147" on="0"/>
        <pt x="471" y="1147" on="1"/>
        <pt x="655" y="1147" on="0"/>
        <pt x="872" y="928" on="0"/>
        <pt x="872" y="711" on="1"/>
      </contour>
    </TTGlyph>
    <TTGlyph name="#31" xMin="-561" yMin="0" xMax="873" yMax="1614">
      <contour>
        <pt x="395" y="821" on="1"/>
        <pt x="395" y="864" on="0"/>
        <pt x="342" y="913" on="0"/>
        <pt x="299" y="913" on="1"/>
        <pt x="258" y="913" on="0"/>
        <pt x="205" y="864" on="0"/>
        <pt x="205" y="821" on="1"/>
        <pt x="205" y="778" on="0"/>
        <pt x="258" y="727" on="0"/>
        <pt x="299" y="727" on="1"/>
        <pt x="342" y="727" on="0"/>
        <pt x="395" y="778" on="0"/>
      </contour>
      <contour>
        <pt x="873" y="0" on="1"/>
        <pt x="705" y="0" on="1"/>
        <pt x="705" y="711" on="1"/>
        <pt x="705" y="864" on="0"/>
        <pt x="582" y="1012" on="0"/>
        <pt x="475" y="1012" on="1"/>
        <pt x="406" y="1012" on="0"/>
        <pt x="375" y="995" on="1"/>
        <pt x="432" y="977" on="0"/>
        <pt x="504" y="895" on="0"/>
        <pt x="504" y="821" on="1"/>
        <pt x="504" y="731" on="0"/>
        <pt x="397" y="633" on="0"/>
        <pt x="301" y="633" on="1"/>
        <pt x="203" y="633" on="0"/>
        <pt x="149" y="683" on="1"/>
        <pt x="96" y="731" on="0"/>
        <pt x="96" y="815" on="1"/>
        <pt x="96" y="821" on="1"/>
        <pt x="96" y="985" on="0"/>
        <pt x="318" y="1147" on="0"/>
        <pt x="471" y="1147" on="1"/>
        <pt x="656" y="1147" on="0"/>
        <pt x="873" y="928" on="0"/>
        <pt x="873" y="711" on="1"/>
      </contour>
      <contour>
        <pt x="-561" y="1442" on="1"/>
        <pt x="-561" y="1524" on="0"/>
        <pt x="-465" y="1614" on="0"/>
        <pt x="-377" y="1614" on="1"/>
        <pt x="-289" y="1614" on="0"/>
        <pt x="-192" y="1524" on="0"/>
        <pt x="-192" y="1442" on="1"/>
        <pt x="-192" y="1362" on="0"/>
        <pt x="-289" y="1270" on="0"/>
        <pt x="-377" y="1270" on="1"/>
        <pt x="-465" y="1270" on="0"/>
        <pt x="-561" y="1362" on="0"/>
      </contour>
      <contour>
        <pt x="-463" y="1442" on="1"/>
        <pt x="-463" y="1405" on="0"/>
        <pt x="-414" y="1358" on="0"/>
        <pt x="-375" y="1358" on="1"/>
        <pt x="-340" y="1358" on="0"/>
        <pt x="-291" y="1405" on="0"/>
        <pt x="-291" y="1442" on="1"/>
        <pt x="-291" y="1481" on="0"/>
        <pt x="-340" y="1528" on="0"/>
        <pt x="-375" y="1528" on="1"/>
        <pt x="-414" y="1528" on="0"/>
        <pt x="-463" y="1481" on="0"/>
      </contour>
    </TTGlyph>
    <TTGlyph name="#32" xMin="-1196" yMin="1231" xMax="-170" yMax="1776">
      <contour>
        <pt x="-528" y="1231" on="1"/>
        <pt x="-528" y="1346" on="1"/>
        <pt x="-408" y="1346" on="0"/>
        <pt x="-313" y="1417" on="0"/>
        <pt x="-313" y="1483" on="1"/>
        <pt x="-313" y="1552" on="0"/>
        <pt x="-451" y="1661" on="0"/>
        <pt x="-682" y="1661" on="1"/>
        <pt x="-872" y="1661" on="0"/>
        <pt x="-1053" y="1575" on="0"/>
        <pt x="-1053" y="1483" on="1"/>
        <pt x="-1053" y="1419" on="0"/>
        <pt x="-958" y="1346" on="0"/>
        <pt x="-838" y="1346" on="1"/>
        <pt x="-838" y="1231" on="1"/>
        <pt x="-1014" y="1231" on="0"/>
        <pt x="-1196" y="1354" on="0"/>
        <pt x="-1196" y="1483" on="1"/>
        <pt x="-1196" y="1630" on="0"/>
        <pt x="-936" y="1776" on="0"/>
        <pt x="-682" y="1776" on="1"/>
        <pt x="-416" y="1776" on="0"/>
        <pt x="-170" y="1622" on="0"/>
        <pt x="-170" y="1483" on="1"/>
        <pt x="-170" y="1366" on="0"/>
        <pt x="-342" y="1231" on="0"/>
      </contour>
    </TTGlyph>
    <TTGlyph name="#33" xMin="-1196" yMin="1231" xMax="-63" yMax="1776">
      <contour>
        <pt x="-63" y="1231" on="1"/>
        <pt x="-528" y="1231" on="1"/>
        <pt x="-528" y="1346" on="1"/>
        <pt x="-414" y="1346" on="0"/>
        <pt x="-313" y="1413" on="0"/>
        <pt x="-313" y="1483" on="1"/>
        <pt x="-313" y="1563" on="0"/>
        <pt x="-479" y="1661" on="0"/>
        <pt x="-682" y="1661" on="1"/>
        <pt x="-879" y="1661" on="0"/>
        <pt x="-1053" y="1571" on="0"/>
        <pt x="-1053" y="1483" on="1"/>
        <pt x="-1053" y="1413" on="0"/>
        <pt x="-950" y="1346" on="0"/>
        <pt x="-838" y="1346" on="1"/>
        <pt x="-838" y="1231" on="1"/>
        <pt x="-1003" y="1231" on="0"/>
        <pt x="-1196" y="1346" on="0"/>
        <pt x="-1196" y="1483" on="1"/>
        <pt x="-1196" y="1624" on="0"/>
        <pt x="-948" y="1776" on="0"/>
        <pt x="-682" y="1776" on="1"/>
        <pt x="-418" y="1776" on="0"/>
        <pt x="-170" y="1624" on="0"/>
        <pt x="-170" y="1483" on="1"/>
        <pt x="-170" y="1442" on="0"/>
        <pt x="-199" y="1378" on="0"/>
        <pt x="-227" y="1346" on="1"/>
        <pt x="-63" y="1346" on="1"/>
      </contour>
    </TTGlyph>
    <TTGlyph name="#34" xMin="-1196" yMin="1231" xMax="-170" yMax="1776">
      <contour>
        <pt x="-682" y="1376" on="1"/>
        <pt x="-704" y="1376" on="0"/>
        <pt x="-743" y="1393" on="0"/>
        <pt x="-772" y="1421" on="0"/>
        <pt x="-788" y="1460" on="0"/>
        <pt x="-788" y="1483" on="1"/>
        <pt x="-788" y="1503" on="0"/>
        <pt x="-772" y="1542" on="0"/>
        <pt x="-743" y="1571" on="0"/>
        <pt x="-704" y="1587" on="0"/>
        <pt x="-682" y="1587" on="1"/>
        <pt x="-661" y="1587" on="0"/>
        <pt x="-623" y="1571" on="0"/>
        <pt x="-596" y="1542" on="0"/>
        <pt x="-578" y="1503" on="0"/>
        <pt x="-578" y="1483" on="1"/>
        <pt x="-578" y="1460" on="0"/>
        <pt x="-596" y="1421" on="0"/>
        <pt x="-623" y="1393" on="0"/>
        <pt x="-661" y="1376" on="0"/>
      </contour>
      <contour>
        <pt x="-528" y="1231" on="1"/>
        <pt x="-528" y="1346" on="1"/>
        <pt x="-414" y="1346" on="0"/>
        <pt x="-313" y="1413" on="0"/>
        <pt x="-313" y="1483" on="1"/>
        <pt x="-313" y="1563" on="0"/>
        <pt x="-475" y="1661" on="0"/>
        <pt x="-682" y="1661" on="1"/>
        <pt x="-874" y="1661" on="0"/>
        <pt x="-1053" y="1573" on="0"/>
        <pt x="-1053" y="1483" on="1"/>
        <pt x="-1053" y="1413" on="0"/>
        <pt x="-950" y="1346" on="0"/>
        <pt x="-838" y="1346" on="1"/>
        <pt x="-838" y="1231" on="1"/>
        <pt x="-1010" y="1231" on="0"/>
        <pt x="-1196" y="1352" on="0"/>
        <pt x="-1196" y="1483" on="1"/>
        <pt x="-1196" y="1622" on="0"/>
        <pt x="-950" y="1776" on="0"/>
        <pt x="-682" y="1776" on="1"/>
        <pt x="-414" y="1776" on="0"/>
        <pt x="-170" y="1622" on="0"/>
        <pt x="-170" y="1483" on="1"/>
        <pt x="-170" y="1358" on="0"/>
        <pt x="-356" y="1231" on="0"/>
      </contour>
    </TTGlyph>
    <TTGlyph name="#35" xMin="-1196" yMin="1231" xMax="-63" yMax="1776">
      <contour>
        <pt x="-63" y="1231" on="1"/>
        <pt x="-528" y="1231" on="1"/>
        <pt x="-528" y="1346" on="1"/>
        <pt x="-420" y="1346" on="0"/>
        <pt x="-313" y="1409" on="0"/>
        <pt x="-313" y="1483" on="1"/>
        <pt x="-313" y="1567" on="0"/>
        <pt x="-479" y="1661" on="0"/>
        <pt x="-682" y="1661" on="1"/>
        <pt x="-883" y="1661" on="0"/>
        <pt x="-1053" y="1569" on="0"/>
        <pt x="-1053" y="1483" on="1"/>
        <pt x="-1053" y="1409" on="0"/>
        <pt x="-946" y="1346" on="0"/>
        <pt x="-838" y="1346" on="1"/>
        <pt x="-838" y="1231" on="1"/>
        <pt x="-1003" y="1231" on="0"/>
        <pt x="-1196" y="1346" on="0"/>
        <pt x="-1196" y="1483" on="1"/>
        <pt x="-1196" y="1634" on="0"/>
        <pt x="-930" y="1776" on="0"/>
        <pt x="-682" y="1776" on="1"/>
        <pt x="-428" y="1776" on="0"/>
        <pt x="-170" y="1630" on="0"/>
        <pt x="-170" y="1483" on="1"/>
        <pt x="-170" y="1442" on="0"/>
        <pt x="-199" y="1378" on="0"/>
        <pt x="-227" y="1346" on="1"/>
        <pt x="-63" y="1346" on="1"/>
      </contour>
      <contour>
        <pt x="-682" y="1376" on="1"/>
        <pt x="-704" y="1376" on="0"/>
        <pt x="-743" y="1393" on="0"/>
        <pt x="-772" y="1421" on="0"/>
        <pt x="-788" y="1460" on="0"/>
        <pt x="-788" y="1483" on="1"/>
        <pt x="-788" y="1503" on="0"/>
        <pt x="-772" y="1542" on="0"/>
        <pt x="-743" y="1571" on="0"/>
        <pt x="-704" y="1587" on="0"/>
        <pt x="-682" y="1587" on="1"/>
        <pt x="-661" y="1587" on="0"/>
        <pt x="-623" y="1571" on="0"/>
        <pt x="-596" y="1542" on="0"/>
        <pt x="-578" y="1503" on="0"/>
        <pt x="-578" y="1483" on="1"/>
        <pt x="-578" y="1460" on="0"/>
        <pt x="-596" y="1421" on="0"/>
        <pt x="-623" y="1393" on="0"/>
        <pt x="-661" y="1376" on="0"/>
      </contour>
    </TTGlyph>
    <TTGlyph name="#36" xMin="-772" yMin="-627" xMax="-344" yMax="-78">
      <contour>
        <pt x="-598" y="-317" on="1"/>
        <pt x="-561" y="-317" on="0"/>
        <pt x="-516" y="-276" on="0"/>
        <pt x="-516" y="-240" on="1"/>
        <pt x="-516" y="-203" on="0"/>
        <pt x="-561" y="-160" on="0"/>
        <pt x="-598" y="-160" on="1"/>
        <pt x="-635" y="-160" on="0"/>
        <pt x="-680" y="-203" on="0"/>
        <pt x="-680" y="-240" on="1"/>
        <pt x="-680" y="-276" on="0"/>
        <pt x="-635" y="-317" on="0"/>
      </contour>
      <contour>
        <pt x="-584" y="-627" on="1"/>
        <pt x="-622" y="-512" on="1"/>
        <pt x="-555" y="-496" on="0"/>
        <pt x="-487" y="-430" on="0"/>
        <pt x="-487" y="-383" on="1"/>
        <pt x="-487" y="-379" on="0"/>
        <pt x="-489" y="-365" on="1"/>
        <pt x="-510" y="-381" on="0"/>
        <pt x="-565" y="-401" on="0"/>
        <pt x="-606" y="-401" on="1"/>
        <pt x="-684" y="-401" on="0"/>
        <pt x="-772" y="-317" on="0"/>
        <pt x="-772" y="-240" on="1"/>
        <pt x="-772" y="-164" on="0"/>
        <pt x="-682" y="-78" on="0"/>
        <pt x="-598" y="-78" on="1"/>
        <pt x="-487" y="-78" on="0"/>
        <pt x="-344" y="-207" on="0"/>
        <pt x="-344" y="-336" on="1"/>
        <pt x="-344" y="-436" on="0"/>
        <pt x="-453" y="-590" on="0"/>
      </contour>
    </TTGlyph>
    <TTGlyph name="#37" xMin="-931" yMin="-607" xMax="-310" yMax="-58">
      <contour>
        <pt x="-581" y="-607" on="1"/>
        <pt x="-710" y="-607" on="0"/>
        <pt x="-853" y="-537" on="0"/>
        <pt x="-853" y="-457" on="1"/>
        <pt x="-853" y="-439" on="0"/>
        <pt x="-820" y="-398" on="0"/>
        <pt x="-794" y="-379" on="1"/>
        <pt x="-802" y="-381" on="0"/>
        <pt x="-806" y="-381" on="1"/>
        <pt x="-851" y="-373" on="0"/>
        <pt x="-931" y="-297" on="0"/>
        <pt x="-931" y="-220" on="1"/>
        <pt x="-931" y="-144" on="0"/>
        <pt x="-841" y="-58" on="0"/>
        <pt x="-759" y="-58" on="1"/>
        <pt x="-663" y="-58" on="0"/>
        <pt x="-575" y="-156" on="0"/>
        <pt x="-575" y="-244" on="1"/>
        <pt x="-575" y="-281" on="0"/>
        <pt x="-616" y="-340" on="0"/>
        <pt x="-675" y="-388" on="0"/>
        <pt x="-712" y="-431" on="0"/>
        <pt x="-712" y="-449" on="1"/>
        <pt x="-712" y="-467" on="0"/>
        <pt x="-652" y="-490" on="0"/>
        <pt x="-581" y="-490" on="1"/>
        <pt x="-515" y="-490" on="0"/>
        <pt x="-454" y="-465" on="0"/>
        <pt x="-454" y="-443" on="1"/>
        <pt x="-454" y="-84" on="1"/>
        <pt x="-310" y="-84" on="1"/>
        <pt x="-310" y="-443" on="1"/>
        <pt x="-310" y="-539" on="0"/>
        <pt x="-470" y="-607" on="0"/>
      </contour>
      <contour>
        <pt x="-757" y="-297" on="1"/>
        <pt x="-722" y="-297" on="0"/>
        <pt x="-677" y="-256" on="0"/>
        <pt x="-677" y="-220" on="1"/>
        <pt x="-677" y="-183" on="0"/>
        <pt x="-722" y="-140" on="0"/>
        <pt x="-757" y="-140" on="1"/>
        <pt x="-794" y="-140" on="0"/>
        <pt x="-839" y="-183" on="0"/>
        <pt x="-839" y="-220" on="1"/>
        <pt x="-839" y="-256" on="0"/>
        <pt x="-794" y="-297" on="0"/>
      </contour>
    </TTGlyph>
    <TTGlyph name="#38" xMin="-1155" yMin="1257" xMax="-123" yMax="1751">
      <contour>
        <pt x="-123" y="1276" on="1"/>
        <pt x="-291" y="1276" on="1"/>
        <pt x="-291" y="1450" on="0"/>
        <pt x="-504" y="1616" on="0"/>
        <pt x="-709" y="1616" on="1"/>
        <pt x="-737" y="1616" on="0"/>
        <pt x="-799" y="1610" on="0"/>
        <pt x="-829" y="1602" on="1"/>
        <pt x="-788" y="1573" on="0"/>
        <pt x="-747" y="1495" on="0"/>
        <pt x="-747" y="1448" on="1"/>
        <pt x="-747" y="1358" on="0"/>
        <pt x="-854" y="1257" on="0"/>
        <pt x="-950" y="1257" on="1"/>
        <pt x="-1049" y="1257" on="0"/>
        <pt x="-1155" y="1358" on="0"/>
        <pt x="-1155" y="1448" on="1"/>
        <pt x="-1153" y="1530" on="0"/>
        <pt x="-1071" y="1649" on="0"/>
        <pt x="-952" y="1720" on="0"/>
        <pt x="-797" y="1751" on="0"/>
        <pt x="-704" y="1751" on="1"/>
        <pt x="-434" y="1751" on="0"/>
        <pt x="-123" y="1507" on="0"/>
      </contour>
      <contour>
        <pt x="-952" y="1352" on="1"/>
        <pt x="-907" y="1352" on="0"/>
        <pt x="-854" y="1403" on="0"/>
        <pt x="-854" y="1448" on="1"/>
        <pt x="-854" y="1489" on="0"/>
        <pt x="-907" y="1538" on="0"/>
        <pt x="-952" y="1538" on="1"/>
        <pt x="-993" y="1538" on="0"/>
        <pt x="-1046" y="1489" on="0"/>
        <pt x="-1046" y="1448" on="1"/>
        <pt x="-1046" y="1403" on="0"/>
        <pt x="-993" y="1352" on="0"/>
      </contour>
    </TTGlyph>
    <TTGlyph name="#39" xMin="-1265" yMin="-563" xMax="-18" yMax="-88">
      <contour>
        <pt x="-333" y="-500" on="1"/>
        <pt x="-434" y="-500" on="0"/>
        <pt x="-579" y="-426" on="0"/>
        <pt x="-706" y="-303" on="0"/>
        <pt x="-823" y="-223" on="0"/>
        <pt x="-888" y="-223" on="1"/>
        <pt x="-909" y="-223" on="0"/>
        <pt x="-929" y="-229" on="1"/>
        <pt x="-888" y="-258" on="0"/>
        <pt x="-855" y="-326" on="0"/>
        <pt x="-855" y="-373" on="1"/>
        <pt x="-855" y="-463" on="0"/>
        <pt x="-962" y="-563" on="0"/>
        <pt x="-1060" y="-563" on="1"/>
        <pt x="-1159" y="-563" on="0"/>
        <pt x="-1265" y="-463" on="0"/>
        <pt x="-1265" y="-373" on="1"/>
        <pt x="-1265" y="-301" on="0"/>
        <pt x="-1214" y="-193" on="0"/>
        <pt x="-1115" y="-121" on="0"/>
        <pt x="-989" y="-88" on="0"/>
        <pt x="-913" y="-88" on="1"/>
        <pt x="-821" y="-88" on="0"/>
        <pt x="-647" y="-154" on="0"/>
        <pt x="-513" y="-297" on="0"/>
        <pt x="-395" y="-362" on="0"/>
        <pt x="-333" y="-362" on="1"/>
        <pt x="-274" y="-362" on="0"/>
        <pt x="-180" y="-285" on="0"/>
        <pt x="-147" y="-217" on="1"/>
        <pt x="-18" y="-287" on="1"/>
        <pt x="-75" y="-389" on="0"/>
        <pt x="-241" y="-500" on="0"/>
      </contour>
      <contour>
        <pt x="-1062" y="-469" on="1"/>
        <pt x="-1017" y="-469" on="0"/>
        <pt x="-964" y="-418" on="0"/>
        <pt x="-964" y="-373" on="1"/>
        <pt x="-964" y="-332" on="0"/>
        <pt x="-1017" y="-281" on="0"/>
        <pt x="-1062" y="-281" on="1"/>
        <pt x="-1103" y="-281" on="0"/>
        <pt x="-1156" y="-332" on="0"/>
        <pt x="-1156" y="-373" on="1"/>
        <pt x="-1156" y="-418" on="0"/>
        <pt x="-1103" y="-469" on="0"/>
      </contour>
    </TTGlyph>
    <TTGlyph name="#4" xMin="61" yMin="-20" xMax="1134" yMax="1147">
      <contour>
        <pt x="575" y="446" on="1"/>
        <pt x="616" y="446" on="0"/>
        <pt x="669" y="498" on="0"/>
        <pt x="669" y="539" on="1"/>
        <pt x="669" y="584" on="0"/>
        <pt x="616" y="635" on="0"/>
        <pt x="575" y="635" on="1"/>
        <pt x="530" y="635" on="0"/>
        <pt x="477" y="584" on="0"/>
        <pt x="477" y="539" on="1"/>
        <pt x="477" y="498" on="0"/>
        <pt x="530" y="446" on="0"/>
      </contour>
      <contour>
        <pt x="872" y="-20" on="1"/>
        <pt x="731" y="-20" on="0"/>
        <pt x="610" y="113" on="0"/>
        <pt x="610" y="246" on="1"/>
        <pt x="610" y="352" on="1"/>
        <pt x="604" y="350" on="0"/>
        <pt x="577" y="348" on="0"/>
        <pt x="565" y="348" on="1"/>
        <pt x="471" y="348" on="0"/>
        <pt x="370" y="449" on="0"/>
        <pt x="370" y="539" on="1"/>
        <pt x="370" y="629" on="0"/>
        <pt x="475" y="729" on="0"/>
        <pt x="573" y="729" on="1"/>
        <pt x="671" y="729" on="0"/>
        <pt x="778" y="629" on="0"/>
        <pt x="778" y="539" on="1"/>
        <pt x="778" y="240" on="1"/>
        <pt x="778" y="170" on="0"/>
        <pt x="831" y="117" on="0"/>
        <pt x="874" y="117" on="1"/>
        <pt x="913" y="117" on="0"/>
        <pt x="966" y="170" on="0"/>
        <pt x="966" y="240" on="1"/>
        <pt x="966" y="719" on="1"/>
        <pt x="966" y="862" on="0"/>
        <pt x="813" y="1012" on="0"/>
        <pt x="641" y="1012" on="1"/>
        <pt x="469" y="1012" on="0"/>
        <pt x="229" y="899" on="0"/>
        <pt x="204" y="754" on="1"/>
        <pt x="61" y="782" on="1"/>
        <pt x="96" y="987" on="0"/>
        <pt x="415" y="1147" on="0"/>
        <pt x="641" y="1147" on="1"/>
        <pt x="897" y="1147" on="0"/>
        <pt x="1134" y="922" on="0"/>
        <pt x="1134" y="731" on="1"/>
        <pt x="1134" y="246" on="1"/>
        <pt x="1134" y="115" on="0"/>
        <pt x="1011" y="-18" on="0"/>
      </contour>
    </TTGlyph>
    <TTGlyph name="#40" xMin="61" yMin="-479" xMax="1097" yMax="1147">
      <contour>
        <pt x="563" y="-479" on="1"/>
        <pt x="464" y="-479" on="0"/>
        <pt x="317" y="-444" on="0"/>
        <pt x="153" y="-369" on="0"/>
        <pt x="63" y="-238" on="0"/>
        <pt x="61" y="-156" on="1"/>
        <pt x="61" y="-66" on="0"/>
        <pt x="167" y="35" on="0"/>
        <pt x="266" y="35" on="1"/>
        <pt x="364" y="35" on="0"/>
        <pt x="469" y="-66" on="0"/>
        <pt x="469" y="-156" on="1"/>
        <pt x="469" y="-203" on="0"/>
        <pt x="428" y="-281" on="0"/>
        <pt x="387" y="-309" on="1"/>
        <pt x="471" y="-344" on="0"/>
        <pt x="557" y="-344" on="1"/>
        <pt x="710" y="-344" on="0"/>
        <pt x="866" y="-174" on="0"/>
        <pt x="866" y="8" on="1"/>
        <pt x="866" y="326" on="1"/>
        <pt x="866" y="399" on="0"/>
        <pt x="718" y="553" on="0"/>
        <pt x="354" y="700" on="0"/>
        <pt x="188" y="854" on="0"/>
        <pt x="188" y="938" on="1"/>
        <pt x="188" y="1032" on="0"/>
        <pt x="297" y="1147" on="0"/>
        <pt x="413" y="1147" on="1"/>
        <pt x="477" y="1147" on="0"/>
        <pt x="581" y="1092" on="0"/>
        <pt x="682" y="985" on="0"/>
        <pt x="755" y="938" on="0"/>
        <pt x="794" y="938" on="1"/>
        <pt x="847" y="938" on="0"/>
        <pt x="942" y="1034" on="0"/>
        <pt x="974" y="1094" on="1"/>
        <pt x="1097" y="1016" on="1"/>
        <pt x="1044" y="915" on="0"/>
        <pt x="903" y="803" on="0"/>
        <pt x="802" y="803" on="1"/>
        <pt x="753" y="803" on="0"/>
        <pt x="647" y="844" on="0"/>
        <pt x="526" y="956" on="0"/>
        <pt x="450" y="1012" on="0"/>
        <pt x="432" y="1012" on="1"/>
        <pt x="393" y="1012" on="0"/>
        <pt x="362" y="981" on="0"/>
        <pt x="362" y="938" on="1"/>
        <pt x="362" y="901" on="0"/>
        <pt x="485" y="801" on="0"/>
        <pt x="874" y="639" on="0"/>
        <pt x="1034" y="438" on="0"/>
        <pt x="1034" y="319" on="1"/>
        <pt x="1034" y="-2" on="1"/>
        <pt x="1034" y="-242" on="0"/>
        <pt x="910" y="-361" on="1"/>
        <pt x="788" y="-479" on="0"/>
        <pt x="570" y="-479" on="1"/>
      </contour>
      <contour>
        <pt x="264" y="-248" on="1"/>
        <pt x="309" y="-248" on="0"/>
        <pt x="362" y="-197" on="0"/>
        <pt x="362" y="-156" on="1"/>
        <pt x="362" y="-111" on="0"/>
        <pt x="309" y="-59" on="0"/>
        <pt x="264" y="-59" on="1"/>
        <pt x="223" y="-59" on="0"/>
        <pt x="170" y="-111" on="0"/>
        <pt x="170" y="-156" on="1"/>
        <pt x="170" y="-197" on="0"/>
        <pt x="223" y="-248" on="0"/>
      </contour>
    </TTGlyph>
    <TTGlyph name="#41" xMin="184" yMin="-18" xMax="592" yMax="1147">
      <contour>
        <pt x="387" y="78" on="1"/>
        <pt x="430" y="78" on="0"/>
        <pt x="483" y="127" on="0"/>
        <pt x="483" y="172" on="1"/>
        <pt x="483" y="213" on="0"/>
        <pt x="430" y="264" on="0"/>
        <pt x="387" y="264" on="1"/>
        <pt x="346" y="264" on="0"/>
        <pt x="293" y="213" on="0"/>
        <pt x="293" y="172" on="1"/>
        <pt x="293" y="127" on="0"/>
        <pt x="346" y="78" on="0"/>
      </contour>
      <contour>
        <pt x="389" y="-18" on="1"/>
        <pt x="290" y="-18" on="0"/>
        <pt x="184" y="82" on="0"/>
        <pt x="184" y="172" on="1"/>
        <pt x="184" y="920" on="1"/>
        <pt x="184" y="1036" on="0"/>
        <pt x="319" y="1147" on="0"/>
        <pt x="430" y="1147" on="1"/>
        <pt x="460" y="1147" on="0"/>
        <pt x="522" y="1133" on="0"/>
        <pt x="553" y="1116" on="1"/>
        <pt x="495" y="991" on="1"/>
        <pt x="481" y="1001" on="0"/>
        <pt x="448" y="1012" on="0"/>
        <pt x="430" y="1012" on="1"/>
        <pt x="391" y="1012" on="0"/>
        <pt x="352" y="967" on="0"/>
        <pt x="352" y="922" on="1"/>
        <pt x="352" y="358" on="1"/>
        <pt x="356" y="360" on="0"/>
        <pt x="385" y="362" on="0"/>
        <pt x="397" y="362" on="1"/>
        <pt x="489" y="362" on="0"/>
        <pt x="592" y="262" on="0"/>
        <pt x="592" y="172" on="1"/>
        <pt x="592" y="82" on="0"/>
        <pt x="485" y="-18" on="0"/>
      </contour>
    </TTGlyph>
    <TTGlyph name="#42" xMin="184" yMin="-18" xMax="1142" yMax="1147">
      <contour>
        <pt x="938" y="78" on="1"/>
        <pt x="981" y="78" on="0"/>
        <pt x="1034" y="127" on="0"/>
        <pt x="1034" y="172" on="1"/>
        <pt x="1034" y="213" on="0"/>
        <pt x="981" y="264" on="0"/>
        <pt x="938" y="264" on="1"/>
        <pt x="897" y="264" on="0"/>
        <pt x="843" y="213" on="0"/>
        <pt x="843" y="172" on="1"/>
        <pt x="843" y="127" on="0"/>
        <pt x="897" y="78" on="0"/>
      </contour>
      <contour>
        <pt x="940" y="-18" on="1"/>
        <pt x="841" y="-18" on="0"/>
        <pt x="735" y="82" on="0"/>
        <pt x="735" y="172" on="1"/>
        <pt x="735" y="920" on="1"/>
        <pt x="735" y="1036" on="0"/>
        <pt x="870" y="1147" on="0"/>
        <pt x="981" y="1147" on="1"/>
        <pt x="1011" y="1147" on="0"/>
        <pt x="1073" y="1133" on="0"/>
        <pt x="1104" y="1116" on="1"/>
        <pt x="1046" y="991" on="1"/>
        <pt x="1032" y="1001" on="0"/>
        <pt x="999" y="1012" on="0"/>
        <pt x="981" y="1012" on="1"/>
        <pt x="942" y="1012" on="0"/>
        <pt x="903" y="967" on="0"/>
        <pt x="903" y="922" on="1"/>
        <pt x="903" y="358" on="1"/>
        <pt x="907" y="360" on="0"/>
        <pt x="936" y="362" on="0"/>
        <pt x="948" y="362" on="1"/>
        <pt x="1040" y="362" on="0"/>
        <pt x="1142" y="262" on="0"/>
        <pt x="1142" y="172" on="1"/>
        <pt x="1142" y="82" on="0"/>
        <pt x="1036" y="-18" on="0"/>
      </contour>
      <contour>
        <pt x="387" y="78" on="1"/>
        <pt x="430" y="78" on="0"/>
        <pt x="483" y="127" on="0"/>
        <pt x="483" y="172" on="1"/>
        <pt x="483" y="213" on="0"/>
        <pt x="430" y="264" on="0"/>
        <pt x="387" y="264" on="1"/>
        <pt x="346" y="264" on="0"/>
        <pt x="293" y="213" on="0"/>
        <pt x="293" y="172" on="1"/>
        <pt x="293" y="127" on="0"/>
        <pt x="346" y="78" on="0"/>
      </contour>
      <contour>
        <pt x="389" y="-18" on="1"/>
        <pt x="290" y="-18" on="0"/>
        <pt x="184" y="82" on="0"/>
        <pt x="184" y="172" on="1"/>
        <pt x="184" y="920" on="1"/>
        <pt x="184" y="1036" on="0"/>
        <pt x="319" y="1147" on="0"/>
        <pt x="430" y="1147" on="1"/>
        <pt x="460" y="1147" on="0"/>
        <pt x="522" y="1133" on="0"/>
        <pt x="553" y="1116" on="1"/>
        <pt x="495" y="991" on="1"/>
        <pt x="481" y="1001" on="0"/>
        <pt x="448" y="1012" on="0"/>
        <pt x="430" y="1012" on="1"/>
        <pt x="391" y="1012" on="0"/>
        <pt x="352" y="967" on="0"/>
        <pt x="352" y="922" on="1"/>
        <pt x="352" y="358" on="1"/>
        <pt x="356" y="360" on="0"/>
        <pt x="385" y="362" on="0"/>
        <pt x="397" y="362" on="1"/>
        <pt x="489" y="362" on="0"/>
        <pt x="592" y="262" on="0"/>
        <pt x="592" y="172" on="1"/>
        <pt x="592" y="82" on="0"/>
        <pt x="485" y="-18" on="0"/>
      </contour>
    </TTGlyph>
    <TTGlyph name="#43" xMin="-45" yMin="-18" xMax="795" yMax="1835">
      <contour>
        <pt x="555" y="78" on="1"/>
        <pt x="598" y="78" on="0"/>
        <pt x="651" y="127" on="0"/>
        <pt x="651" y="172" on="1"/>
        <pt x="651" y="213" on="0"/>
        <pt x="598" y="264" on="0"/>
        <pt x="555" y="264" on="1"/>
        <pt x="512" y="264" on="0"/>
        <pt x="459" y="213" on="0"/>
        <pt x="459" y="172" on="1"/>
        <pt x="459" y="127" on="0"/>
        <pt x="512" y="78" on="0"/>
      </contour>
      <contour>
        <pt x="555" y="-18" on="1"/>
        <pt x="457" y="-18" on="0"/>
        <pt x="350" y="82" on="0"/>
        <pt x="350" y="172" on="1"/>
        <pt x="350" y="799" on="1"/>
        <pt x="350" y="866" on="0"/>
        <pt x="387" y="963" on="0"/>
        <pt x="420" y="993" on="1"/>
        <pt x="356" y="1053" on="0"/>
        <pt x="182" y="1239" on="0"/>
        <pt x="29" y="1473" on="0"/>
        <pt x="-45" y="1628" on="0"/>
        <pt x="-45" y="1679" on="1"/>
        <pt x="-45" y="1769" on="0"/>
        <pt x="57" y="1835" on="0"/>
        <pt x="133" y="1835" on="1"/>
        <pt x="215" y="1835" on="0"/>
        <pt x="373" y="1700" on="0"/>
        <pt x="555" y="1444" on="0"/>
        <pt x="723" y="1255" on="0"/>
        <pt x="795" y="1212" on="1"/>
        <pt x="682" y="1094" on="1"/>
        <pt x="604" y="1155" on="0"/>
        <pt x="436" y="1337" on="0"/>
        <pt x="240" y="1614" on="0"/>
        <pt x="154" y="1702" on="0"/>
        <pt x="139" y="1702" on="1"/>
        <pt x="133" y="1702" on="0"/>
        <pt x="123" y="1692" on="0"/>
        <pt x="123" y="1686" on="1"/>
        <pt x="123" y="1653" on="0"/>
        <pt x="191" y="1518" on="0"/>
        <pt x="346" y="1300" on="0"/>
        <pt x="510" y="1114" on="0"/>
        <pt x="598" y="1032" on="1"/>
        <pt x="561" y="981" on="0"/>
        <pt x="518" y="864" on="0"/>
        <pt x="518" y="801" on="1"/>
        <pt x="518" y="358" on="1"/>
        <pt x="524" y="360" on="0"/>
        <pt x="553" y="362" on="0"/>
        <pt x="563" y="362" on="1"/>
        <pt x="657" y="362" on="0"/>
        <pt x="760" y="262" on="0"/>
        <pt x="760" y="172" on="1"/>
        <pt x="760" y="82" on="0"/>
        <pt x="653" y="-18" on="0"/>
      </contour>
    </TTGlyph>
    <TTGlyph name="#44" xMin="22" yMin="-18" xMax="933" yMax="1827">
      <contour>
        <pt x="673" y="78" on="1"/>
        <pt x="718" y="78" on="0"/>
        <pt x="770" y="127" on="0"/>
        <pt x="770" y="172" on="1"/>
        <pt x="770" y="213" on="0"/>
        <pt x="718" y="264" on="0"/>
        <pt x="673" y="264" on="1"/>
        <pt x="632" y="264" on="0"/>
        <pt x="579" y="213" on="0"/>
        <pt x="579" y="172" on="1"/>
        <pt x="579" y="127" on="0"/>
        <pt x="632" y="78" on="0"/>
      </contour>
      <contour>
        <pt x="675" y="-18" on="1"/>
        <pt x="577" y="-18" on="0"/>
        <pt x="471" y="82" on="0"/>
        <pt x="471" y="172" on="1"/>
        <pt x="471" y="920" on="1"/>
        <pt x="471" y="1024" on="0"/>
        <pt x="550" y="1188" on="0"/>
        <pt x="686" y="1309" on="0"/>
        <pt x="759" y="1423" on="0"/>
        <pt x="759" y="1491" on="1"/>
        <pt x="759" y="1591" on="0"/>
        <pt x="602" y="1692" on="0"/>
        <pt x="464" y="1692" on="1"/>
        <pt x="352" y="1692" on="0"/>
        <pt x="190" y="1604" on="0"/>
        <pt x="190" y="1505" on="1"/>
        <pt x="190" y="1411" on="0"/>
        <pt x="309" y="1323" on="0"/>
        <pt x="423" y="1323" on="1"/>
        <pt x="423" y="1188" on="1"/>
        <pt x="229" y="1188" on="0"/>
        <pt x="22" y="1366" on="0"/>
        <pt x="22" y="1501" on="1"/>
        <pt x="22" y="1665" on="0"/>
        <pt x="288" y="1827" on="0"/>
        <pt x="468" y="1827" on="1"/>
        <pt x="702" y="1827" on="0"/>
        <pt x="933" y="1628" on="0"/>
        <pt x="933" y="1491" on="1"/>
        <pt x="933" y="1421" on="0"/>
        <pt x="858" y="1284" on="0"/>
        <pt x="710" y="1137" on="0"/>
        <pt x="638" y="1020" on="0"/>
        <pt x="638" y="922" on="1"/>
        <pt x="638" y="358" on="1"/>
        <pt x="643" y="360" on="0"/>
        <pt x="671" y="362" on="0"/>
        <pt x="684" y="362" on="1"/>
        <pt x="776" y="362" on="0"/>
        <pt x="878" y="262" on="0"/>
        <pt x="878" y="172" on="1"/>
        <pt x="878" y="82" on="0"/>
        <pt x="772" y="-18" on="0"/>
      </contour>
    </TTGlyph>
    <TTGlyph name="#45" xMin="67" yMin="-18" xMax="927" yMax="1841">
      <contour>
        <pt x="675" y="-18" on="1"/>
        <pt x="577" y="-18" on="0"/>
        <pt x="470" y="82" on="0"/>
        <pt x="470" y="172" on="1"/>
        <pt x="470" y="842" on="1"/>
        <pt x="470" y="903" on="0"/>
        <pt x="509" y="997" on="0"/>
        <pt x="563" y="1057" on="0"/>
        <pt x="628" y="1100" on="0"/>
        <pt x="731" y="1159" on="0"/>
        <pt x="790" y="1202" on="0"/>
        <pt x="790" y="1212" on="1"/>
        <pt x="790" y="1219" on="0"/>
        <pt x="782" y="1235" on="0"/>
        <pt x="769" y="1235" on="1"/>
        <pt x="767" y="1235" on="1"/>
        <pt x="742" y="1235" on="0"/>
        <pt x="667" y="1194" on="1"/>
        <pt x="589" y="1151" on="0"/>
        <pt x="528" y="1151" on="1"/>
        <pt x="491" y="1151" on="0"/>
        <pt x="427" y="1198" on="0"/>
        <pt x="409" y="1260" on="1"/>
        <pt x="364" y="1393" on="0"/>
        <pt x="198" y="1634" on="0"/>
        <pt x="67" y="1737" on="1"/>
        <pt x="184" y="1841" on="1"/>
        <pt x="315" y="1731" on="0"/>
        <pt x="497" y="1477" on="0"/>
        <pt x="554" y="1333" on="1"/>
        <pt x="571" y="1288" on="0"/>
        <pt x="608" y="1288" on="1"/>
        <pt x="628" y="1288" on="0"/>
        <pt x="675" y="1313" on="0"/>
        <pt x="712" y="1327" on="0"/>
        <pt x="763" y="1343" on="0"/>
        <pt x="790" y="1343" on="1"/>
        <pt x="827" y="1343" on="0"/>
        <pt x="876" y="1327" on="0"/>
        <pt x="909" y="1294" on="0"/>
        <pt x="927" y="1255" on="0"/>
        <pt x="927" y="1233" on="1"/>
        <pt x="927" y="1198" on="0"/>
        <pt x="892" y="1135" on="0"/>
        <pt x="825" y="1075" on="0"/>
        <pt x="745" y="1028" on="0"/>
        <pt x="679" y="971" on="0"/>
        <pt x="638" y="889" on="0"/>
        <pt x="638" y="842" on="1"/>
        <pt x="638" y="358" on="1"/>
        <pt x="642" y="360" on="0"/>
        <pt x="671" y="362" on="0"/>
        <pt x="683" y="362" on="1"/>
        <pt x="776" y="362" on="0"/>
        <pt x="878" y="262" on="0"/>
        <pt x="878" y="172" on="1"/>
        <pt x="878" y="82" on="0"/>
        <pt x="772" y="-18" on="0"/>
      </contour>
      <contour>
        <pt x="673" y="78" on="1"/>
        <pt x="718" y="78" on="0"/>
        <pt x="769" y="127" on="0"/>
        <pt x="769" y="172" on="1"/>
        <pt x="769" y="213" on="0"/>
        <pt x="718" y="264" on="0"/>
        <pt x="673" y="264" on="1"/>
        <pt x="632" y="264" on="0"/>
        <pt x="579" y="213" on="0"/>
        <pt x="579" y="172" on="1"/>
        <pt x="579" y="127" on="0"/>
        <pt x="632" y="78" on="0"/>
      </contour>
    </TTGlyph>
    <TTGlyph name="#46" xMin="163" yMin="-477" xMax="1169" yMax="1147">
      <contour>
        <pt x="1169" y="-61" on="1"/>
        <pt x="1169" y="-262" on="0"/>
        <pt x="917" y="-477" on="0"/>
        <pt x="675" y="-477" on="1"/>
        <pt x="497" y="-477" on="0"/>
        <pt x="226" y="-348" on="0"/>
        <pt x="196" y="-172" on="1"/>
        <pt x="339" y="-143" on="1"/>
        <pt x="364" y="-254" on="0"/>
        <pt x="542" y="-342" on="0"/>
        <pt x="675" y="-342" on="1"/>
        <pt x="853" y="-342" on="0"/>
        <pt x="1001" y="-186" on="0"/>
        <pt x="1001" y="-49" on="1"/>
        <pt x="1001" y="768" on="1"/>
        <pt x="1001" y="827" on="0"/>
        <pt x="990" y="918" on="0"/>
        <pt x="972" y="979" on="0"/>
        <pt x="937" y="1012" on="0"/>
        <pt x="913" y="1012" on="1"/>
        <pt x="878" y="1012" on="0"/>
        <pt x="835" y="967" on="0"/>
        <pt x="810" y="907" on="0"/>
        <pt x="792" y="844" on="0"/>
        <pt x="759" y="784" on="0"/>
        <pt x="708" y="741" on="0"/>
        <pt x="667" y="741" on="1"/>
        <pt x="624" y="741" on="0"/>
        <pt x="573" y="784" on="0"/>
        <pt x="540" y="844" on="0"/>
        <pt x="521" y="907" on="0"/>
        <pt x="497" y="967" on="0"/>
        <pt x="454" y="1012" on="0"/>
        <pt x="419" y="1012" on="1"/>
        <pt x="396" y="1012" on="0"/>
        <pt x="362" y="979" on="0"/>
        <pt x="341" y="918" on="0"/>
        <pt x="331" y="827" on="0"/>
        <pt x="331" y="768" on="1"/>
        <pt x="331" y="719" on="1"/>
        <pt x="337" y="721" on="0"/>
        <pt x="364" y="723" on="0"/>
        <pt x="376" y="723" on="1"/>
        <pt x="468" y="723" on="0"/>
        <pt x="571" y="623" on="0"/>
        <pt x="571" y="532" on="1"/>
        <pt x="571" y="442" on="0"/>
        <pt x="466" y="342" on="0"/>
        <pt x="368" y="342" on="1"/>
        <pt x="269" y="342" on="0"/>
        <pt x="163" y="442" on="0"/>
        <pt x="163" y="532" on="1"/>
        <pt x="163" y="768" on="1"/>
        <pt x="163" y="889" on="0"/>
        <pt x="210" y="1038" on="0"/>
        <pt x="282" y="1116" on="0"/>
        <pt x="370" y="1147" on="0"/>
        <pt x="421" y="1147" on="1"/>
        <pt x="523" y="1147" on="0"/>
        <pt x="640" y="1004" on="0"/>
        <pt x="667" y="879" on="1"/>
        <pt x="691" y="1004" on="0"/>
        <pt x="808" y="1147" on="0"/>
        <pt x="911" y="1147" on="1"/>
        <pt x="962" y="1147" on="0"/>
        <pt x="1050" y="1116" on="0"/>
        <pt x="1121" y="1038" on="0"/>
        <pt x="1169" y="889" on="0"/>
        <pt x="1169" y="768" on="1"/>
      </contour>
      <contour>
        <pt x="464" y="532" on="1"/>
        <pt x="464" y="573" on="0"/>
        <pt x="411" y="625" on="0"/>
        <pt x="366" y="625" on="1"/>
        <pt x="325" y="625" on="0"/>
        <pt x="272" y="573" on="0"/>
        <pt x="272" y="532" on="1"/>
        <pt x="272" y="487" on="0"/>
        <pt x="325" y="436" on="0"/>
        <pt x="366" y="436" on="1"/>
        <pt x="411" y="436" on="0"/>
        <pt x="464" y="487" on="0"/>
      </contour>
    </TTGlyph>
    <TTGlyph name="#47" xMin="-733" yMin="1765" xMax="-590" yMax="2122">
      <contour>
        <pt x="-733" y="2122" on="1"/>
        <pt x="-590" y="2122" on="1"/>
        <pt x="-590" y="1765" on="1"/>
        <pt x="-733" y="1765" on="1"/>
      </contour>
    </TTGlyph>
    <TTGlyph name="#48" xMin="-1044" yMin="1749" xMax="-213" yMax="2228">
      <contour>
        <pt x="-966" y="2091" on="1"/>
        <pt x="-966" y="2062" on="0"/>
        <pt x="-929" y="2025" on="0"/>
        <pt x="-897" y="2025" on="1"/>
        <pt x="-866" y="2025" on="0"/>
        <pt x="-829" y="2062" on="0"/>
        <pt x="-829" y="2091" on="1"/>
        <pt x="-829" y="2124" on="0"/>
        <pt x="-866" y="2161" on="0"/>
        <pt x="-897" y="2161" on="1"/>
        <pt x="-929" y="2161" on="0"/>
        <pt x="-966" y="2124" on="0"/>
      </contour>
      <contour>
        <pt x="-872" y="1958" on="1"/>
        <pt x="-876" y="1958" on="0"/>
        <pt x="-897" y="1956" on="0"/>
        <pt x="-905" y="1956" on="1"/>
        <pt x="-970" y="1956" on="0"/>
        <pt x="-1044" y="2028" on="0"/>
        <pt x="-1044" y="2091" on="1"/>
        <pt x="-1044" y="2157" on="0"/>
        <pt x="-968" y="2228" on="0"/>
        <pt x="-899" y="2228" on="1"/>
        <pt x="-827" y="2228" on="0"/>
        <pt x="-751" y="2157" on="0"/>
        <pt x="-751" y="2091" on="1"/>
        <pt x="-751" y="2019" on="1"/>
        <pt x="-751" y="1911" on="0"/>
        <pt x="-831" y="1864" on="1"/>
        <pt x="-569" y="1864" on="0"/>
        <pt x="-354" y="2036" on="0"/>
        <pt x="-354" y="2198" on="1"/>
        <pt x="-213" y="2198" on="1"/>
        <pt x="-213" y="2015" on="0"/>
        <pt x="-483" y="1749" on="0"/>
        <pt x="-827" y="1749" on="1"/>
        <pt x="-1015" y="1749" on="1"/>
        <pt x="-1015" y="1864" on="1"/>
        <pt x="-872" y="1911" on="0"/>
      </contour>
    </TTGlyph>
    <TTGlyph name="#49" xMin="-1142" yMin="1765" xMax="-48" yMax="2236">
      <contour>
        <pt x="-913" y="1765" on="1"/>
        <pt x="-1003" y="1765" on="0"/>
        <pt x="-1142" y="1898" on="0"/>
        <pt x="-1142" y="2001" on="1"/>
        <pt x="-1142" y="2109" on="0"/>
        <pt x="-1013" y="2236" on="0"/>
        <pt x="-900" y="2236" on="1"/>
        <pt x="-859" y="2236" on="0"/>
        <pt x="-718" y="2118" on="0"/>
        <pt x="-681" y="2118" on="1"/>
        <pt x="-648" y="2120" on="0"/>
        <pt x="-530" y="2236" on="0"/>
        <pt x="-468" y="2236" on="1"/>
        <pt x="-378" y="2236" on="0"/>
        <pt x="-284" y="2132" on="0"/>
        <pt x="-284" y="2054" on="1"/>
        <pt x="-284" y="2009" on="0"/>
        <pt x="-356" y="1935" on="0"/>
        <pt x="-419" y="1901" on="1"/>
        <pt x="-294" y="1901" on="0"/>
        <pt x="-194" y="1972" on="0"/>
        <pt x="-190" y="2040" on="1"/>
        <pt x="-48" y="2040" on="1"/>
        <pt x="-50" y="1933" on="0"/>
        <pt x="-212" y="1786" on="0"/>
        <pt x="-415" y="1786" on="1"/>
        <pt x="-583" y="1786" on="1"/>
        <pt x="-583" y="1901" on="1"/>
        <pt x="-501" y="1923" on="0"/>
        <pt x="-405" y="2003" on="0"/>
        <pt x="-405" y="2052" on="1"/>
        <pt x="-405" y="2089" on="0"/>
        <pt x="-437" y="2122" on="0"/>
        <pt x="-468" y="2122" on="1"/>
        <pt x="-489" y="2122" on="0"/>
        <pt x="-603" y="2003" on="0"/>
        <pt x="-681" y="2003" on="1"/>
        <pt x="-769" y="2003" on="0"/>
        <pt x="-882" y="2122" on="0"/>
        <pt x="-900" y="2122" on="1"/>
        <pt x="-952" y="2122" on="0"/>
        <pt x="-1001" y="2060" on="0"/>
        <pt x="-1001" y="2001" on="1"/>
        <pt x="-1001" y="1939" on="0"/>
        <pt x="-949" y="1878" on="0"/>
        <pt x="-902" y="1870" on="1"/>
        <pt x="-909" y="1888" on="0"/>
        <pt x="-909" y="1898" on="1"/>
        <pt x="-906" y="1976" on="0"/>
        <pt x="-824" y="1976" on="1"/>
        <pt x="-820" y="1976" on="1"/>
        <pt x="-732" y="1976" on="0"/>
        <pt x="-732" y="1894" on="1"/>
        <pt x="-732" y="1843" on="0"/>
        <pt x="-823" y="1765" on="0"/>
      </contour>
    </TTGlyph>
    <TTGlyph name="#5" xMin="112" yMin="-410" xMax="1259" yMax="1147">
      <contour>
        <pt x="319" y="727" on="1"/>
        <pt x="362" y="727" on="0"/>
        <pt x="415" y="778" on="0"/>
        <pt x="415" y="821" on="1"/>
        <pt x="415" y="864" on="0"/>
        <pt x="362" y="913" on="0"/>
        <pt x="319" y="913" on="1"/>
        <pt x="278" y="913" on="0"/>
        <pt x="223" y="864" on="0"/>
        <pt x="223" y="821" on="1"/>
        <pt x="223" y="778" on="0"/>
        <pt x="278" y="727" on="0"/>
      </contour>
      <contour>
        <pt x="1154" y="-410" on="1"/>
        <pt x="1099" y="-387" on="0"/>
        <pt x="1052" y="-299" on="0"/>
        <pt x="1034" y="57" on="0"/>
        <pt x="974" y="150" on="0"/>
        <pt x="917" y="150" on="1"/>
        <pt x="866" y="150" on="0"/>
        <pt x="690" y="68" on="0"/>
        <pt x="622" y="31" on="0"/>
        <pt x="474" y="-20" on="0"/>
        <pt x="376" y="-20" on="1"/>
        <pt x="249" y="-20" on="0"/>
        <pt x="112" y="94" on="0"/>
        <pt x="112" y="188" on="1"/>
        <pt x="112" y="301" on="0"/>
        <pt x="249" y="438" on="0"/>
        <pt x="466" y="522" on="0"/>
        <pt x="685" y="584" on="0"/>
        <pt x="866" y="664" on="0"/>
        <pt x="980" y="760" on="0"/>
        <pt x="980" y="821" on="1"/>
        <pt x="980" y="860" on="0"/>
        <pt x="943" y="924" on="0"/>
        <pt x="862" y="981" on="0"/>
        <pt x="737" y="1012" on="0"/>
        <pt x="661" y="1012" on="1"/>
        <pt x="597" y="1012" on="0"/>
        <pt x="487" y="995" on="0"/>
        <pt x="442" y="977" on="1"/>
        <pt x="483" y="946" on="0"/>
        <pt x="524" y="870" on="0"/>
        <pt x="524" y="821" on="1"/>
        <pt x="524" y="731" on="0"/>
        <pt x="417" y="633" on="0"/>
        <pt x="321" y="633" on="1"/>
        <pt x="221" y="633" on="0"/>
        <pt x="168" y="683" on="1"/>
        <pt x="116" y="731" on="0"/>
        <pt x="116" y="815" on="1"/>
        <pt x="116" y="821" on="1"/>
        <pt x="116" y="905" on="0"/>
        <pt x="208" y="1034" on="0"/>
        <pt x="376" y="1114" on="0"/>
        <pt x="561" y="1147" on="0"/>
        <pt x="667" y="1147" on="1"/>
        <pt x="771" y="1147" on="0"/>
        <pt x="950" y="1106" on="0"/>
        <pt x="1095" y="1020" on="0"/>
        <pt x="1154" y="899" on="0"/>
        <pt x="1154" y="827" on="1"/>
        <pt x="1154" y="698" on="0"/>
        <pt x="999" y="551" on="0"/>
        <pt x="831" y="465" on="0"/>
        <pt x="630" y="403" on="0"/>
        <pt x="413" y="332" on="0"/>
        <pt x="286" y="260" on="0"/>
        <pt x="286" y="201" on="1"/>
        <pt x="286" y="160" on="0"/>
        <pt x="337" y="117" on="0"/>
        <pt x="376" y="117" on="1"/>
        <pt x="386" y="117" on="1"/>
        <pt x="441" y="117" on="0"/>
        <pt x="489" y="137" on="1"/>
        <pt x="542" y="158" on="0"/>
        <pt x="722" y="242" on="0"/>
        <pt x="853" y="285" on="0"/>
        <pt x="925" y="285" on="1"/>
        <pt x="1036" y="285" on="0"/>
        <pt x="1171" y="152" on="0"/>
        <pt x="1181" y="-205" on="0"/>
        <pt x="1218" y="-299" on="0"/>
        <pt x="1259" y="-311" on="1"/>
      </contour>
    </TTGlyph>
    <TTGlyph name="#50" xMin="-925" yMin="1749" xMax="-390" yMax="2281">
      <contour>
        <pt x="-925" y="1944" on="1"/>
        <pt x="-925" y="2087" on="1"/>
        <pt x="-728" y="2087" on="1"/>
        <pt x="-728" y="2281" on="1"/>
        <pt x="-587" y="2281" on="1"/>
        <pt x="-587" y="2087" on="1"/>
        <pt x="-390" y="2087" on="1"/>
        <pt x="-390" y="1944" on="1"/>
        <pt x="-587" y="1944" on="1"/>
        <pt x="-587" y="1749" on="1"/>
        <pt x="-728" y="1749" on="1"/>
        <pt x="-728" y="1944" on="1"/>
      </contour>
    </TTGlyph>
    <TTGlyph name="#51" xMin="-1169" yMin="1845" xMax="-110" yMax="2249">
      <contour>
        <pt x="-378" y="1901" on="1"/>
        <pt x="-464" y="1901" on="0"/>
        <pt x="-587" y="1962" on="0"/>
        <pt x="-696" y="2064" on="0"/>
        <pt x="-794" y="2134" on="0"/>
        <pt x="-852" y="2134" on="1"/>
        <pt x="-868" y="2134" on="0"/>
        <pt x="-884" y="2130" on="1"/>
        <pt x="-849" y="2103" on="0"/>
        <pt x="-823" y="2048" on="0"/>
        <pt x="-823" y="2005" on="1"/>
        <pt x="-823" y="1929" on="0"/>
        <pt x="-913" y="1845" on="0"/>
        <pt x="-995" y="1845" on="1"/>
        <pt x="-1079" y="1845" on="0"/>
        <pt x="-1125" y="1888" on="1"/>
        <pt x="-1169" y="1929" on="0"/>
        <pt x="-1169" y="1999" on="1"/>
        <pt x="-1169" y="2005" on="1"/>
        <pt x="-1169" y="2066" on="0"/>
        <pt x="-1126" y="2159" on="0"/>
        <pt x="-1044" y="2222" on="0"/>
        <pt x="-935" y="2249" on="0"/>
        <pt x="-872" y="2249" on="1"/>
        <pt x="-792" y="2249" on="0"/>
        <pt x="-645" y="2193" on="0"/>
        <pt x="-532" y="2071" on="0"/>
        <pt x="-430" y="2015" on="0"/>
        <pt x="-378" y="2015" on="1"/>
        <pt x="-327" y="2015" on="0"/>
        <pt x="-249" y="2083" on="0"/>
        <pt x="-219" y="2138" on="1"/>
        <pt x="-110" y="2081" on="1"/>
        <pt x="-157" y="1993" on="0"/>
        <pt x="-301" y="1901" on="0"/>
      </contour>
      <contour>
        <pt x="-997" y="1925" on="1"/>
        <pt x="-960" y="1925" on="0"/>
        <pt x="-915" y="1968" on="0"/>
        <pt x="-915" y="2005" on="1"/>
        <pt x="-915" y="2042" on="0"/>
        <pt x="-960" y="2085" on="0"/>
        <pt x="-997" y="2085" on="1"/>
        <pt x="-1032" y="2085" on="0"/>
        <pt x="-1077" y="2042" on="0"/>
        <pt x="-1077" y="2005" on="1"/>
        <pt x="-1077" y="1968" on="0"/>
        <pt x="-1032" y="1925" on="0"/>
      </contour>
    </TTGlyph>
    <TTGlyph name="#52" xMin="-841" yMin="1270" xMax="-472" yMax="1614">
      <contour>
        <pt x="-841" y="1442" on="1"/>
        <pt x="-841" y="1524" on="0"/>
        <pt x="-745" y="1614" on="0"/>
        <pt x="-657" y="1614" on="1"/>
        <pt x="-569" y="1614" on="0"/>
        <pt x="-472" y="1524" on="0"/>
        <pt x="-472" y="1442" on="1"/>
        <pt x="-472" y="1362" on="0"/>
        <pt x="-569" y="1270" on="0"/>
        <pt x="-657" y="1270" on="1"/>
        <pt x="-745" y="1270" on="0"/>
        <pt x="-841" y="1362" on="0"/>
      </contour>
      <contour>
        <pt x="-743" y="1442" on="1"/>
        <pt x="-743" y="1405" on="0"/>
        <pt x="-694" y="1358" on="0"/>
        <pt x="-655" y="1358" on="1"/>
        <pt x="-620" y="1358" on="0"/>
        <pt x="-571" y="1405" on="0"/>
        <pt x="-571" y="1442" on="1"/>
        <pt x="-571" y="1481" on="0"/>
        <pt x="-620" y="1528" on="0"/>
        <pt x="-655" y="1528" on="1"/>
        <pt x="-694" y="1528" on="0"/>
        <pt x="-743" y="1481" on="0"/>
      </contour>
    </TTGlyph>
    <TTGlyph name="#53" xMin="135" yMin="0" xMax="1225" yMax="1090">
      <contour>
        <pt x="680" y="133" on="1"/>
        <pt x="686" y="133" on="1"/>
        <pt x="831" y="133" on="0"/>
        <pt x="945" y="233" on="1"/>
        <pt x="1061" y="334" on="0"/>
        <pt x="1061" y="545" on="1"/>
        <pt x="1061" y="756" on="0"/>
        <pt x="945" y="857" on="1"/>
        <pt x="831" y="956" on="0"/>
        <pt x="686" y="956" on="1"/>
        <pt x="680" y="956" on="1"/>
        <pt x="528" y="956" on="0"/>
        <pt x="299" y="756" on="0"/>
        <pt x="299" y="545" on="1"/>
        <pt x="299" y="334" on="0"/>
        <pt x="528" y="133" on="0"/>
      </contour>
      <contour>
        <pt x="680" y="0" on="1"/>
        <pt x="450" y="0" on="0"/>
        <pt x="135" y="281" on="0"/>
        <pt x="135" y="545" on="1"/>
        <pt x="135" y="811" on="0"/>
        <pt x="450" y="1090" on="0"/>
        <pt x="680" y="1090" on="1"/>
        <pt x="909" y="1090" on="0"/>
        <pt x="1225" y="811" on="0"/>
        <pt x="1225" y="545" on="1"/>
        <pt x="1225" y="281" on="0"/>
        <pt x="909" y="0" on="0"/>
      </contour>
    </TTGlyph>
    <TTGlyph name="#54" xMin="118" yMin="-123" xMax="1234" yMax="1147">
      <contour>
        <pt x="655" y="496" on="1"/>
        <pt x="696" y="496" on="0"/>
        <pt x="751" y="545" on="0"/>
        <pt x="751" y="588" on="1"/>
        <pt x="751" y="631" on="0"/>
        <pt x="696" y="682" on="0"/>
        <pt x="655" y="682" on="1"/>
        <pt x="612" y="682" on="0"/>
        <pt x="558" y="631" on="0"/>
        <pt x="558" y="588" on="1"/>
        <pt x="558" y="545" on="0"/>
        <pt x="612" y="496" on="0"/>
      </contour>
      <contour>
        <pt x="468" y="305" on="1"/>
        <pt x="327" y="305" on="0"/>
        <pt x="118" y="498" on="0"/>
        <pt x="118" y="664" on="1"/>
        <pt x="118" y="907" on="0"/>
        <pt x="419" y="1147" on="0"/>
        <pt x="634" y="1147" on="1"/>
        <pt x="906" y="1145" on="0"/>
        <pt x="1071" y="1007" on="1"/>
        <pt x="1234" y="870" on="0"/>
        <pt x="1234" y="606" on="1"/>
        <pt x="1234" y="600" on="1"/>
        <pt x="1234" y="342" on="0"/>
        <pt x="935" y="-14" on="0"/>
        <pt x="669" y="-123" on="1"/>
        <pt x="595" y="0" on="1"/>
        <pt x="835" y="88" on="0"/>
        <pt x="1068" y="389" on="0"/>
        <pt x="1068" y="600" on="1"/>
        <pt x="1068" y="807" on="0"/>
        <pt x="835" y="1012" on="0"/>
        <pt x="634" y="1012" on="1"/>
        <pt x="468" y="1010" on="0"/>
        <pt x="284" y="840" on="0"/>
        <pt x="282" y="668" on="1"/>
        <pt x="282" y="532" on="0"/>
        <pt x="399" y="436" on="0"/>
        <pt x="468" y="436" on="1"/>
        <pt x="509" y="436" on="0"/>
        <pt x="526" y="446" on="1"/>
        <pt x="485" y="475" on="0"/>
        <pt x="450" y="539" on="0"/>
        <pt x="450" y="588" on="1"/>
        <pt x="450" y="678" on="0"/>
        <pt x="556" y="776" on="0"/>
        <pt x="653" y="776" on="1"/>
        <pt x="753" y="776" on="0"/>
        <pt x="806" y="726" on="1"/>
        <pt x="857" y="678" on="0"/>
        <pt x="857" y="594" on="1"/>
        <pt x="857" y="588" on="1"/>
        <pt x="857" y="451" on="0"/>
        <pt x="650" y="305" on="0"/>
      </contour>
    </TTGlyph>
    <TTGlyph name="#55" xMin="118" yMin="-20" xMax="1177" yMax="1456">
      <contour>
        <pt x="958" y="213" on="1"/>
        <pt x="999" y="213" on="0"/>
        <pt x="1054" y="262" on="0"/>
        <pt x="1054" y="305" on="1"/>
        <pt x="1054" y="348" on="0"/>
        <pt x="999" y="399" on="0"/>
        <pt x="958" y="399" on="1"/>
        <pt x="915" y="399" on="0"/>
        <pt x="861" y="348" on="0"/>
        <pt x="861" y="305" on="1"/>
        <pt x="861" y="262" on="0"/>
        <pt x="915" y="213" on="0"/>
      </contour>
      <contour>
        <pt x="661" y="-20" on="1"/>
        <pt x="423" y="-20" on="0"/>
        <pt x="118" y="219" on="0"/>
        <pt x="118" y="438" on="1"/>
        <pt x="118" y="633" on="0"/>
        <pt x="374" y="897" on="0"/>
        <pt x="800" y="1092" on="0"/>
        <pt x="1009" y="1329" on="0"/>
        <pt x="1009" y="1456" on="1"/>
        <pt x="1177" y="1456" on="1"/>
        <pt x="1177" y="1286" on="0"/>
        <pt x="962" y="1010" on="0"/>
        <pt x="507" y="805" on="0"/>
        <pt x="286" y="571" on="0"/>
        <pt x="286" y="442" on="1"/>
        <pt x="286" y="291" on="0"/>
        <pt x="487" y="115" on="0"/>
        <pt x="665" y="113" on="1"/>
        <pt x="685" y="113" on="1"/>
        <pt x="730" y="113" on="0"/>
        <pt x="766" y="120" on="1"/>
        <pt x="810" y="129" on="0"/>
        <pt x="857" y="147" on="1"/>
        <pt x="812" y="168" on="0"/>
        <pt x="753" y="252" on="0"/>
        <pt x="753" y="305" on="1"/>
        <pt x="753" y="395" on="0"/>
        <pt x="859" y="496" on="0"/>
        <pt x="956" y="496" on="1"/>
        <pt x="1056" y="496" on="0"/>
        <pt x="1109" y="445" on="1"/>
        <pt x="1160" y="395" on="0"/>
        <pt x="1160" y="311" on="1"/>
        <pt x="1160" y="305" on="1"/>
        <pt x="1160" y="223" on="0"/>
        <pt x="1091" y="109" on="0"/>
        <pt x="974" y="18" on="0"/>
        <pt x="769" y="-20" on="0"/>
      </contour>
    </TTGlyph>
    <TTGlyph name="#56" xMin="75" yMin="-20" xMax="1195" yMax="1653">
      <contour>
        <pt x="280" y="78" on="1"/>
        <pt x="321" y="78" on="0"/>
        <pt x="374" y="127" on="0"/>
        <pt x="374" y="172" on="1"/>
        <pt x="374" y="213" on="0"/>
        <pt x="321" y="264" on="0"/>
        <pt x="280" y="264" on="1"/>
        <pt x="235" y="264" on="0"/>
        <pt x="181" y="213" on="0"/>
        <pt x="181" y="172" on="1"/>
        <pt x="181" y="127" on="0"/>
        <pt x="235" y="78" on="0"/>
      </contour>
      <contour>
        <pt x="808" y="-20" on="1"/>
        <pt x="710" y="-20" on="0"/>
        <pt x="534" y="63" on="0"/>
        <pt x="478" y="129" on="1"/>
        <pt x="468" y="59" on="0"/>
        <pt x="366" y="-18" on="0"/>
        <pt x="278" y="-18" on="1"/>
        <pt x="179" y="-18" on="0"/>
        <pt x="75" y="82" on="0"/>
        <pt x="75" y="172" on="1"/>
        <pt x="75" y="262" on="0"/>
        <pt x="175" y="362" on="0"/>
        <pt x="270" y="362" on="1"/>
        <pt x="282" y="362" on="0"/>
        <pt x="317" y="360" on="0"/>
        <pt x="321" y="358" on="1"/>
        <pt x="321" y="961" on="1"/>
        <pt x="483" y="961" on="1"/>
        <pt x="483" y="324" on="1"/>
        <pt x="519" y="231" on="0"/>
        <pt x="606" y="171" on="1"/>
        <pt x="690" y="113" on="0"/>
        <pt x="801" y="113" on="1"/>
        <pt x="808" y="113" on="1"/>
        <pt x="921" y="113" on="0"/>
        <pt x="1033" y="231" on="0"/>
        <pt x="1033" y="334" on="1"/>
        <pt x="1033" y="831" on="1"/>
        <pt x="1033" y="905" on="0"/>
        <pt x="931" y="1032" on="0"/>
        <pt x="468" y="1196" on="0"/>
        <pt x="329" y="1354" on="0"/>
        <pt x="329" y="1446" on="1"/>
        <pt x="329" y="1538" on="0"/>
        <pt x="435" y="1653" on="0"/>
        <pt x="554" y="1653" on="1"/>
        <pt x="607" y="1653" on="0"/>
        <pt x="730" y="1606" on="0"/>
        <pt x="919" y="1444" on="0"/>
        <pt x="1025" y="1389" on="0"/>
        <pt x="1056" y="1389" on="1"/>
        <pt x="1064" y="1251" on="1"/>
        <pt x="1023" y="1251" on="0"/>
        <pt x="892" y="1300" on="0"/>
        <pt x="771" y="1399" on="0"/>
        <pt x="601" y="1522" on="0"/>
        <pt x="573" y="1522" on="1"/>
        <pt x="534" y="1522" on="0"/>
        <pt x="497" y="1487" on="0"/>
        <pt x="497" y="1446" on="1"/>
        <pt x="497" y="1405" on="0"/>
        <pt x="595" y="1303" on="0"/>
        <pt x="1048" y="1141" on="0"/>
        <pt x="1195" y="948" on="0"/>
        <pt x="1195" y="825" on="1"/>
        <pt x="1195" y="334" on="1"/>
        <pt x="1195" y="168" on="0"/>
        <pt x="986" y="-18" on="0"/>
      </contour>
    </TTGlyph>
    <TTGlyph name="#57" xMin="129" yMin="-20" xMax="1221" yMax="1456">
      <contour>
        <pt x="1049" y="-20" on="1"/>
        <pt x="993" y="-20" on="0"/>
        <pt x="907" y="43" on="0"/>
        <pt x="879" y="113" on="1"/>
        <pt x="795" y="53" on="0"/>
        <pt x="614" y="-20" on="0"/>
        <pt x="520" y="-20" on="1"/>
        <pt x="324" y="-20" on="0"/>
        <pt x="129" y="225" on="0"/>
        <pt x="129" y="469" on="1"/>
        <pt x="129" y="651" on="0"/>
        <pt x="362" y="909" on="0"/>
        <pt x="850" y="1110" on="0"/>
        <pt x="1010" y="1331" on="0"/>
        <pt x="1010" y="1456" on="1"/>
        <pt x="1178" y="1456" on="1"/>
        <pt x="1178" y="1450" on="1"/>
        <pt x="1178" y="1274" on="0"/>
        <pt x="1066" y="1143" on="1"/>
        <pt x="952" y="1010" on="0"/>
        <pt x="471" y="807" on="0"/>
        <pt x="297" y="600" on="0"/>
        <pt x="297" y="471" on="1"/>
        <pt x="297" y="276" on="0"/>
        <pt x="414" y="117" on="0"/>
        <pt x="520" y="117" on="1"/>
        <pt x="604" y="117" on="0"/>
        <pt x="768" y="180" on="0"/>
        <pt x="842" y="227" on="1"/>
        <pt x="825" y="299" on="0"/>
        <pt x="813" y="469" on="0"/>
        <pt x="813" y="565" on="1"/>
        <pt x="813" y="649" on="0"/>
        <pt x="924" y="756" on="0"/>
        <pt x="1018" y="756" on="1"/>
        <pt x="1114" y="756" on="0"/>
        <pt x="1221" y="655" on="0"/>
        <pt x="1221" y="565" on="1"/>
        <pt x="1221" y="473" on="0"/>
        <pt x="1118" y="375" on="0"/>
        <pt x="1026" y="375" on="1"/>
        <pt x="1014" y="375" on="0"/>
        <pt x="979" y="377" on="0"/>
        <pt x="975" y="379" on="1"/>
        <pt x="975" y="354" on="0"/>
        <pt x="977" y="301" on="0"/>
        <pt x="979" y="272" on="1"/>
        <pt x="995" y="276" on="0"/>
        <pt x="1030" y="281" on="0"/>
        <pt x="1047" y="281" on="1"/>
        <pt x="1128" y="281" on="0"/>
        <pt x="1210" y="203" on="0"/>
        <pt x="1210" y="135" on="1"/>
        <pt x="1210" y="63" on="0"/>
        <pt x="1126" y="-18" on="0"/>
      </contour>
      <contour>
        <pt x="1047" y="76" on="1"/>
        <pt x="1077" y="76" on="0"/>
        <pt x="1104" y="104" on="0"/>
        <pt x="1104" y="129" on="1"/>
        <pt x="1104" y="154" on="0"/>
        <pt x="1077" y="182" on="0"/>
        <pt x="1047" y="182" on="1"/>
        <pt x="1034" y="182" on="0"/>
        <pt x="1006" y="174" on="0"/>
        <pt x="989" y="168" on="1"/>
        <pt x="997" y="125" on="0"/>
        <pt x="1026" y="76" on="0"/>
      </contour>
      <contour>
        <pt x="1016" y="473" on="1"/>
        <pt x="1061" y="473" on="0"/>
        <pt x="1112" y="522" on="0"/>
        <pt x="1112" y="565" on="1"/>
        <pt x="1112" y="608" on="0"/>
        <pt x="1061" y="659" on="0"/>
        <pt x="1016" y="659" on="1"/>
        <pt x="975" y="659" on="0"/>
        <pt x="922" y="608" on="0"/>
        <pt x="922" y="565" on="1"/>
        <pt x="922" y="522" on="0"/>
        <pt x="975" y="473" on="0"/>
      </contour>
    </TTGlyph>
    <TTGlyph name="#58" xMin="129" yMin="-20" xMax="1221" yMax="1456">
      <contour>
        <pt x="1049" y="-20" on="1"/>
        <pt x="993" y="-20" on="0"/>
        <pt x="907" y="43" on="0"/>
        <pt x="879" y="113" on="1"/>
        <pt x="795" y="53" on="0"/>
        <pt x="614" y="-20" on="0"/>
        <pt x="520" y="-20" on="1"/>
        <pt x="324" y="-20" on="0"/>
        <pt x="129" y="225" on="0"/>
        <pt x="129" y="469" on="1"/>
        <pt x="129" y="553" on="0"/>
        <pt x="178" y="694" on="0"/>
        <pt x="285" y="827" on="0"/>
        <pt x="453" y="942" on="0"/>
        <pt x="563" y="991" on="1"/>
        <pt x="514" y="1008" on="0"/>
        <pt x="451" y="1087" on="0"/>
        <pt x="451" y="1155" on="1"/>
        <pt x="451" y="1237" on="0"/>
        <pt x="545" y="1327" on="0"/>
        <pt x="633" y="1327" on="1"/>
        <pt x="723" y="1327" on="0"/>
        <pt x="817" y="1237" on="0"/>
        <pt x="817" y="1155" on="1"/>
        <pt x="817" y="1135" on="1"/>
        <pt x="848" y="1153" on="0"/>
        <pt x="909" y="1196" on="0"/>
        <pt x="969" y="1268" on="0"/>
        <pt x="1008" y="1386" on="0"/>
        <pt x="1010" y="1456" on="1"/>
        <pt x="1178" y="1456" on="1"/>
        <pt x="1178" y="1364" on="0"/>
        <pt x="1124" y="1206" on="0"/>
        <pt x="1003" y="1075" on="0"/>
        <pt x="846" y="991" on="0"/>
        <pt x="743" y="981" on="1"/>
        <pt x="694" y="926" on="0"/>
        <pt x="477" y="801" on="0"/>
        <pt x="350" y="670" on="0"/>
        <pt x="297" y="547" on="0"/>
        <pt x="297" y="471" on="1"/>
        <pt x="299" y="268" on="0"/>
        <pt x="414" y="117" on="0"/>
        <pt x="520" y="117" on="1"/>
        <pt x="604" y="117" on="0"/>
        <pt x="768" y="180" on="0"/>
        <pt x="842" y="227" on="1"/>
        <pt x="825" y="299" on="0"/>
        <pt x="813" y="469" on="0"/>
        <pt x="813" y="565" on="1"/>
        <pt x="813" y="649" on="0"/>
        <pt x="924" y="756" on="0"/>
        <pt x="1018" y="756" on="1"/>
        <pt x="1114" y="756" on="0"/>
        <pt x="1221" y="655" on="0"/>
        <pt x="1221" y="565" on="1"/>
        <pt x="1221" y="473" on="0"/>
        <pt x="1118" y="375" on="0"/>
        <pt x="1026" y="375" on="1"/>
        <pt x="1014" y="375" on="0"/>
        <pt x="979" y="377" on="0"/>
        <pt x="975" y="379" on="1"/>
        <pt x="975" y="354" on="0"/>
        <pt x="977" y="301" on="0"/>
        <pt x="979" y="272" on="1"/>
        <pt x="995" y="276" on="0"/>
        <pt x="1030" y="281" on="0"/>
        <pt x="1047" y="281" on="1"/>
        <pt x="1128" y="281" on="0"/>
        <pt x="1210" y="203" on="0"/>
        <pt x="1210" y="135" on="1"/>
        <pt x="1210" y="63" on="0"/>
        <pt x="1126" y="-18" on="0"/>
      </contour>
      <contour>
        <pt x="1047" y="76" on="1"/>
        <pt x="1077" y="76" on="0"/>
        <pt x="1104" y="104" on="0"/>
        <pt x="1104" y="129" on="1"/>
        <pt x="1104" y="154" on="0"/>
        <pt x="1077" y="182" on="0"/>
        <pt x="1047" y="182" on="1"/>
        <pt x="1034" y="182" on="0"/>
        <pt x="1006" y="174" on="0"/>
        <pt x="989" y="168" on="1"/>
        <pt x="997" y="125" on="0"/>
        <pt x="1026" y="76" on="0"/>
      </contour>
      <contour>
        <pt x="1016" y="473" on="1"/>
        <pt x="1061" y="473" on="0"/>
        <pt x="1112" y="522" on="0"/>
        <pt x="1112" y="565" on="1"/>
        <pt x="1112" y="608" on="0"/>
        <pt x="1061" y="659" on="0"/>
        <pt x="1016" y="659" on="1"/>
        <pt x="975" y="659" on="0"/>
        <pt x="922" y="608" on="0"/>
        <pt x="922" y="565" on="1"/>
        <pt x="922" y="522" on="0"/>
        <pt x="975" y="473" on="0"/>
      </contour>
      <contour>
        <pt x="635" y="1071" on="1"/>
        <pt x="672" y="1071" on="0"/>
        <pt x="721" y="1118" on="0"/>
        <pt x="721" y="1155" on="1"/>
        <pt x="721" y="1194" on="0"/>
        <pt x="672" y="1241" on="0"/>
        <pt x="635" y="1241" on="1"/>
        <pt x="596" y="1241" on="0"/>
        <pt x="549" y="1194" on="0"/>
        <pt x="549" y="1155" on="1"/>
        <pt x="549" y="1118" on="0"/>
        <pt x="596" y="1071" on="0"/>
      </contour>
    </TTGlyph>
    <TTGlyph name="#59" xMin="163" yMin="-20" xMax="1195" yMax="1653">
      <contour>
        <pt x="1195" y="825" on="1"/>
        <pt x="1195" y="299" on="1"/>
        <pt x="1195" y="137" on="0"/>
        <pt x="1048" y="-20" on="0"/>
        <pt x="904" y="-20" on="1"/>
        <pt x="839" y="-20" on="0"/>
        <pt x="724" y="35" on="0"/>
        <pt x="679" y="96" on="1"/>
        <pt x="640" y="43" on="0"/>
        <pt x="532" y="-20" on="0"/>
        <pt x="454" y="-20" on="1"/>
        <pt x="319" y="-20" on="0"/>
        <pt x="163" y="129" on="0"/>
        <pt x="163" y="299" on="1"/>
        <pt x="165" y="877" on="1"/>
        <pt x="165" y="967" on="0"/>
        <pt x="269" y="1067" on="0"/>
        <pt x="370" y="1067" on="1"/>
        <pt x="466" y="1067" on="0"/>
        <pt x="573" y="967" on="0"/>
        <pt x="573" y="877" on="1"/>
        <pt x="573" y="784" on="0"/>
        <pt x="470" y="686" on="0"/>
        <pt x="378" y="686" on="1"/>
        <pt x="366" y="686" on="0"/>
        <pt x="331" y="688" on="0"/>
        <pt x="325" y="690" on="1"/>
        <pt x="325" y="299" on="1"/>
        <pt x="325" y="188" on="0"/>
        <pt x="360" y="150" on="1"/>
        <pt x="392" y="113" on="0"/>
        <pt x="448" y="113" on="1"/>
        <pt x="454" y="113" on="1"/>
        <pt x="515" y="113" on="0"/>
        <pt x="597" y="184" on="0"/>
        <pt x="597" y="299" on="1"/>
        <pt x="597" y="459" on="1"/>
        <pt x="761" y="459" on="1"/>
        <pt x="759" y="299" on="1"/>
        <pt x="759" y="195" on="0"/>
        <pt x="796" y="153" on="1"/>
        <pt x="831" y="113" on="0"/>
        <pt x="898" y="113" on="1"/>
        <pt x="904" y="113" on="1"/>
        <pt x="966" y="113" on="0"/>
        <pt x="1033" y="195" on="0"/>
        <pt x="1033" y="299" on="1"/>
        <pt x="1033" y="831" on="1"/>
        <pt x="1033" y="905" on="0"/>
        <pt x="931" y="1032" on="0"/>
        <pt x="468" y="1196" on="0"/>
        <pt x="329" y="1354" on="0"/>
        <pt x="329" y="1446" on="1"/>
        <pt x="329" y="1538" on="0"/>
        <pt x="435" y="1653" on="0"/>
        <pt x="554" y="1653" on="1"/>
        <pt x="607" y="1653" on="0"/>
        <pt x="730" y="1606" on="0"/>
        <pt x="919" y="1444" on="0"/>
        <pt x="1025" y="1389" on="0"/>
        <pt x="1056" y="1389" on="1"/>
        <pt x="1064" y="1251" on="1"/>
        <pt x="1023" y="1251" on="0"/>
        <pt x="892" y="1300" on="0"/>
        <pt x="771" y="1399" on="0"/>
        <pt x="601" y="1522" on="0"/>
        <pt x="573" y="1522" on="1"/>
        <pt x="534" y="1522" on="0"/>
        <pt x="497" y="1487" on="0"/>
        <pt x="497" y="1446" on="1"/>
        <pt x="497" y="1405" on="0"/>
        <pt x="595" y="1303" on="0"/>
        <pt x="1048" y="1141" on="0"/>
        <pt x="1195" y="948" on="0"/>
      </contour>
      <contour>
        <pt x="464" y="877" on="1"/>
        <pt x="464" y="920" on="0"/>
        <pt x="411" y="971" on="0"/>
        <pt x="368" y="971" on="1"/>
        <pt x="327" y="971" on="0"/>
        <pt x="272" y="920" on="0"/>
        <pt x="272" y="877" on="1"/>
        <pt x="272" y="834" on="0"/>
        <pt x="327" y="784" on="0"/>
        <pt x="368" y="784" on="1"/>
        <pt x="411" y="784" on="0"/>
        <pt x="464" y="834" on="0"/>
      </contour>
    </TTGlyph>
    <TTGlyph name="#6" xMin="126" yMin="-20" xMax="1179" yMax="1137">
      <contour>
        <pt x="433" y="854" on="1"/>
        <pt x="478" y="854" on="0"/>
        <pt x="532" y="905" on="0"/>
        <pt x="532" y="946" on="1"/>
        <pt x="532" y="991" on="0"/>
        <pt x="478" y="1042" on="0"/>
        <pt x="433" y="1042" on="1"/>
        <pt x="392" y="1042" on="0"/>
        <pt x="339" y="991" on="0"/>
        <pt x="339" y="946" on="1"/>
        <pt x="339" y="905" on="0"/>
        <pt x="392" y="854" on="0"/>
      </contour>
      <contour>
        <pt x="634" y="-20" on="1"/>
        <pt x="519" y="-20" on="0"/>
        <pt x="325" y="14" on="0"/>
        <pt x="198" y="88" on="0"/>
        <pt x="126" y="203" on="0"/>
        <pt x="126" y="281" on="1"/>
        <pt x="126" y="332" on="0"/>
        <pt x="157" y="408" on="0"/>
        <pt x="212" y="469" on="0"/>
        <pt x="290" y="514" on="0"/>
        <pt x="341" y="530" on="1"/>
        <pt x="290" y="549" on="0"/>
        <pt x="212" y="600" on="0"/>
        <pt x="157" y="670" on="0"/>
        <pt x="126" y="756" on="0"/>
        <pt x="126" y="811" on="1"/>
        <pt x="126" y="893" on="0"/>
        <pt x="171" y="1014" on="0"/>
        <pt x="259" y="1096" on="0"/>
        <pt x="370" y="1137" on="0"/>
        <pt x="435" y="1137" on="1"/>
        <pt x="534" y="1137" on="0"/>
        <pt x="638" y="1036" on="0"/>
        <pt x="638" y="946" on="1"/>
        <pt x="638" y="856" on="0"/>
        <pt x="538" y="758" on="0"/>
        <pt x="443" y="758" on="1"/>
        <pt x="362" y="758" on="0"/>
        <pt x="306" y="805" on="1"/>
        <pt x="300" y="788" on="0"/>
        <pt x="300" y="768" on="1"/>
        <pt x="300" y="729" on="0"/>
        <pt x="335" y="666" on="0"/>
        <pt x="400" y="621" on="0"/>
        <pt x="459" y="609" on="1"/>
        <pt x="509" y="598" on="0"/>
        <pt x="583" y="598" on="1"/>
        <pt x="607" y="598" on="1"/>
        <pt x="607" y="465" on="1"/>
        <pt x="513" y="465" on="0"/>
        <pt x="413" y="440" on="0"/>
        <pt x="337" y="391" on="0"/>
        <pt x="298" y="328" on="0"/>
        <pt x="298" y="285" on="1"/>
        <pt x="298" y="246" on="0"/>
        <pt x="337" y="184" on="0"/>
        <pt x="417" y="135" on="0"/>
        <pt x="550" y="117" on="0"/>
        <pt x="634" y="117" on="1"/>
        <pt x="726" y="117" on="0"/>
        <pt x="876" y="145" on="0"/>
        <pt x="966" y="211" on="0"/>
        <pt x="1011" y="303" on="0"/>
        <pt x="1011" y="371" on="1"/>
        <pt x="1011" y="1126" on="1"/>
        <pt x="1179" y="1126" on="1"/>
        <pt x="1179" y="371" on="1"/>
        <pt x="1179" y="274" on="0"/>
        <pt x="1113" y="137" on="0"/>
        <pt x="980" y="23" on="0"/>
        <pt x="751" y="-20" on="0"/>
      </contour>
    </TTGlyph>
    <TTGlyph name="#60" xMin="75" yMin="-410" xMax="1195" yMax="1147">
      <contour>
        <pt x="315" y="862" on="1"/>
        <pt x="315" y="997" on="1"/>
        <pt x="315" y="1018" on="0"/>
        <pt x="298" y="1042" on="0"/>
        <pt x="280" y="1042" on="1"/>
        <pt x="235" y="1042" on="0"/>
        <pt x="181" y="991" on="0"/>
        <pt x="181" y="946" on="1"/>
        <pt x="181" y="905" on="0"/>
        <pt x="235" y="854" on="0"/>
        <pt x="280" y="854" on="1"/>
        <pt x="288" y="854" on="0"/>
        <pt x="306" y="860" on="0"/>
      </contour>
      <contour>
        <pt x="1195" y="-410" on="1"/>
        <pt x="1027" y="-410" on="1"/>
        <pt x="1027" y="774" on="1"/>
        <pt x="1027" y="836" on="0"/>
        <pt x="1001" y="922" on="0"/>
        <pt x="947" y="985" on="0"/>
        <pt x="863" y="1012" on="0"/>
        <pt x="800" y="1012" on="1"/>
        <pt x="720" y="1012" on="0"/>
        <pt x="591" y="942" on="0"/>
        <pt x="483" y="848" on="1"/>
        <pt x="483" y="172" on="1"/>
        <pt x="483" y="82" on="0"/>
        <pt x="376" y="-18" on="0"/>
        <pt x="278" y="-18" on="1"/>
        <pt x="179" y="-18" on="0"/>
        <pt x="75" y="82" on="0"/>
        <pt x="75" y="172" on="1"/>
        <pt x="75" y="262" on="0"/>
        <pt x="175" y="362" on="0"/>
        <pt x="270" y="362" on="1"/>
        <pt x="282" y="362" on="0"/>
        <pt x="308" y="360" on="0"/>
        <pt x="315" y="358" on="1"/>
        <pt x="315" y="760" on="1"/>
        <pt x="306" y="760" on="0"/>
        <pt x="288" y="758" on="0"/>
        <pt x="280" y="758" on="1"/>
        <pt x="186" y="758" on="0"/>
        <pt x="75" y="856" on="0"/>
        <pt x="75" y="946" on="1"/>
        <pt x="75" y="1036" on="0"/>
        <pt x="179" y="1137" on="0"/>
        <pt x="278" y="1137" on="1"/>
        <pt x="372" y="1137" on="0"/>
        <pt x="466" y="1053" on="0"/>
        <pt x="476" y="983" on="1"/>
        <pt x="567" y="1067" on="0"/>
        <pt x="646" y="1108" on="1"/>
        <pt x="720" y="1147" on="0"/>
        <pt x="811" y="1147" on="1"/>
        <pt x="820" y="1147" on="1"/>
        <pt x="913" y="1147" on="0"/>
        <pt x="1046" y="1104" on="0"/>
        <pt x="1150" y="1008" on="0"/>
        <pt x="1195" y="862" on="0"/>
        <pt x="1195" y="774" on="1"/>
      </contour>
      <contour>
        <pt x="181" y="172" on="1"/>
        <pt x="181" y="127" on="0"/>
        <pt x="235" y="78" on="0"/>
        <pt x="280" y="78" on="1"/>
        <pt x="321" y="78" on="0"/>
        <pt x="374" y="127" on="0"/>
        <pt x="374" y="172" on="1"/>
        <pt x="374" y="213" on="0"/>
        <pt x="321" y="264" on="0"/>
        <pt x="280" y="264" on="1"/>
        <pt x="235" y="264" on="0"/>
        <pt x="181" y="213" on="0"/>
      </contour>
    </TTGlyph>
    <TTGlyph name="#61" xMin="163" yMin="-492" xMax="1283" yMax="1147">
      <contour>
        <pt x="1078" y="-307" on="1"/>
        <pt x="1124" y="-307" on="0"/>
        <pt x="1177" y="-256" on="0"/>
        <pt x="1177" y="-213" on="1"/>
        <pt x="1177" y="-170" on="0"/>
        <pt x="1124" y="-121" on="0"/>
        <pt x="1078" y="-121" on="1"/>
        <pt x="1035" y="-121" on="0"/>
        <pt x="982" y="-170" on="0"/>
        <pt x="982" y="-213" on="1"/>
        <pt x="982" y="-256" on="0"/>
        <pt x="1035" y="-307" on="0"/>
      </contour>
      <contour>
        <pt x="528" y="-492" on="1"/>
        <pt x="458" y="-492" on="0"/>
        <pt x="378" y="-401" on="0"/>
        <pt x="378" y="-350" on="1"/>
        <pt x="378" y="-266" on="0"/>
        <pt x="458" y="-207" on="1"/>
        <pt x="974" y="195" on="1"/>
        <pt x="974" y="768" on="1"/>
        <pt x="974" y="836" on="0"/>
        <pt x="960" y="932" on="0"/>
        <pt x="931" y="987" on="0"/>
        <pt x="892" y="1016" on="0"/>
        <pt x="868" y="1016" on="1"/>
        <pt x="843" y="1016" on="0"/>
        <pt x="808" y="987" on="0"/>
        <pt x="784" y="946" on="0"/>
        <pt x="761" y="895" on="0"/>
        <pt x="728" y="852" on="0"/>
        <pt x="677" y="825" on="0"/>
        <pt x="644" y="825" on="1"/>
        <pt x="609" y="825" on="0"/>
        <pt x="556" y="856" on="0"/>
        <pt x="525" y="899" on="0"/>
        <pt x="507" y="940" on="0"/>
        <pt x="480" y="981" on="0"/>
        <pt x="446" y="1016" on="0"/>
        <pt x="423" y="1016" on="1"/>
        <pt x="392" y="1014" on="0"/>
        <pt x="358" y="981" on="0"/>
        <pt x="337" y="918" on="0"/>
        <pt x="325" y="825" on="0"/>
        <pt x="325" y="768" on="1"/>
        <pt x="325" y="469" on="1"/>
        <pt x="329" y="469" on="0"/>
        <pt x="364" y="471" on="0"/>
        <pt x="376" y="471" on="1"/>
        <pt x="468" y="471" on="0"/>
        <pt x="571" y="373" on="0"/>
        <pt x="571" y="283" on="1"/>
        <pt x="571" y="193" on="0"/>
        <pt x="466" y="92" on="0"/>
        <pt x="368" y="92" on="1"/>
        <pt x="269" y="92" on="0"/>
        <pt x="163" y="193" on="0"/>
        <pt x="163" y="283" on="1"/>
        <pt x="163" y="768" on="1"/>
        <pt x="163" y="881" on="0"/>
        <pt x="202" y="1026" on="0"/>
        <pt x="278" y="1110" on="0"/>
        <pt x="362" y="1147" on="0"/>
        <pt x="425" y="1147" on="1"/>
        <pt x="505" y="1147" on="0"/>
        <pt x="614" y="1051" on="0"/>
        <pt x="644" y="958" on="1"/>
        <pt x="681" y="1049" on="0"/>
        <pt x="790" y="1147" on="0"/>
        <pt x="865" y="1147" on="1"/>
        <pt x="935" y="1147" on="0"/>
        <pt x="1019" y="1106" on="0"/>
        <pt x="1101" y="1022" on="0"/>
        <pt x="1136" y="864" on="0"/>
        <pt x="1136" y="768" on="1"/>
        <pt x="1136" y="319" on="1"/>
        <pt x="1189" y="358" on="1"/>
        <pt x="1250" y="276" on="1"/>
        <pt x="1136" y="188" on="1"/>
        <pt x="1136" y="111" on="1"/>
        <pt x="1136" y="84" on="0"/>
        <pt x="1111" y="16" on="0"/>
        <pt x="1085" y="-23" on="1"/>
        <pt x="1173" y="-25" on="0"/>
        <pt x="1283" y="-123" on="0"/>
        <pt x="1283" y="-213" on="1"/>
        <pt x="1283" y="-303" on="0"/>
        <pt x="1177" y="-414" on="0"/>
        <pt x="1078" y="-414" on="1"/>
        <pt x="999" y="-414" on="0"/>
        <pt x="894" y="-336" on="0"/>
        <pt x="880" y="-270" on="1"/>
        <pt x="640" y="-457" on="1"/>
        <pt x="597" y="-492" on="0"/>
      </contour>
      <contour>
        <pt x="546" y="-385" on="1"/>
        <pt x="562" y="-385" on="0"/>
        <pt x="581" y="-371" on="1"/>
        <pt x="868" y="-147" on="1"/>
        <pt x="921" y="-106" on="0"/>
        <pt x="974" y="-31" on="0"/>
        <pt x="974" y="6" on="1"/>
        <pt x="974" y="63" on="1"/>
        <pt x="515" y="-293" on="1"/>
        <pt x="495" y="-309" on="0"/>
        <pt x="495" y="-336" on="1"/>
        <pt x="495" y="-360" on="0"/>
        <pt x="523" y="-385" on="0"/>
      </contour>
      <contour>
        <pt x="366" y="186" on="1"/>
        <pt x="411" y="186" on="0"/>
        <pt x="464" y="238" on="0"/>
        <pt x="464" y="283" on="1"/>
        <pt x="464" y="324" on="0"/>
        <pt x="411" y="375" on="0"/>
        <pt x="366" y="375" on="1"/>
        <pt x="325" y="375" on="0"/>
        <pt x="272" y="324" on="0"/>
        <pt x="272" y="283" on="1"/>
        <pt x="272" y="238" on="0"/>
        <pt x="325" y="186" on="0"/>
      </contour>
    </TTGlyph>
    <TTGlyph name="#62" xMin="147" yMin="-20" xMax="1212" yMax="1137">
      <contour>
        <pt x="350" y="76" on="1"/>
        <pt x="393" y="76" on="0"/>
        <pt x="446" y="127" on="0"/>
        <pt x="446" y="170" on="1"/>
        <pt x="446" y="213" on="0"/>
        <pt x="393" y="262" on="0"/>
        <pt x="350" y="262" on="1"/>
        <pt x="309" y="262" on="0"/>
        <pt x="256" y="213" on="0"/>
        <pt x="256" y="170" on="1"/>
        <pt x="256" y="127" on="0"/>
        <pt x="309" y="76" on="0"/>
      </contour>
      <contour>
        <pt x="935" y="-20" on="1"/>
        <pt x="802" y="-20" on="0"/>
        <pt x="655" y="119" on="0"/>
        <pt x="655" y="262" on="1"/>
        <pt x="655" y="823" on="1"/>
        <pt x="655" y="920" on="0"/>
        <pt x="569" y="1018" on="0"/>
        <pt x="481" y="1018" on="1"/>
        <pt x="391" y="1018" on="0"/>
        <pt x="307" y="913" on="0"/>
        <pt x="307" y="817" on="1"/>
        <pt x="307" y="356" on="1"/>
        <pt x="313" y="358" on="0"/>
        <pt x="348" y="360" on="0"/>
        <pt x="360" y="360" on="1"/>
        <pt x="452" y="360" on="0"/>
        <pt x="555" y="260" on="0"/>
        <pt x="555" y="170" on="1"/>
        <pt x="555" y="80" on="0"/>
        <pt x="448" y="-20" on="0"/>
        <pt x="352" y="-20" on="1"/>
        <pt x="253" y="-20" on="0"/>
        <pt x="147" y="80" on="0"/>
        <pt x="147" y="170" on="1"/>
        <pt x="147" y="817" on="1"/>
        <pt x="147" y="963" on="0"/>
        <pt x="321" y="1137" on="0"/>
        <pt x="481" y="1137" on="1"/>
        <pt x="657" y="1137" on="0"/>
        <pt x="817" y="950" on="0"/>
        <pt x="817" y="823" on="1"/>
        <pt x="817" y="262" on="1"/>
        <pt x="817" y="186" on="0"/>
        <pt x="874" y="115" on="0"/>
        <pt x="935" y="113" on="1"/>
        <pt x="941" y="113" on="1"/>
        <pt x="997" y="113" on="0"/>
        <pt x="1024" y="147" on="1"/>
        <pt x="1052" y="182" on="0"/>
        <pt x="1052" y="262" on="1"/>
        <pt x="1052" y="1126" on="1"/>
        <pt x="1212" y="1126" on="1"/>
        <pt x="1212" y="262" on="1"/>
        <pt x="1212" y="143" on="0"/>
        <pt x="1079" y="-18" on="0"/>
      </contour>
    </TTGlyph>
    <TTGlyph name="#63" xMin="75" yMin="-20" xMax="1906" yMax="1137">
      <contour>
        <pt x="280" y="854" on="1"/>
        <pt x="321" y="854" on="0"/>
        <pt x="374" y="905" on="0"/>
        <pt x="374" y="946" on="1"/>
        <pt x="374" y="991" on="0"/>
        <pt x="321" y="1042" on="0"/>
        <pt x="280" y="1042" on="1"/>
        <pt x="235" y="1042" on="0"/>
        <pt x="181" y="991" on="0"/>
        <pt x="181" y="946" on="1"/>
        <pt x="181" y="905" on="0"/>
        <pt x="235" y="854" on="0"/>
      </contour>
      <contour>
        <pt x="769" y="854" on="1"/>
        <pt x="777" y="854" on="0"/>
        <pt x="796" y="860" on="0"/>
        <pt x="804" y="864" on="1"/>
        <pt x="804" y="997" on="1"/>
        <pt x="804" y="1042" on="0"/>
        <pt x="769" y="1042" on="1"/>
        <pt x="724" y="1042" on="0"/>
        <pt x="673" y="991" on="0"/>
        <pt x="673" y="946" on="1"/>
        <pt x="673" y="905" on="0"/>
        <pt x="724" y="854" on="0"/>
      </contour>
      <contour>
        <pt x="1623" y="-20" on="1"/>
        <pt x="1552" y="-20" on="0"/>
        <pt x="1433" y="92" on="0"/>
        <pt x="1384" y="172" on="1"/>
        <pt x="1347" y="82" on="0"/>
        <pt x="1201" y="-20" on="0"/>
        <pt x="1083" y="-20" on="1"/>
        <pt x="1031" y="-20" on="1"/>
        <pt x="1031" y="115" on="1"/>
        <pt x="1083" y="115" on="1"/>
        <pt x="1183" y="115" on="0"/>
        <pt x="1251" y="231" on="0"/>
        <pt x="1251" y="334" on="1"/>
        <pt x="1251" y="774" on="1"/>
        <pt x="1251" y="879" on="0"/>
        <pt x="1212" y="1001" on="0"/>
        <pt x="1165" y="1001" on="1"/>
        <pt x="1113" y="1001" on="0"/>
        <pt x="1009" y="920" on="0"/>
        <pt x="972" y="870" on="1"/>
        <pt x="972" y="350" on="1"/>
        <pt x="972" y="172" on="0"/>
        <pt x="757" y="-20" on="0"/>
        <pt x="542" y="-20" on="1"/>
        <pt x="345" y="-18" on="0"/>
        <pt x="116" y="174" on="0"/>
        <pt x="116" y="354" on="1"/>
        <pt x="116" y="465" on="0"/>
        <pt x="202" y="621" on="0"/>
        <pt x="294" y="702" on="0"/>
        <pt x="337" y="750" on="0"/>
        <pt x="343" y="772" on="1"/>
        <pt x="315" y="758" on="0"/>
        <pt x="270" y="758" on="1"/>
        <pt x="175" y="758" on="0"/>
        <pt x="75" y="856" on="0"/>
        <pt x="75" y="946" on="1"/>
        <pt x="75" y="1036" on="0"/>
        <pt x="179" y="1137" on="0"/>
        <pt x="278" y="1137" on="1"/>
        <pt x="399" y="1137" on="0"/>
        <pt x="511" y="1004" on="0"/>
        <pt x="511" y="909" on="1"/>
        <pt x="511" y="846" on="0"/>
        <pt x="452" y="713" on="0"/>
        <pt x="347" y="575" on="0"/>
        <pt x="290" y="432" on="0"/>
        <pt x="290" y="358" on="1"/>
        <pt x="290" y="244" on="0"/>
        <pt x="425" y="117" on="0"/>
        <pt x="544" y="117" on="1"/>
        <pt x="553" y="117" on="1"/>
        <pt x="695" y="117" on="0"/>
        <pt x="749" y="180" on="1"/>
        <pt x="804" y="244" on="0"/>
        <pt x="804" y="350" on="1"/>
        <pt x="804" y="760" on="1"/>
        <pt x="796" y="758" on="0"/>
        <pt x="787" y="758" on="1"/>
        <pt x="769" y="758" on="1"/>
        <pt x="677" y="758" on="0"/>
        <pt x="564" y="856" on="0"/>
        <pt x="564" y="946" on="1"/>
        <pt x="564" y="1036" on="0"/>
        <pt x="671" y="1137" on="0"/>
        <pt x="767" y="1137" on="1"/>
        <pt x="851" y="1137" on="0"/>
        <pt x="943" y="1069" on="0"/>
        <pt x="960" y="1014" on="1"/>
        <pt x="999" y="1057" on="0"/>
        <pt x="1109" y="1137" on="0"/>
        <pt x="1185" y="1137" on="1"/>
        <pt x="1304" y="1137" on="0"/>
        <pt x="1418" y="954" on="0"/>
        <pt x="1418" y="774" on="1"/>
        <pt x="1418" y="324" on="1"/>
        <pt x="1464" y="217" on="0"/>
        <pt x="1566" y="117" on="0"/>
        <pt x="1623" y="117" on="1"/>
        <pt x="1683" y="117" on="0"/>
        <pt x="1738" y="225" on="0"/>
        <pt x="1738" y="334" on="1"/>
        <pt x="1738" y="1126" on="1"/>
        <pt x="1906" y="1126" on="1"/>
        <pt x="1906" y="334" on="1"/>
        <pt x="1906" y="186" on="0"/>
        <pt x="1789" y="-20" on="0"/>
      </contour>
    </TTGlyph>
    <TTGlyph name="#64" xMin="75" yMin="-20" xMax="1906" yMax="1137">
      <contour>
        <pt x="280" y="854" on="1"/>
        <pt x="321" y="854" on="0"/>
        <pt x="374" y="905" on="0"/>
        <pt x="374" y="946" on="1"/>
        <pt x="374" y="991" on="0"/>
        <pt x="321" y="1042" on="0"/>
        <pt x="280" y="1042" on="1"/>
        <pt x="235" y="1042" on="0"/>
        <pt x="181" y="991" on="0"/>
        <pt x="181" y="946" on="1"/>
        <pt x="181" y="905" on="0"/>
        <pt x="235" y="854" on="0"/>
      </contour>
      <contour>
        <pt x="769" y="854" on="1"/>
        <pt x="777" y="854" on="0"/>
        <pt x="796" y="860" on="0"/>
        <pt x="804" y="864" on="1"/>
        <pt x="804" y="997" on="1"/>
        <pt x="804" y="1042" on="0"/>
        <pt x="769" y="1042" on="1"/>
        <pt x="724" y="1042" on="0"/>
        <pt x="673" y="991" on="0"/>
        <pt x="673" y="946" on="1"/>
        <pt x="673" y="905" on="0"/>
        <pt x="724" y="854" on="0"/>
      </contour>
      <contour>
        <pt x="1623" y="-20" on="1"/>
        <pt x="1570" y="-20" on="0"/>
        <pt x="1466" y="59" on="0"/>
        <pt x="1416" y="129" on="1"/>
        <pt x="1404" y="59" on="0"/>
        <pt x="1302" y="-18" on="0"/>
        <pt x="1214" y="-18" on="1"/>
        <pt x="1117" y="-18" on="0"/>
        <pt x="1011" y="82" on="0"/>
        <pt x="1011" y="172" on="1"/>
        <pt x="1011" y="262" on="0"/>
        <pt x="1113" y="362" on="0"/>
        <pt x="1205" y="362" on="1"/>
        <pt x="1218" y="362" on="0"/>
        <pt x="1246" y="360" on="0"/>
        <pt x="1251" y="358" on="1"/>
        <pt x="1251" y="774" on="1"/>
        <pt x="1251" y="879" on="0"/>
        <pt x="1212" y="1001" on="0"/>
        <pt x="1165" y="1001" on="1"/>
        <pt x="1113" y="1001" on="0"/>
        <pt x="1009" y="920" on="0"/>
        <pt x="972" y="870" on="1"/>
        <pt x="972" y="350" on="1"/>
        <pt x="972" y="172" on="0"/>
        <pt x="757" y="-20" on="0"/>
        <pt x="542" y="-20" on="1"/>
        <pt x="345" y="-18" on="0"/>
        <pt x="116" y="174" on="0"/>
        <pt x="116" y="354" on="1"/>
        <pt x="116" y="465" on="0"/>
        <pt x="202" y="621" on="0"/>
        <pt x="294" y="702" on="0"/>
        <pt x="337" y="750" on="0"/>
        <pt x="343" y="772" on="1"/>
        <pt x="315" y="758" on="0"/>
        <pt x="270" y="758" on="1"/>
        <pt x="175" y="758" on="0"/>
        <pt x="75" y="856" on="0"/>
        <pt x="75" y="946" on="1"/>
        <pt x="75" y="1036" on="0"/>
        <pt x="179" y="1137" on="0"/>
        <pt x="278" y="1137" on="1"/>
        <pt x="399" y="1137" on="0"/>
        <pt x="511" y="1004" on="0"/>
        <pt x="511" y="909" on="1"/>
        <pt x="511" y="846" on="0"/>
        <pt x="452" y="713" on="0"/>
        <pt x="347" y="575" on="0"/>
        <pt x="290" y="432" on="0"/>
        <pt x="290" y="358" on="1"/>
        <pt x="290" y="244" on="0"/>
        <pt x="425" y="117" on="0"/>
        <pt x="544" y="117" on="1"/>
        <pt x="553" y="117" on="1"/>
        <pt x="695" y="117" on="0"/>
        <pt x="749" y="180" on="1"/>
        <pt x="804" y="244" on="0"/>
        <pt x="804" y="350" on="1"/>
        <pt x="804" y="760" on="1"/>
        <pt x="796" y="758" on="0"/>
        <pt x="787" y="758" on="1"/>
        <pt x="769" y="758" on="1"/>
        <pt x="677" y="758" on="0"/>
        <pt x="564" y="856" on="0"/>
        <pt x="564" y="946" on="1"/>
        <pt x="564" y="1036" on="0"/>
        <pt x="671" y="1137" on="0"/>
        <pt x="767" y="1137" on="1"/>
        <pt x="851" y="1137" on="0"/>
        <pt x="943" y="1069" on="0"/>
        <pt x="960" y="1014" on="1"/>
        <pt x="999" y="1057" on="0"/>
        <pt x="1109" y="1137" on="0"/>
        <pt x="1185" y="1137" on="1"/>
        <pt x="1304" y="1137" on="0"/>
        <pt x="1418" y="954" on="0"/>
        <pt x="1418" y="774" on="1"/>
        <pt x="1418" y="324" on="1"/>
        <pt x="1464" y="217" on="0"/>
        <pt x="1566" y="117" on="0"/>
        <pt x="1623" y="117" on="1"/>
        <pt x="1683" y="117" on="0"/>
        <pt x="1738" y="225" on="0"/>
        <pt x="1738" y="334" on="1"/>
        <pt x="1738" y="1126" on="1"/>
        <pt x="1906" y="1126" on="1"/>
        <pt x="1906" y="334" on="1"/>
        <pt x="1906" y="186" on="0"/>
        <pt x="1789" y="-20" on="0"/>
      </contour>
      <contour>
        <pt x="1216" y="78" on="1"/>
        <pt x="1257" y="78" on="0"/>
        <pt x="1312" y="127" on="0"/>
        <pt x="1312" y="172" on="1"/>
        <pt x="1312" y="213" on="0"/>
        <pt x="1257" y="264" on="0"/>
        <pt x="1216" y="264" on="1"/>
        <pt x="1173" y="264" on="0"/>
        <pt x="1119" y="213" on="0"/>
        <pt x="1119" y="172" on="1"/>
        <pt x="1119" y="127" on="0"/>
        <pt x="1173" y="78" on="0"/>
      </contour>
    </TTGlyph>
    <TTGlyph name="#65" xMin="-733" yMin="1315" xMax="-590" yMax="1672">
      <contour>
        <pt x="-733" y="1672" on="1"/>
        <pt x="-590" y="1672" on="1"/>
        <pt x="-590" y="1315" on="1"/>
        <pt x="-733" y="1315" on="1"/>
      </contour>
    </TTGlyph>
    <TTGlyph name="#66" xMin="-1044" yMin="1269" xMax="-213" yMax="1748">
      <contour>
        <pt x="-966" y="1611" on="1"/>
        <pt x="-966" y="1582" on="0"/>
        <pt x="-929" y="1545" on="0"/>
        <pt x="-897" y="1545" on="1"/>
        <pt x="-866" y="1545" on="0"/>
        <pt x="-829" y="1582" on="0"/>
        <pt x="-829" y="1611" on="1"/>
        <pt x="-829" y="1644" on="0"/>
        <pt x="-866" y="1681" on="0"/>
        <pt x="-897" y="1681" on="1"/>
        <pt x="-929" y="1681" on="0"/>
        <pt x="-966" y="1644" on="0"/>
      </contour>
      <contour>
        <pt x="-872" y="1478" on="1"/>
        <pt x="-876" y="1478" on="0"/>
        <pt x="-897" y="1476" on="0"/>
        <pt x="-905" y="1476" on="1"/>
        <pt x="-970" y="1476" on="0"/>
        <pt x="-1044" y="1548" on="0"/>
        <pt x="-1044" y="1611" on="1"/>
        <pt x="-1044" y="1677" on="0"/>
        <pt x="-968" y="1748" on="0"/>
        <pt x="-899" y="1748" on="1"/>
        <pt x="-827" y="1748" on="0"/>
        <pt x="-751" y="1677" on="0"/>
        <pt x="-751" y="1611" on="1"/>
        <pt x="-751" y="1539" on="1"/>
        <pt x="-751" y="1431" on="0"/>
        <pt x="-831" y="1384" on="1"/>
        <pt x="-569" y="1384" on="0"/>
        <pt x="-354" y="1556" on="0"/>
        <pt x="-354" y="1718" on="1"/>
        <pt x="-213" y="1718" on="1"/>
        <pt x="-213" y="1535" on="0"/>
        <pt x="-483" y="1269" on="0"/>
        <pt x="-827" y="1269" on="1"/>
        <pt x="-1015" y="1269" on="1"/>
        <pt x="-1015" y="1384" on="1"/>
        <pt x="-872" y="1431" on="0"/>
      </contour>
    </TTGlyph>
    <TTGlyph name="#67" xMin="-1142" yMin="1265" xMax="-48" yMax="1736">
      <contour>
        <pt x="-913" y="1265" on="1"/>
        <pt x="-1003" y="1265" on="0"/>
        <pt x="-1142" y="1398" on="0"/>
        <pt x="-1142" y="1501" on="1"/>
        <pt x="-1142" y="1609" on="0"/>
        <pt x="-1013" y="1736" on="0"/>
        <pt x="-900" y="1736" on="1"/>
        <pt x="-859" y="1736" on="0"/>
        <pt x="-718" y="1618" on="0"/>
        <pt x="-681" y="1618" on="1"/>
        <pt x="-648" y="1620" on="0"/>
        <pt x="-530" y="1736" on="0"/>
        <pt x="-468" y="1736" on="1"/>
        <pt x="-378" y="1736" on="0"/>
        <pt x="-284" y="1632" on="0"/>
        <pt x="-284" y="1554" on="1"/>
        <pt x="-284" y="1509" on="0"/>
        <pt x="-356" y="1435" on="0"/>
        <pt x="-419" y="1401" on="1"/>
        <pt x="-294" y="1401" on="0"/>
        <pt x="-194" y="1472" on="0"/>
        <pt x="-190" y="1540" on="1"/>
        <pt x="-48" y="1540" on="1"/>
        <pt x="-50" y="1433" on="0"/>
        <pt x="-212" y="1286" on="0"/>
        <pt x="-415" y="1286" on="1"/>
        <pt x="-583" y="1286" on="1"/>
        <pt x="-583" y="1401" on="1"/>
        <pt x="-501" y="1423" on="0"/>
        <pt x="-405" y="1503" on="0"/>
        <pt x="-405" y="1552" on="1"/>
        <pt x="-405" y="1589" on="0"/>
        <pt x="-437" y="1622" on="0"/>
        <pt x="-468" y="1622" on="1"/>
        <pt x="-489" y="1622" on="0"/>
        <pt x="-603" y="1503" on="0"/>
        <pt x="-681" y="1503" on="1"/>
        <pt x="-769" y="1503" on="0"/>
        <pt x="-882" y="1622" on="0"/>
        <pt x="-900" y="1622" on="1"/>
        <pt x="-952" y="1622" on="0"/>
        <pt x="-1001" y="1560" on="0"/>
        <pt x="-1001" y="1501" on="1"/>
        <pt x="-1001" y="1439" on="0"/>
        <pt x="-949" y="1378" on="0"/>
        <pt x="-902" y="1370" on="1"/>
        <pt x="-909" y="1388" on="0"/>
        <pt x="-909" y="1398" on="1"/>
        <pt x="-906" y="1476" on="0"/>
        <pt x="-824" y="1476" on="1"/>
        <pt x="-820" y="1476" on="1"/>
        <pt x="-732" y="1476" on="0"/>
        <pt x="-732" y="1394" on="1"/>
        <pt x="-732" y="1343" on="0"/>
        <pt x="-823" y="1265" on="0"/>
      </contour>
    </TTGlyph>
    <TTGlyph name="#68" xMin="-925" yMin="1249" xMax="-390" yMax="1781">
      <contour>
        <pt x="-925" y="1444" on="1"/>
        <pt x="-925" y="1587" on="1"/>
        <pt x="-728" y="1587" on="1"/>
        <pt x="-728" y="1781" on="1"/>
        <pt x="-587" y="1781" on="1"/>
        <pt x="-587" y="1587" on="1"/>
        <pt x="-390" y="1587" on="1"/>
        <pt x="-390" y="1444" on="1"/>
        <pt x="-587" y="1444" on="1"/>
        <pt x="-587" y="1249" on="1"/>
        <pt x="-728" y="1249" on="1"/>
        <pt x="-728" y="1444" on="1"/>
      </contour>
    </TTGlyph>
    <TTGlyph name="#69" xMin="-1169" yMin="1285" xMax="-110" yMax="1689">
      <contour>
        <pt x="-378" y="1341" on="1"/>
        <pt x="-464" y="1341" on="0"/>
        <pt x="-587" y="1402" on="0"/>
        <pt x="-696" y="1504" on="0"/>
        <pt x="-794" y="1574" on="0"/>
        <pt x="-852" y="1574" on="1"/>
        <pt x="-868" y="1574" on="0"/>
        <pt x="-884" y="1570" on="1"/>
        <pt x="-849" y="1543" on="0"/>
        <pt x="-823" y="1488" on="0"/>
        <pt x="-823" y="1445" on="1"/>
        <pt x="-823" y="1369" on="0"/>
        <pt x="-913" y="1285" on="0"/>
        <pt x="-995" y="1285" on="1"/>
        <pt x="-1079" y="1285" on="0"/>
        <pt x="-1125" y="1328" on="1"/>
        <pt x="-1169" y="1369" on="0"/>
        <pt x="-1169" y="1439" on="1"/>
        <pt x="-1169" y="1445" on="1"/>
        <pt x="-1169" y="1506" on="0"/>
        <pt x="-1126" y="1599" on="0"/>
        <pt x="-1044" y="1662" on="0"/>
        <pt x="-935" y="1689" on="0"/>
        <pt x="-872" y="1689" on="1"/>
        <pt x="-792" y="1689" on="0"/>
        <pt x="-645" y="1633" on="0"/>
        <pt x="-532" y="1511" on="0"/>
        <pt x="-430" y="1455" on="0"/>
        <pt x="-378" y="1455" on="1"/>
        <pt x="-327" y="1455" on="0"/>
        <pt x="-249" y="1523" on="0"/>
        <pt x="-219" y="1578" on="1"/>
        <pt x="-110" y="1521" on="1"/>
        <pt x="-157" y="1433" on="0"/>
        <pt x="-301" y="1341" on="0"/>
      </contour>
      <contour>
        <pt x="-997" y="1365" on="1"/>
        <pt x="-960" y="1365" on="0"/>
        <pt x="-915" y="1408" on="0"/>
        <pt x="-915" y="1445" on="1"/>
        <pt x="-915" y="1482" on="0"/>
        <pt x="-960" y="1525" on="0"/>
        <pt x="-997" y="1525" on="1"/>
        <pt x="-1032" y="1525" on="0"/>
        <pt x="-1077" y="1482" on="0"/>
        <pt x="-1077" y="1445" on="1"/>
        <pt x="-1077" y="1408" on="0"/>
        <pt x="-1032" y="1365" on="0"/>
      </contour>
    </TTGlyph>
    <TTGlyph name="#7" xMin="163" yMin="-18" xMax="1169" yMax="1147">
      <contour>
        <pt x="366" y="78" on="1"/>
        <pt x="411" y="78" on="0"/>
        <pt x="464" y="127" on="0"/>
        <pt x="464" y="172" on="1"/>
        <pt x="464" y="213" on="0"/>
        <pt x="411" y="264" on="0"/>
        <pt x="366" y="264" on="1"/>
        <pt x="325" y="264" on="0"/>
        <pt x="272" y="213" on="0"/>
        <pt x="272" y="172" on="1"/>
        <pt x="272" y="127" on="0"/>
        <pt x="325" y="78" on="0"/>
      </contour>
      <contour>
        <pt x="1169" y="0" on="1"/>
        <pt x="1001" y="0" on="1"/>
        <pt x="1001" y="678" on="1"/>
        <pt x="1001" y="838" on="0"/>
        <pt x="859" y="1012" on="0"/>
        <pt x="667" y="1012" on="1"/>
        <pt x="478" y="1012" on="0"/>
        <pt x="331" y="840" on="0"/>
        <pt x="331" y="678" on="1"/>
        <pt x="331" y="358" on="1"/>
        <pt x="337" y="360" on="0"/>
        <pt x="364" y="362" on="0"/>
        <pt x="376" y="362" on="1"/>
        <pt x="468" y="362" on="0"/>
        <pt x="571" y="262" on="0"/>
        <pt x="571" y="172" on="1"/>
        <pt x="571" y="82" on="0"/>
        <pt x="466" y="-18" on="0"/>
        <pt x="368" y="-18" on="1"/>
        <pt x="269" y="-18" on="0"/>
        <pt x="163" y="82" on="0"/>
        <pt x="163" y="172" on="1"/>
        <pt x="163" y="678" on="1"/>
        <pt x="163" y="928" on="0"/>
        <pt x="296" y="1039" on="1"/>
        <pt x="427" y="1147" on="0"/>
        <pt x="657" y="1147" on="1"/>
        <pt x="665" y="1147" on="1"/>
        <pt x="939" y="1147" on="0"/>
        <pt x="1169" y="891" on="0"/>
        <pt x="1169" y="678" on="1"/>
      </contour>
    </TTGlyph>
    <TTGlyph name="#8" xMin="163" yMin="-18" xMax="1169" yMax="1147">
      <contour>
        <pt x="1169" y="0" on="1"/>
        <pt x="1001" y="0" on="1"/>
        <pt x="1001" y="768" on="1"/>
        <pt x="1001" y="827" on="0"/>
        <pt x="990" y="918" on="0"/>
        <pt x="972" y="979" on="0"/>
        <pt x="937" y="1012" on="0"/>
        <pt x="913" y="1012" on="1"/>
        <pt x="878" y="1012" on="0"/>
        <pt x="835" y="967" on="0"/>
        <pt x="810" y="907" on="0"/>
        <pt x="792" y="844" on="0"/>
        <pt x="759" y="784" on="0"/>
        <pt x="708" y="741" on="0"/>
        <pt x="667" y="741" on="1"/>
        <pt x="624" y="741" on="0"/>
        <pt x="573" y="784" on="0"/>
        <pt x="540" y="844" on="0"/>
        <pt x="521" y="907" on="0"/>
        <pt x="497" y="967" on="0"/>
        <pt x="454" y="1012" on="0"/>
        <pt x="419" y="1012" on="1"/>
        <pt x="396" y="1012" on="0"/>
        <pt x="362" y="979" on="0"/>
        <pt x="341" y="918" on="0"/>
        <pt x="331" y="827" on="0"/>
        <pt x="331" y="768" on="1"/>
        <pt x="331" y="358" on="1"/>
        <pt x="337" y="360" on="0"/>
        <pt x="364" y="362" on="0"/>
        <pt x="376" y="362" on="1"/>
        <pt x="468" y="362" on="0"/>
        <pt x="571" y="262" on="0"/>
        <pt x="571" y="172" on="1"/>
        <pt x="571" y="82" on="0"/>
        <pt x="466" y="-18" on="0"/>
        <pt x="368" y="-18" on="1"/>
        <pt x="269" y="-18" on="0"/>
        <pt x="163" y="82" on="0"/>
        <pt x="163" y="172" on="1"/>
        <pt x="163" y="768" on="1"/>
        <pt x="163" y="889" on="0"/>
        <pt x="210" y="1038" on="0"/>
        <pt x="282" y="1116" on="0"/>
        <pt x="370" y="1147" on="0"/>
        <pt x="421" y="1147" on="1"/>
        <pt x="523" y="1147" on="0"/>
        <pt x="640" y="1004" on="0"/>
        <pt x="667" y="879" on="1"/>
        <pt x="691" y="1004" on="0"/>
        <pt x="808" y="1147" on="0"/>
        <pt x="911" y="1147" on="1"/>
        <pt x="962" y="1147" on="0"/>
        <pt x="1050" y="1116" on="0"/>
        <pt x="1121" y="1038" on="0"/>
        <pt x="1169" y="889" on="0"/>
        <pt x="1169" y="768" on="1"/>
      </contour>
      <contour>
        <pt x="464" y="172" on="1"/>
        <pt x="464" y="213" on="0"/>
        <pt x="411" y="264" on="0"/>
        <pt x="366" y="264" on="1"/>
        <pt x="325" y="264" on="0"/>
        <pt x="272" y="213" on="0"/>
        <pt x="272" y="172" on="1"/>
        <pt x="272" y="127" on="0"/>
        <pt x="325" y="78" on="0"/>
        <pt x="366" y="78" on="1"/>
        <pt x="411" y="78" on="0"/>
        <pt x="464" y="127" on="0"/>
      </contour>
    </TTGlyph>
    <TTGlyph name="#9" xMin="45" yMin="-410" xMax="1210" yMax="1147">
      <contour>
        <pt x="250" y="854" on="1"/>
        <pt x="258" y="854" on="0"/>
        <pt x="276" y="858" on="0"/>
        <pt x="285" y="862" on="1"/>
        <pt x="285" y="997" on="1"/>
        <pt x="285" y="1022" on="0"/>
        <pt x="266" y="1042" on="0"/>
        <pt x="250" y="1042" on="1"/>
        <pt x="207" y="1042" on="0"/>
        <pt x="154" y="991" on="0"/>
        <pt x="154" y="946" on="1"/>
        <pt x="154" y="905" on="0"/>
        <pt x="207" y="854" on="0"/>
      </contour>
      <contour>
        <pt x="1210" y="-410" on="1"/>
        <pt x="1042" y="-410" on="1"/>
        <pt x="1042" y="774" on="1"/>
        <pt x="1042" y="834" on="0"/>
        <pt x="1018" y="922" on="0"/>
        <pt x="954" y="985" on="0"/>
        <pt x="879" y="1012" on="0"/>
        <pt x="815" y="1012" on="1"/>
        <pt x="733" y="1012" on="0"/>
        <pt x="567" y="928" on="0"/>
        <pt x="453" y="829" on="1"/>
        <pt x="453" y="358" on="1"/>
        <pt x="459" y="360" on="0"/>
        <pt x="485" y="362" on="0"/>
        <pt x="498" y="362" on="1"/>
        <pt x="592" y="362" on="0"/>
        <pt x="692" y="262" on="0"/>
        <pt x="692" y="172" on="1"/>
        <pt x="692" y="82" on="0"/>
        <pt x="588" y="-18" on="0"/>
        <pt x="489" y="-18" on="1"/>
        <pt x="391" y="-18" on="0"/>
        <pt x="285" y="82" on="0"/>
        <pt x="285" y="172" on="1"/>
        <pt x="285" y="760" on="1"/>
        <pt x="274" y="758" on="0"/>
        <pt x="266" y="758" on="1"/>
        <pt x="250" y="758" on="1"/>
        <pt x="158" y="758" on="0"/>
        <pt x="45" y="856" on="0"/>
        <pt x="45" y="946" on="1"/>
        <pt x="45" y="1036" on="0"/>
        <pt x="151" y="1137" on="0"/>
        <pt x="248" y="1137" on="1"/>
        <pt x="342" y="1137" on="0"/>
        <pt x="438" y="1053" on="0"/>
        <pt x="451" y="973" on="1"/>
        <pt x="557" y="1075" on="0"/>
        <pt x="648" y="1112" on="1"/>
        <pt x="734" y="1147" on="0"/>
        <pt x="826" y="1147" on="1"/>
        <pt x="836" y="1147" on="1"/>
        <pt x="930" y="1147" on="0"/>
        <pt x="1059" y="1102" on="0"/>
        <pt x="1167" y="999" on="0"/>
        <pt x="1210" y="854" on="0"/>
        <pt x="1210" y="774" on="1"/>
      </contour>
      <contour>
        <pt x="487" y="78" on="1"/>
        <pt x="532" y="78" on="0"/>
        <pt x="586" y="127" on="0"/>
        <pt x="586" y="172" on="1"/>
        <pt x="586" y="213" on="0"/>
        <pt x="532" y="264" on="0"/>
        <pt x="487" y="264" on="1"/>
        <pt x="446" y="264" on="0"/>
        <pt x="393" y="213" on="0"/>
        <pt x="393" y="172" on="1"/>
        <pt x="393" y="127" on="0"/>
        <pt x="446" y="78" on="0"/>
      </contour>
    </TTGlyph>
    <TTGlyph name=".notdef" xMin="102" yMin="0" xMax="921" yMax="1536">
      <contour>
        <pt x="102" y="0" on="1"/>
        <pt x="102" y="1536" on="1"/>
        <pt x="921" y="1536" on="1"/>
        <pt x="921" y="0" on="1"/>
      </contour>
      <contour>
        <pt x="819" y="102" on="1"/>
        <pt x="819" y="1434" on="1"/>
        <pt x="204" y="1434" on="1"/>
        <pt x="204" y="102" on="1"/>
      </contour>
    </TTGlyph>
    <TTGlyph name="ampersand" xMin="98" yMin="-18" xMax="1345" yMax="1452">
      <contour>
        <pt x="98" y="377" on="1"/>
        <pt x="98" y="457" on="0"/>
        <pt x="147" y="582" on="0"/>
        <pt x="231" y="682" on="0"/>
        <pt x="342" y="758" on="0"/>
        <pt x="401" y="786" on="1"/>
        <pt x="250" y="938" on="0"/>
        <pt x="250" y="1100" on="1"/>
        <pt x="250" y="1182" on="0"/>
        <pt x="305" y="1313" on="0"/>
        <pt x="401" y="1403" on="0"/>
        <pt x="534" y="1452" on="0"/>
        <pt x="614" y="1452" on="1"/>
        <pt x="696" y="1452" on="0"/>
        <pt x="825" y="1403" on="0"/>
        <pt x="913" y="1321" on="0"/>
        <pt x="958" y="1206" on="0"/>
        <pt x="958" y="1143" on="1"/>
        <pt x="958" y="1071" on="0"/>
        <pt x="911" y="956" on="0"/>
        <pt x="831" y="862" on="0"/>
        <pt x="729" y="784" on="0"/>
        <pt x="671" y="754" on="1"/>
        <pt x="1003" y="416" on="1"/>
        <pt x="1073" y="545" on="0"/>
        <pt x="1093" y="702" on="1"/>
        <pt x="1251" y="682" on="1"/>
        <pt x="1243" y="598" on="0"/>
        <pt x="1175" y="399" on="0"/>
        <pt x="1114" y="301" on="1"/>
        <pt x="1185" y="223" on="0"/>
        <pt x="1306" y="72" on="0"/>
        <pt x="1345" y="0" on="1"/>
        <pt x="1145" y="0" on="1"/>
        <pt x="1120" y="41" on="0"/>
        <pt x="1048" y="127" on="0"/>
        <pt x="1009" y="170" on="1"/>
        <pt x="925" y="86" on="0"/>
        <pt x="704" y="-18" on="0"/>
        <pt x="561" y="-18" on="1"/>
        <pt x="428" y="-18" on="0"/>
        <pt x="252" y="57" on="0"/>
        <pt x="143" y="174" on="0"/>
        <pt x="98" y="313" on="0"/>
      </contour>
      <contour>
        <pt x="288" y="381" on="1"/>
        <pt x="288" y="344" on="0"/>
        <pt x="317" y="258" on="0"/>
        <pt x="383" y="186" on="0"/>
        <pt x="487" y="139" on="0"/>
        <pt x="565" y="139" on="1"/>
        <pt x="665" y="139" on="0"/>
        <pt x="835" y="213" on="0"/>
        <pt x="901" y="281" on="1"/>
        <pt x="501" y="684" on="1"/>
        <pt x="465" y="666" on="0"/>
        <pt x="389" y="616" on="0"/>
        <pt x="327" y="545" on="0"/>
        <pt x="288" y="446" on="0"/>
      </contour>
      <contour>
        <pt x="786" y="1137" on="1"/>
        <pt x="786" y="1206" on="0"/>
        <pt x="694" y="1303" on="0"/>
        <pt x="614" y="1303" on="1"/>
        <pt x="524" y="1303" on="0"/>
        <pt x="428" y="1194" on="0"/>
        <pt x="428" y="1114" on="1"/>
        <pt x="428" y="981" on="0"/>
        <pt x="567" y="854" on="1"/>
        <pt x="612" y="877" on="0"/>
        <pt x="692" y="930" on="0"/>
        <pt x="751" y="999" on="0"/>
        <pt x="786" y="1083" on="0"/>
      </contour>
    </TTGlyph>
    <TTGlyph name="asterisk" xMin="79" yMin="637" xMax="910" yMax="1419">
      <contour>
        <pt x="587" y="1403" on="1"/>
        <pt x="587" y="1317" on="0"/>
        <pt x="556" y="1159" on="0"/>
        <pt x="540" y="1075" on="1"/>
        <pt x="614" y="1116" on="0"/>
        <pt x="757" y="1194" on="0"/>
        <pt x="841" y="1223" on="1"/>
        <pt x="853" y="1227" on="1"/>
        <pt x="910" y="1055" on="1"/>
        <pt x="894" y="1049" on="1"/>
        <pt x="812" y="1018" on="0"/>
        <pt x="648" y="999" on="0"/>
        <pt x="562" y="993" on="1"/>
        <pt x="630" y="936" on="0"/>
        <pt x="749" y="827" on="0"/>
        <pt x="800" y="756" on="1"/>
        <pt x="810" y="741" on="1"/>
        <pt x="661" y="637" on="1"/>
        <pt x="652" y="649" on="1"/>
        <pt x="603" y="723" on="0"/>
        <pt x="532" y="868" on="0"/>
        <pt x="495" y="946" on="1"/>
        <pt x="458" y="868" on="0"/>
        <pt x="386" y="723" on="0"/>
        <pt x="337" y="649" on="1"/>
        <pt x="329" y="637" on="1"/>
        <pt x="179" y="741" on="1"/>
        <pt x="190" y="756" on="1"/>
        <pt x="241" y="827" on="0"/>
        <pt x="360" y="936" on="0"/>
        <pt x="427" y="993" on="1"/>
        <pt x="341" y="999" on="0"/>
        <pt x="177" y="1018" on="0"/>
        <pt x="95" y="1049" on="1"/>
        <pt x="79" y="1055" on="1"/>
        <pt x="136" y="1227" on="1"/>
        <pt x="149" y="1223" on="1"/>
        <pt x="233" y="1194" on="0"/>
        <pt x="376" y="1116" on="0"/>
        <pt x="450" y="1075" on="1"/>
        <pt x="433" y="1159" on="0"/>
        <pt x="403" y="1317" on="0"/>
        <pt x="403" y="1403" on="1"/>
        <pt x="403" y="1419" on="1"/>
        <pt x="587" y="1419" on="1"/>
      </contour>
    </TTGlyph>
    <TTGlyph name="at" xMin="137" yMin="-313" xMax="1816" yMax="1452">
      <contour>
        <pt x="1417" y="88" on="1"/>
        <pt x="1351" y="88" on="0"/>
        <pt x="1265" y="125" on="0"/>
        <pt x="1237" y="156" on="1"/>
        <pt x="1192" y="131" on="0"/>
        <pt x="1065" y="96" on="0"/>
        <pt x="1001" y="96" on="1"/>
        <pt x="903" y="96" on="0"/>
        <pt x="741" y="158" on="0"/>
        <pt x="622" y="279" on="0"/>
        <pt x="557" y="455" on="0"/>
        <pt x="557" y="571" on="1"/>
        <pt x="557" y="670" on="0"/>
        <pt x="618" y="844" on="0"/>
        <pt x="739" y="973" on="0"/>
        <pt x="913" y="1047" on="0"/>
        <pt x="1024" y="1047" on="1"/>
        <pt x="1128" y="1047" on="0"/>
        <pt x="1302" y="1014" on="0"/>
        <pt x="1349" y="997" on="1"/>
        <pt x="1349" y="371" on="1"/>
        <pt x="1349" y="305" on="0"/>
        <pt x="1394" y="252" on="0"/>
        <pt x="1431" y="252" on="1"/>
        <pt x="1485" y="252" on="0"/>
        <pt x="1564" y="326" on="0"/>
        <pt x="1616" y="444" on="0"/>
        <pt x="1640" y="594" on="0"/>
        <pt x="1640" y="672" on="1"/>
        <pt x="1640" y="801" on="0"/>
        <pt x="1550" y="1028" on="0"/>
        <pt x="1382" y="1200" on="0"/>
        <pt x="1143" y="1298" on="0"/>
        <pt x="993" y="1298" on="1"/>
        <pt x="844" y="1298" on="0"/>
        <pt x="594" y="1198" on="0"/>
        <pt x="413" y="1012" on="0"/>
        <pt x="313" y="741" on="0"/>
        <pt x="313" y="569" on="1"/>
        <pt x="313" y="389" on="0"/>
        <pt x="420" y="117" on="0"/>
        <pt x="610" y="-66" on="0"/>
        <pt x="870" y="-158" on="0"/>
        <pt x="1026" y="-158" on="1"/>
        <pt x="1147" y="-158" on="0"/>
        <pt x="1304" y="-129" on="0"/>
        <pt x="1327" y="-121" on="1"/>
        <pt x="1347" y="-272" on="1"/>
        <pt x="1313" y="-285" on="0"/>
        <pt x="1130" y="-313" on="0"/>
        <pt x="1026" y="-313" on="1"/>
        <pt x="844" y="-313" on="0"/>
        <pt x="520" y="-209" on="0"/>
        <pt x="278" y="6" on="0"/>
        <pt x="137" y="340" on="0"/>
        <pt x="137" y="569" on="1"/>
        <pt x="137" y="791" on="0"/>
        <pt x="276" y="1122" on="0"/>
        <pt x="512" y="1341" on="0"/>
        <pt x="821" y="1452" on="0"/>
        <pt x="993" y="1452" on="1"/>
        <pt x="1161" y="1452" on="0"/>
        <pt x="1460" y="1343" on="0"/>
        <pt x="1685" y="1137" on="0"/>
        <pt x="1816" y="844" on="0"/>
        <pt x="1816" y="659" on="1"/>
        <pt x="1816" y="520" on="0"/>
        <pt x="1753" y="307" on="0"/>
        <pt x="1646" y="162" on="0"/>
        <pt x="1499" y="88" on="0"/>
      </contour>
      <contour>
        <pt x="1007" y="254" on="1"/>
        <pt x="1050" y="254" on="0"/>
        <pt x="1138" y="272" on="0"/>
        <pt x="1173" y="291" on="1"/>
        <pt x="1167" y="317" on="0"/>
        <pt x="1163" y="371" on="0"/>
        <pt x="1163" y="395" on="1"/>
        <pt x="1163" y="877" on="1"/>
        <pt x="1151" y="881" on="0"/>
        <pt x="1081" y="889" on="0"/>
        <pt x="1038" y="889" on="1"/>
        <pt x="893" y="889" on="0"/>
        <pt x="749" y="709" on="0"/>
        <pt x="749" y="571" on="1"/>
        <pt x="749" y="426" on="0"/>
        <pt x="889" y="254" on="0"/>
      </contour>
    </TTGlyph>
    <TTGlyph name="colon" xMin="118" yMin="-27" xMax="392" yMax="1065">
      <contour>
        <pt x="392" y="111" on="1"/>
        <pt x="392" y="55" on="0"/>
        <pt x="319" y="-27" on="0"/>
        <pt x="255" y="-27" on="1"/>
        <pt x="192" y="-27" on="0"/>
        <pt x="118" y="55" on="0"/>
        <pt x="118" y="111" on="1"/>
        <pt x="118" y="166" on="0"/>
        <pt x="192" y="248" on="0"/>
        <pt x="255" y="248" on="1"/>
        <pt x="319" y="248" on="0"/>
        <pt x="392" y="166" on="0"/>
      </contour>
      <contour>
        <pt x="392" y="928" on="1"/>
        <pt x="392" y="872" on="0"/>
        <pt x="319" y="791" on="0"/>
        <pt x="255" y="791" on="1"/>
        <pt x="192" y="791" on="0"/>
        <pt x="118" y="872" on="0"/>
        <pt x="118" y="928" on="1"/>
        <pt x="118" y="983" on="0"/>
        <pt x="192" y="1065" on="0"/>
        <pt x="255" y="1065" on="1"/>
        <pt x="319" y="1065" on="0"/>
        <pt x="392" y="983" on="0"/>
      </contour>
    </TTGlyph>
    <TTGlyph name="comma" xMin="81" yMin="-326" xMax="370" yMax="233">
      <contour>
        <pt x="368" y="233" on="1"/>
        <pt x="370" y="217" on="0"/>
        <pt x="370" y="202" on="1"/>
        <pt x="370" y="170" on="1"/>
        <pt x="370" y="41" on="0"/>
        <pt x="294" y="-211" on="0"/>
        <pt x="228" y="-326" on="1"/>
        <pt x="81" y="-279" on="1"/>
        <pt x="132" y="-174" on="0"/>
        <pt x="165" y="41" on="0"/>
        <pt x="165" y="135" on="1"/>
        <pt x="165" y="162" on="0"/>
        <pt x="163" y="211" on="0"/>
        <pt x="161" y="233" on="1"/>
      </contour>
    </TTGlyph>
    <TTGlyph name="dollar" xMin="129" yMin="-223" xMax="1028" yMax="1589">
      <contour>
        <pt x="541" y="195" on="1"/>
        <pt x="698" y="195" on="0"/>
        <pt x="825" y="295" on="0"/>
        <pt x="825" y="373" on="1"/>
        <pt x="825" y="430" on="0"/>
        <pt x="770" y="512" on="0"/>
        <pt x="678" y="573" on="0"/>
        <pt x="557" y="623" on="0"/>
        <pt x="494" y="645" on="1"/>
        <pt x="432" y="668" on="0"/>
        <pt x="311" y="723" on="0"/>
        <pt x="217" y="803" on="0"/>
        <pt x="158" y="915" on="0"/>
        <pt x="158" y="997" on="1"/>
        <pt x="158" y="1143" on="0"/>
        <pt x="332" y="1329" on="0"/>
        <pt x="498" y="1354" on="1"/>
        <pt x="498" y="1589" on="1"/>
        <pt x="668" y="1589" on="1"/>
        <pt x="668" y="1360" on="1"/>
        <pt x="758" y="1356" on="0"/>
        <pt x="913" y="1319" on="0"/>
        <pt x="958" y="1303" on="1"/>
        <pt x="920" y="1143" on="1"/>
        <pt x="870" y="1161" on="0"/>
        <pt x="723" y="1200" on="0"/>
        <pt x="612" y="1200" on="1"/>
        <pt x="489" y="1200" on="0"/>
        <pt x="356" y="1106" on="0"/>
        <pt x="356" y="1020" on="1"/>
        <pt x="356" y="973" on="0"/>
        <pt x="395" y="907" on="0"/>
        <pt x="469" y="856" on="0"/>
        <pt x="569" y="815" on="0"/>
        <pt x="631" y="793" on="1"/>
        <pt x="711" y="762" on="0"/>
        <pt x="854" y="696" on="0"/>
        <pt x="963" y="604" on="0"/>
        <pt x="1028" y="477" on="0"/>
        <pt x="1028" y="387" on="1"/>
        <pt x="1028" y="242" on="0"/>
        <pt x="852" y="63" on="0"/>
        <pt x="668" y="41" on="1"/>
        <pt x="668" y="-223" on="1"/>
        <pt x="498" y="-223" on="1"/>
        <pt x="498" y="35" on="1"/>
        <pt x="354" y="39" on="0"/>
        <pt x="174" y="94" on="0"/>
        <pt x="129" y="119" on="1"/>
        <pt x="180" y="272" on="1"/>
        <pt x="242" y="244" on="0"/>
        <pt x="414" y="195" on="0"/>
      </contour>
    </TTGlyph>
    <TTGlyph name="eight" xMin="116" yMin="-31" xMax="1046" yMax="1452">
      <contour>
        <pt x="1046" y="369" on="1"/>
        <pt x="1046" y="283" on="0"/>
        <pt x="986" y="137" on="0"/>
        <pt x="870" y="29" on="0"/>
        <pt x="694" y="-31" on="0"/>
        <pt x="579" y="-31" on="1"/>
        <pt x="446" y="-31" on="0"/>
        <pt x="268" y="45" on="0"/>
        <pt x="161" y="160" on="0"/>
        <pt x="116" y="297" on="0"/>
        <pt x="116" y="358" on="1"/>
        <pt x="116" y="418" on="0"/>
        <pt x="155" y="526" on="0"/>
        <pt x="218" y="621" on="0"/>
        <pt x="302" y="696" on="0"/>
        <pt x="349" y="725" on="1"/>
        <pt x="149" y="840" on="0"/>
        <pt x="149" y="1063" on="1"/>
        <pt x="149" y="1141" on="0"/>
        <pt x="210" y="1282" on="0"/>
        <pt x="323" y="1389" on="0"/>
        <pt x="483" y="1452" on="0"/>
        <pt x="581" y="1452" on="1"/>
        <pt x="696" y="1452" on="0"/>
        <pt x="859" y="1382" on="0"/>
        <pt x="964" y="1274" on="0"/>
        <pt x="1011" y="1143" on="0"/>
        <pt x="1011" y="1081" on="1"/>
        <pt x="1011" y="1022" on="0"/>
        <pt x="976" y="918" on="0"/>
        <pt x="917" y="827" on="0"/>
        <pt x="841" y="758" on="0"/>
        <pt x="800" y="731" on="1"/>
        <pt x="1042" y="616" on="0"/>
      </contour>
      <contour>
        <pt x="309" y="356" on="1"/>
        <pt x="309" y="319" on="0"/>
        <pt x="335" y="240" on="0"/>
        <pt x="401" y="172" on="0"/>
        <pt x="503" y="127" on="0"/>
        <pt x="581" y="127" on="1"/>
        <pt x="651" y="127" on="0"/>
        <pt x="755" y="168" on="0"/>
        <pt x="821" y="231" on="0"/>
        <pt x="853" y="313" on="0"/>
        <pt x="853" y="356" on="1"/>
        <pt x="853" y="422" on="0"/>
        <pt x="804" y="520" on="0"/>
        <pt x="712" y="594" on="0"/>
        <pt x="583" y="645" on="0"/>
        <pt x="501" y="664" on="1"/>
        <pt x="409" y="612" on="0"/>
        <pt x="309" y="461" on="0"/>
      </contour>
      <contour>
        <pt x="821" y="1083" on="1"/>
        <pt x="821" y="1114" on="0"/>
        <pt x="794" y="1188" on="0"/>
        <pt x="737" y="1251" on="0"/>
        <pt x="646" y="1294" on="0"/>
        <pt x="581" y="1294" on="1"/>
        <pt x="515" y="1294" on="0"/>
        <pt x="423" y="1253" on="0"/>
        <pt x="366" y="1190" on="0"/>
        <pt x="339" y="1114" on="0"/>
        <pt x="339" y="1077" on="1"/>
        <pt x="339" y="1032" on="0"/>
        <pt x="372" y="942" on="0"/>
        <pt x="442" y="864" on="0"/>
        <pt x="554" y="803" on="0"/>
        <pt x="632" y="784" on="1"/>
        <pt x="718" y="836" on="0"/>
        <pt x="821" y="973" on="0"/>
      </contour>
    </TTGlyph>
    <TTGlyph name="equal" xMin="112" yMin="303" xMax="1050" yMax="901">
      <contour>
        <pt x="112" y="465" on="1"/>
        <pt x="1050" y="465" on="1"/>
        <pt x="1050" y="303" on="1"/>
        <pt x="112" y="303" on="1"/>
      </contour>
      <contour>
        <pt x="112" y="901" on="1"/>
        <pt x="1050" y="901" on="1"/>
        <pt x="1050" y="739" on="1"/>
        <pt x="112" y="739" on="1"/>
      </contour>
    </TTGlyph>
    <TTGlyph name="exclam" xMin="149" yMin="-27" xMax="423" yMax="1419">
      <contour>
        <pt x="389" y="1034" on="1"/>
        <pt x="389" y="862" on="0"/>
        <pt x="364" y="582" on="0"/>
        <pt x="346" y="442" on="1"/>
        <pt x="227" y="442" on="1"/>
        <pt x="208" y="582" on="0"/>
        <pt x="184" y="862" on="0"/>
        <pt x="184" y="1034" on="1"/>
        <pt x="184" y="1419" on="1"/>
        <pt x="389" y="1419" on="1"/>
      </contour>
      <contour>
        <pt x="423" y="111" on="1"/>
        <pt x="423" y="55" on="0"/>
        <pt x="350" y="-27" on="0"/>
        <pt x="286" y="-27" on="1"/>
        <pt x="223" y="-27" on="0"/>
        <pt x="149" y="55" on="0"/>
        <pt x="149" y="111" on="1"/>
        <pt x="149" y="166" on="0"/>
        <pt x="223" y="248" on="0"/>
        <pt x="286" y="248" on="1"/>
        <pt x="350" y="248" on="0"/>
        <pt x="423" y="166" on="0"/>
      </contour>
    </TTGlyph>
    <TTGlyph name="five" xMin="137" yMin="-31" xMax="1009" yMax="1419">
      <contour>
        <pt x="411" y="872" on="1"/>
        <pt x="721" y="860" on="0"/>
        <pt x="1009" y="614" on="0"/>
        <pt x="1009" y="403" on="1"/>
        <pt x="1009" y="309" on="0"/>
        <pt x="946" y="150" on="0"/>
        <pt x="817" y="35" on="0"/>
        <pt x="620" y="-31" on="0"/>
        <pt x="485" y="-31" on="1"/>
        <pt x="432" y="-31" on="0"/>
        <pt x="321" y="-14" on="0"/>
        <pt x="227" y="10" on="0"/>
        <pt x="153" y="35" on="0"/>
        <pt x="137" y="43" on="1"/>
        <pt x="174" y="209" on="1"/>
        <pt x="209" y="193" on="0"/>
        <pt x="366" y="139" on="0"/>
        <pt x="481" y="139" on="1"/>
        <pt x="573" y="139" on="0"/>
        <pt x="698" y="180" on="0"/>
        <pt x="776" y="250" on="0"/>
        <pt x="811" y="342" on="0"/>
        <pt x="811" y="393" on="1"/>
        <pt x="811" y="471" on="0"/>
        <pt x="758" y="592" on="0"/>
        <pt x="622" y="674" on="0"/>
        <pt x="397" y="717" on="0"/>
        <pt x="225" y="717" on="1"/>
        <pt x="237" y="817" on="0"/>
        <pt x="252" y="993" on="0"/>
        <pt x="264" y="1161" on="0"/>
        <pt x="272" y="1327" on="0"/>
        <pt x="276" y="1419" on="1"/>
        <pt x="960" y="1419" on="1"/>
        <pt x="960" y="1257" on="1"/>
        <pt x="442" y="1257" on="1"/>
        <pt x="440" y="1227" on="0"/>
        <pt x="432" y="1122" on="0"/>
        <pt x="424" y="1010" on="0"/>
        <pt x="416" y="903" on="0"/>
      </contour>
    </TTGlyph>
    <TTGlyph name="four" xMin="86" yMin="0" xMax="1073" yMax="1419">
      <contour>
        <pt x="86" y="492" on="1"/>
        <pt x="125" y="582" on="0"/>
        <pt x="260" y="821" on="0"/>
        <pt x="430" y="1075" on="0"/>
        <pt x="625" y="1321" on="0"/>
        <pt x="723" y="1419" on="1"/>
        <pt x="905" y="1419" on="1"/>
        <pt x="905" y="518" on="1"/>
        <pt x="1073" y="518" on="1"/>
        <pt x="1073" y="362" on="1"/>
        <pt x="905" y="362" on="1"/>
        <pt x="905" y="0" on="1"/>
        <pt x="721" y="0" on="1"/>
        <pt x="721" y="362" on="1"/>
        <pt x="86" y="362" on="1"/>
      </contour>
      <contour>
        <pt x="721" y="1194" on="1"/>
        <pt x="659" y="1128" on="0"/>
        <pt x="535" y="967" on="0"/>
        <pt x="416" y="791" on="0"/>
        <pt x="311" y="606" on="0"/>
        <pt x="270" y="518" on="1"/>
        <pt x="721" y="518" on="1"/>
      </contour>
    </TTGlyph>
    <TTGlyph name="greater" xMin="112" yMin="145" xMax="1050" yMax="1059">
      <contour>
        <pt x="112" y="901" on="1"/>
        <pt x="165" y="1059" on="1"/>
        <pt x="1050" y="684" on="1"/>
        <pt x="1050" y="520" on="1"/>
        <pt x="165" y="145" on="1"/>
        <pt x="112" y="303" on="1"/>
        <pt x="839" y="602" on="1"/>
      </contour>
    </TTGlyph>
    <TTGlyph name="hyphen" xMin="57" yMin="494" xMax="563" yMax="672">
      <contour>
        <pt x="57" y="672" on="1"/>
        <pt x="563" y="672" on="1"/>
        <pt x="563" y="494" on="1"/>
        <pt x="57" y="494" on="1"/>
      </contour>
    </TTGlyph>
    <TTGlyph name="less" xMin="112" yMin="145" xMax="1050" yMax="1059">
      <contour>
        <pt x="323" y="602" on="1"/>
        <pt x="1050" y="303" on="1"/>
        <pt x="997" y="145" on="1"/>
        <pt x="112" y="520" on="1"/>
        <pt x="112" y="684" on="1"/>
        <pt x="997" y="1059" on="1"/>
        <pt x="1050" y="901" on="1"/>
      </contour>
    </TTGlyph>
    <TTGlyph name="nine" xMin="108" yMin="-4" xMax="1030" yMax="1452">
      <contour>
        <pt x="1030" y="852" on="1"/>
        <pt x="1030" y="430" on="0"/>
        <pt x="610" y="-2" on="0"/>
        <pt x="196" y="-4" on="1"/>
        <pt x="190" y="156" on="1"/>
        <pt x="319" y="156" on="0"/>
        <pt x="526" y="205" on="0"/>
        <pt x="681" y="313" on="0"/>
        <pt x="786" y="485" on="0"/>
        <pt x="810" y="610" on="1"/>
        <pt x="757" y="586" on="0"/>
        <pt x="622" y="555" on="0"/>
        <pt x="550" y="555" on="1"/>
        <pt x="430" y="555" on="0"/>
        <pt x="262" y="627" on="0"/>
        <pt x="155" y="748" on="0"/>
        <pt x="108" y="905" on="0"/>
        <pt x="108" y="991" on="1"/>
        <pt x="108" y="1067" on="0"/>
        <pt x="161" y="1231" on="0"/>
        <pt x="270" y="1366" on="0"/>
        <pt x="438" y="1452" on="0"/>
        <pt x="552" y="1452" on="1"/>
        <pt x="669" y="1452" on="0"/>
        <pt x="847" y="1370" on="0"/>
        <pt x="968" y="1214" on="0"/>
        <pt x="1030" y="991" on="0"/>
      </contour>
      <contour>
        <pt x="571" y="711" on="1"/>
        <pt x="643" y="711" on="0"/>
        <pt x="770" y="737" on="0"/>
        <pt x="829" y="764" on="1"/>
        <pt x="831" y="786" on="0"/>
        <pt x="831" y="808" on="1"/>
        <pt x="831" y="852" on="1"/>
        <pt x="831" y="940" on="0"/>
        <pt x="806" y="1102" on="0"/>
        <pt x="743" y="1223" on="0"/>
        <pt x="636" y="1294" on="0"/>
        <pt x="554" y="1294" on="1"/>
        <pt x="487" y="1294" on="0"/>
        <pt x="393" y="1237" on="0"/>
        <pt x="331" y="1149" on="0"/>
        <pt x="305" y="1044" on="0"/>
        <pt x="305" y="995" on="1"/>
        <pt x="305" y="856" on="0"/>
        <pt x="438" y="711" on="0"/>
      </contour>
    </TTGlyph>
    <TTGlyph name="numbersign" xMin="104" yMin="0" xMax="1269" yMax="1419">
      <contour>
        <pt x="585" y="1044" on="1"/>
        <pt x="917" y="1044" on="1"/>
        <pt x="989" y="1419" on="1"/>
        <pt x="1161" y="1419" on="1"/>
        <pt x="1089" y="1044" on="1"/>
        <pt x="1269" y="1044" on="1"/>
        <pt x="1269" y="893" on="1"/>
        <pt x="1058" y="893" on="1"/>
        <pt x="989" y="526" on="1"/>
        <pt x="1269" y="526" on="1"/>
        <pt x="1269" y="375" on="1"/>
        <pt x="960" y="375" on="1"/>
        <pt x="888" y="0" on="1"/>
        <pt x="716" y="0" on="1"/>
        <pt x="788" y="375" on="1"/>
        <pt x="456" y="375" on="1"/>
        <pt x="385" y="0" on="1"/>
        <pt x="213" y="0" on="1"/>
        <pt x="284" y="375" on="1"/>
        <pt x="104" y="375" on="1"/>
        <pt x="104" y="526" on="1"/>
        <pt x="313" y="526" on="1"/>
        <pt x="383" y="893" on="1"/>
        <pt x="104" y="893" on="1"/>
        <pt x="104" y="1044" on="1"/>
        <pt x="413" y="1044" on="1"/>
        <pt x="485" y="1419" on="1"/>
        <pt x="657" y="1419" on="1"/>
      </contour>
      <contour>
        <pt x="485" y="526" on="1"/>
        <pt x="817" y="526" on="1"/>
        <pt x="888" y="893" on="1"/>
        <pt x="557" y="893" on="1"/>
      </contour>
    </TTGlyph>
    <TTGlyph name="one" xMin="194" yMin="0" xMax="759" yMax="1419">
      <contour>
        <pt x="194" y="1126" on="1"/>
        <pt x="311" y="1171" on="0"/>
        <pt x="532" y="1313" on="0"/>
        <pt x="624" y="1419" on="1"/>
        <pt x="759" y="1419" on="1"/>
        <pt x="759" y="0" on="1"/>
        <pt x="569" y="0" on="1"/>
        <pt x="569" y="1155" on="1"/>
        <pt x="544" y="1133" on="0"/>
        <pt x="473" y="1083" on="0"/>
        <pt x="389" y="1038" on="0"/>
        <pt x="296" y="997" on="0"/>
        <pt x="253" y="983" on="1"/>
      </contour>
    </TTGlyph>
    <TTGlyph name="parenleft" xMin="163" yMin="-379" xMax="652" yMax="1604">
      <contour>
        <pt x="353" y="612" on="1"/>
        <pt x="353" y="350" on="0"/>
        <pt x="505" y="-96" on="0"/>
        <pt x="652" y="-287" on="1"/>
        <pt x="517" y="-379" on="1"/>
        <pt x="358" y="-184" on="0"/>
        <pt x="163" y="322" on="0"/>
        <pt x="163" y="612" on="1"/>
        <pt x="163" y="903" on="0"/>
        <pt x="358" y="1409" on="0"/>
        <pt x="517" y="1604" on="1"/>
        <pt x="652" y="1511" on="1"/>
        <pt x="505" y="1321" on="0"/>
        <pt x="353" y="874" on="0"/>
      </contour>
    </TTGlyph>
    <TTGlyph name="parenright" xMin="18" yMin="-379" xMax="507" yMax="1604">
      <contour>
        <pt x="317" y="612" on="1"/>
        <pt x="317" y="874" on="0"/>
        <pt x="165" y="1321" on="0"/>
        <pt x="18" y="1511" on="1"/>
        <pt x="153" y="1604" on="1"/>
        <pt x="313" y="1409" on="0"/>
        <pt x="507" y="903" on="0"/>
        <pt x="507" y="612" on="1"/>
        <pt x="507" y="322" on="0"/>
        <pt x="313" y="-184" on="0"/>
        <pt x="153" y="-379" on="1"/>
        <pt x="18" y="-287" on="1"/>
        <pt x="165" y="-96" on="0"/>
        <pt x="317" y="350" on="0"/>
      </contour>
    </TTGlyph>
    <TTGlyph name="percent" xMin="106" yMin="-31" xMax="1658" yMax="1450">
      <contour>
        <pt x="106" y="1073" on="1"/>
        <pt x="106" y="1165" on="0"/>
        <pt x="155" y="1305" on="0"/>
        <pt x="243" y="1401" on="0"/>
        <pt x="362" y="1450" on="0"/>
        <pt x="432" y="1450" on="1"/>
        <pt x="501" y="1450" on="0"/>
        <pt x="620" y="1401" on="0"/>
        <pt x="708" y="1305" on="0"/>
        <pt x="757" y="1165" on="0"/>
        <pt x="757" y="1073" on="1"/>
        <pt x="757" y="981" on="0"/>
        <pt x="708" y="842" on="0"/>
        <pt x="620" y="745" on="0"/>
        <pt x="501" y="696" on="0"/>
        <pt x="432" y="696" on="1"/>
        <pt x="362" y="696" on="0"/>
        <pt x="243" y="745" on="0"/>
        <pt x="155" y="842" on="0"/>
        <pt x="106" y="981" on="0"/>
      </contour>
      <contour>
        <pt x="598" y="1073" on="1"/>
        <pt x="598" y="1184" on="0"/>
        <pt x="512" y="1309" on="0"/>
        <pt x="432" y="1309" on="1"/>
        <pt x="352" y="1309" on="0"/>
        <pt x="266" y="1184" on="0"/>
        <pt x="266" y="1073" on="1"/>
        <pt x="266" y="963" on="0"/>
        <pt x="352" y="838" on="0"/>
        <pt x="432" y="838" on="1"/>
        <pt x="512" y="838" on="0"/>
        <pt x="598" y="963" on="0"/>
      </contour>
      <contour>
        <pt x="1007" y="346" on="1"/>
        <pt x="1007" y="438" on="0"/>
        <pt x="1056" y="578" on="0"/>
        <pt x="1144" y="674" on="0"/>
        <pt x="1263" y="723" on="0"/>
        <pt x="1333" y="723" on="1"/>
        <pt x="1402" y="723" on="0"/>
        <pt x="1521" y="674" on="0"/>
        <pt x="1609" y="578" on="0"/>
        <pt x="1658" y="438" on="0"/>
        <pt x="1658" y="346" on="1"/>
        <pt x="1658" y="254" on="0"/>
        <pt x="1609" y="115" on="0"/>
        <pt x="1521" y="18" on="0"/>
        <pt x="1402" y="-31" on="0"/>
        <pt x="1333" y="-31" on="1"/>
        <pt x="1263" y="-31" on="0"/>
        <pt x="1144" y="18" on="0"/>
        <pt x="1056" y="115" on="0"/>
        <pt x="1007" y="254" on="0"/>
      </contour>
      <contour>
        <pt x="1499" y="346" on="1"/>
        <pt x="1499" y="457" on="0"/>
        <pt x="1413" y="582" on="0"/>
        <pt x="1333" y="582" on="1"/>
        <pt x="1253" y="582" on="0"/>
        <pt x="1167" y="457" on="0"/>
        <pt x="1167" y="346" on="1"/>
        <pt x="1167" y="236" on="0"/>
        <pt x="1253" y="111" on="0"/>
        <pt x="1333" y="111" on="1"/>
        <pt x="1413" y="111" on="0"/>
        <pt x="1499" y="236" on="0"/>
      </contour>
      <contour>
        <pt x="1376" y="1419" on="1"/>
        <pt x="575" y="0" on="1"/>
        <pt x="389" y="0" on="1"/>
        <pt x="1189" y="1419" on="1"/>
      </contour>
    </TTGlyph>
    <TTGlyph name="period" xMin="118" yMin="-27" xMax="392" yMax="248">
      <contour>
        <pt x="392" y="111" on="1"/>
        <pt x="392" y="55" on="0"/>
        <pt x="319" y="-27" on="0"/>
        <pt x="255" y="-27" on="1"/>
        <pt x="192" y="-27" on="0"/>
        <pt x="118" y="55" on="0"/>
        <pt x="118" y="111" on="1"/>
        <pt x="118" y="166" on="0"/>
        <pt x="192" y="248" on="0"/>
        <pt x="255" y="248" on="1"/>
        <pt x="319" y="248" on="0"/>
        <pt x="392" y="166" on="0"/>
      </contour>
    </TTGlyph>
    <TTGlyph name="plus" xMin="112" yMin="98" xMax="1050" yMax="1106">
      <contour>
        <pt x="112" y="684" on="1"/>
        <pt x="499" y="684" on="1"/>
        <pt x="499" y="1106" on="1"/>
        <pt x="663" y="1106" on="1"/>
        <pt x="663" y="684" on="1"/>
        <pt x="1050" y="684" on="1"/>
        <pt x="1050" y="522" on="1"/>
        <pt x="663" y="522" on="1"/>
        <pt x="663" y="98" on="1"/>
        <pt x="499" y="98" on="1"/>
        <pt x="499" y="522" on="1"/>
        <pt x="112" y="522" on="1"/>
      </contour>
    </TTGlyph>
    <TTGlyph name="question" xMin="43" yMin="-27" xMax="776" yMax="1452">
      <contour>
        <pt x="360" y="1292" on="1"/>
        <pt x="225" y="1292" on="0"/>
        <pt x="96" y="1223" on="1"/>
        <pt x="43" y="1370" on="1"/>
        <pt x="113" y="1407" on="0"/>
        <pt x="287" y="1452" on="0"/>
        <pt x="385" y="1452" on="1"/>
        <pt x="502" y="1452" on="0"/>
        <pt x="651" y="1389" on="0"/>
        <pt x="741" y="1290" on="0"/>
        <pt x="776" y="1169" on="0"/>
        <pt x="776" y="1114" on="1"/>
        <pt x="776" y="1044" on="0"/>
        <pt x="723" y="936" on="0"/>
        <pt x="645" y="842" on="0"/>
        <pt x="551" y="756" on="0"/>
        <pt x="473" y="664" on="0"/>
        <pt x="420" y="555" on="0"/>
        <pt x="420" y="487" on="1"/>
        <pt x="420" y="465" on="1"/>
        <pt x="420" y="453" on="0"/>
        <pt x="422" y="442" on="1"/>
        <pt x="262" y="442" on="1"/>
        <pt x="254" y="483" on="0"/>
        <pt x="254" y="528" on="1"/>
        <pt x="254" y="594" on="0"/>
        <pt x="301" y="700" on="0"/>
        <pt x="375" y="793" on="0"/>
        <pt x="457" y="872" on="0"/>
        <pt x="530" y="954" on="0"/>
        <pt x="578" y="1044" on="0"/>
        <pt x="578" y="1098" on="1"/>
        <pt x="578" y="1184" on="0"/>
        <pt x="467" y="1292" on="0"/>
      </contour>
      <contour>
        <pt x="489" y="111" on="1"/>
        <pt x="489" y="55" on="0"/>
        <pt x="416" y="-27" on="0"/>
        <pt x="352" y="-27" on="1"/>
        <pt x="289" y="-27" on="0"/>
        <pt x="215" y="55" on="0"/>
        <pt x="215" y="111" on="1"/>
        <pt x="215" y="166" on="0"/>
        <pt x="289" y="248" on="0"/>
        <pt x="352" y="248" on="1"/>
        <pt x="416" y="248" on="0"/>
        <pt x="489" y="166" on="0"/>
      </contour>
    </TTGlyph>
    <TTGlyph name="quotedbl" xMin="151" yMin="1026" xMax="712" yMax="1556">
      <contour>
        <pt x="350" y="1556" on="1"/>
        <pt x="350" y="1454" on="1"/>
        <pt x="350" y="1354" on="0"/>
        <pt x="325" y="1135" on="0"/>
        <pt x="307" y="1026" on="1"/>
        <pt x="194" y="1026" on="1"/>
        <pt x="176" y="1135" on="0"/>
        <pt x="151" y="1354" on="0"/>
        <pt x="151" y="1456" on="1"/>
        <pt x="151" y="1556" on="1"/>
      </contour>
      <contour>
        <pt x="712" y="1556" on="1"/>
        <pt x="712" y="1454" on="1"/>
        <pt x="712" y="1354" on="0"/>
        <pt x="688" y="1135" on="0"/>
        <pt x="669" y="1026" on="1"/>
        <pt x="557" y="1026" on="1"/>
        <pt x="538" y="1135" on="0"/>
        <pt x="513" y="1354" on="0"/>
        <pt x="513" y="1456" on="1"/>
        <pt x="513" y="1556" on="1"/>
      </contour>
    </TTGlyph>
</ttFont>
